ScienceGothic-BlkCndS.ufo
<glyph name="exclam" format="2">
  <advance width="714.482"/>
  <unicode hex="0021"/>
  <outline>
    <contour>
      <point x="-23.7142" y="135" type="line"/>
      <point x="-8.7142" y="226" type="line" smooth="yes"/>
      <point x="-0.7142" y="270"/>
      <point x="19.2858" y="324"/>
      <point x="55.2858" y="354"/>
      <point x="112.286" y="364"/>
      <point x="157.286" y="364" type="qcurve" smooth="yes"/>
      <point x="444.286" y="364" type="line" smooth="yes"/>
      <point x="489.286" y="364"/>
      <point x="543.286" y="354"/>
      <point x="568.286" y="324"/>
      <point x="569.286" y="269"/>
      <point x="561.286" y="224" type="qcurve" smooth="yes"/>
      <point x="546.286" y="135" type="line" smooth="yes"/>
      <point x="538.286" y="90"/>
      <point x="518.286" y="35"/>
      <point x="482.286" y="4"/>
      <point x="425.286" y="-6"/>
      <point x="380.286" y="-6" type="qcurve" smooth="yes"/>
      <point x="92.2858" y="-6" type="line" smooth="yes"/>
      <point x="47.2858" y="-6"/>
      <point x="-5.7142" y="4"/>
      <point x="-30.7142" y="35"/>
      <point x="-31.7142" y="90"/>
      <point x="-23.7142" y="135" type="qcurve"/>
    </contour>
    <contour>
      <point x="80.2858" y="462" type="line"/>
      <point x="196.286" y="1400" type="line"/>
      <point x="766.286" y="1400" type="line"/>
      <point x="556.286" y="462" type="line"/>
    </contour>
  </outline>
</glyph>
<glyph name="numbersign" format="2">
  <advance width="872"/>
  <unicode hex="0023"/>
  <outline>
    <contour>
      <point x="-31" y="224" type="line"/>
      <point x="72" y="636" type="line"/>
      <point x="777" y="636" type="line"/>
      <point x="674" y="224" type="line"/>
    </contour>
    <contour>
      <point x="102" y="765" type="line"/>
      <point x="204" y="1177" type="line"/>
      <point x="909" y="1177" type="line"/>
      <point x="807" y="765" type="line"/>
    </contour>
    <contour>
      <point x="14" y="0" type="line"/>
      <point x="358" y="1400" type="line"/>
      <point x="561" y="1400" type="line"/>
      <point x="217" y="0" type="line"/>
    </contour>
    <contour>
      <point x="316" y="0" type="line"/>
      <point x="660" y="1400" type="line"/>
      <point x="863" y="1400" type="line"/>
      <point x="519" y="0" type="line"/>
    </contour>
  </outline>
</glyph>
<glyph name="dollar" format="2">
  <advance width="1273"/>
  <unicode hex="0024"/>
  <outline>
    <contour>
      <point x="454" y="-168" type="line"/>
      <point x="484" y="6" type="line"/>
      <point x="323" y="6" type="line" smooth="yes"/>
      <point x="227" y="6"/>
      <point x="80" y="34"/>
      <point x="-13" y="109"/>
      <point x="-46" y="242"/>
      <point x="-27" y="348" type="qcurve" smooth="yes"/>
      <point x="-16" y="410" type="line"/>
      <point x="539" y="462" type="line"/>
      <point x="523" y="372" type="line"/>
      <point x="523" y="372"/>
      <point x="523" y="372"/>
      <point x="523" y="372"/>
      <point x="523" y="372"/>
      <point x="523" y="372" type="qcurve"/>
      <point x="548" y="372" type="line"/>
      <point x="573" y="514" type="line"/>
      <point x="430" y="514" type="line" smooth="yes"/>
      <point x="334" y="514"/>
      <point x="188" y="542"/>
      <point x="96" y="618"/>
      <point x="63" y="752"/>
      <point x="82" y="858" type="qcurve" smooth="yes"/>
      <point x="117" y="1062" type="line" smooth="yes"/>
      <point x="135" y="1166"/>
      <point x="219" y="1295"/>
      <point x="342" y="1368"/>
      <point x="499" y="1394"/>
      <point x="591" y="1394" type="qcurve" smooth="yes"/>
      <point x="726" y="1394" type="line"/>
      <point x="757" y="1568" type="line"/>
      <point x="819" y="1568" type="line"/>
      <point x="788" y="1394" type="line"/>
      <point x="927" y="1394" type="line" smooth="yes"/>
      <point x="1018" y="1394"/>
      <point x="1165" y="1369"/>
      <point x="1260" y="1297"/>
      <point x="1298" y="1169"/>
      <point x="1280" y="1066" type="qcurve" smooth="yes"/>
      <point x="1270" y="1006" type="line"/>
      <point x="735" y="958" type="line"/>
      <point x="747" y="1028" type="line"/>
      <point x="747" y="1028"/>
      <point x="747" y="1028"/>
      <point x="747" y="1028"/>
      <point x="747" y="1028"/>
      <point x="747" y="1028" type="qcurve"/>
      <point x="724" y="1028" type="line"/>
      <point x="702" y="900" type="line"/>
      <point x="859" y="900" type="line" smooth="yes"/>
      <point x="950" y="900"/>
      <point x="1097" y="875"/>
      <point x="1194" y="804"/>
      <point x="1232" y="676"/>
      <point x="1214" y="572" type="qcurve" smooth="yes"/>
      <point x="1175" y="350" type="line" smooth="yes"/>
      <point x="1156" y="244"/>
      <point x="1076" y="109"/>
      <point x="956" y="34"/>
      <point x="799" y="6"/>
      <point x="703" y="6" type="qcurve" smooth="yes"/>
      <point x="546" y="6" type="line"/>
      <point x="516" y="-168" type="line"/>
    </contour>
    <contour>
      <point x="640" y="900" type="line"/>
      <point x="662" y="1028" type="line"/>
      <point x="637" y="1028" type="line"/>
      <point x="637" y="1028"/>
      <point x="637" y="1028"/>
      <point x="637" y="1028"/>
      <point x="637" y="1028"/>
      <point x="637" y="1028" type="qcurve"/>
      <point x="615" y="900" type="line"/>
      <point x="615" y="900"/>
      <point x="615" y="900"/>
      <point x="615" y="900"/>
      <point x="615" y="900"/>
      <point x="615" y="900" type="qcurve"/>
    </contour>
    <contour>
      <point x="610" y="372" type="line"/>
      <point x="633" y="372" type="line"/>
      <point x="633" y="372"/>
      <point x="633" y="372"/>
      <point x="633" y="372"/>
      <point x="633" y="372"/>
      <point x="633" y="372" type="qcurve"/>
      <point x="658" y="514" type="line"/>
      <point x="658" y="514"/>
      <point x="658" y="514"/>
      <point x="658" y="514"/>
      <point x="658" y="514"/>
      <point x="658" y="514" type="qcurve"/>
      <point x="635" y="514" type="line"/>
    </contour>
  </outline>
</glyph>
<glyph name="ampersand" format="2">
  <advance width="1588"/>
  <unicode hex="0026"/>
  <outline>
    <contour>
      <point x="195" y="-10" type="line"/>
      <point x="589" y="-10" type="line" smooth="yes"/>
      <point x="615" y="-10"/>
      <point x="671" y="1"/>
      <point x="729" y="24"/>
      <point x="792" y="59"/>
      <point x="826" y="82" type="qcurve"/>
      <point x="827" y="83" type="line"/>
      <point x="885" y="0" type="line"/>
      <point x="1468" y="0" type="line"/>
      <point x="1205" y="381" type="line"/>
      <point x="1557" y="659" type="line"/>
      <point x="1318" y="949" type="line"/>
      <point x="999" y="697" type="line"/>
      <point x="781" y="1012" type="line"/>
      <point x="781" y="1012"/>
      <point x="781" y="1012"/>
      <point x="781" y="1012"/>
      <point x="781" y="1012"/>
      <point x="781" y="1012" type="qcurve"/>
      <point x="787" y="1048" type="line"/>
      <point x="787" y="1048"/>
      <point x="787" y="1048"/>
      <point x="787" y="1048"/>
      <point x="787" y="1048"/>
      <point x="787" y="1048" type="qcurve"/>
      <point x="896" y="1048" type="line"/>
      <point x="896" y="1048"/>
      <point x="896" y="1048"/>
      <point x="896" y="1048"/>
      <point x="896" y="1048"/>
      <point x="896" y="1048" type="qcurve"/>
      <point x="884" y="978" type="line"/>
      <point x="1329" y="1036" type="line"/>
      <point x="1343" y="1119" type="line" smooth="yes"/>
      <point x="1355" y="1188"/>
      <point x="1327" y="1297"/>
      <point x="1253" y="1373"/>
      <point x="1134" y="1414"/>
      <point x="1054" y="1414" type="qcurve" smooth="yes"/>
      <point x="676" y="1414" type="line" smooth="yes"/>
      <point x="601" y="1414"/>
      <point x="477" y="1373"/>
      <point x="383" y="1295"/>
      <point x="321" y="1182"/>
      <point x="309" y="1109" type="qcurve" smooth="yes"/>
      <point x="302" y="1071" type="line" smooth="yes"/>
      <point x="296" y="1037"/>
      <point x="286" y="978"/>
      <point x="281" y="924"/>
      <point x="283" y="874"/>
      <point x="289" y="848" type="qcurve"/>
      <point x="174" y="764" type="line" smooth="yes"/>
      <point x="128" y="730"/>
      <point x="63" y="669"/>
      <point x="18" y="608"/>
      <point x="-9" y="542"/>
      <point x="-16" y="504" type="qcurve" smooth="yes"/>
      <point x="-61" y="246" type="line" smooth="yes"/>
      <point x="-69" y="198"/>
      <point x="-34" y="106"/>
      <point x="39" y="34"/>
      <point x="139" y="-10"/>
      <point x="195" y="-10" type="qcurve"/>
    </contour>
    <contour>
      <point x="431" y="400" type="line"/>
      <point x="431" y="400"/>
      <point x="431" y="400"/>
      <point x="431" y="400"/>
      <point x="431" y="400"/>
      <point x="431" y="400" type="qcurve"/>
      <point x="444" y="478" type="line"/>
      <point x="444" y="478"/>
      <point x="444" y="478"/>
      <point x="444" y="478"/>
      <point x="444" y="478"/>
      <point x="444" y="478" type="qcurve"/>
      <point x="516" y="538" type="line"/>
      <point x="613" y="400" type="line"/>
      <point x="613" y="400" type="line"/>
      <point x="613" y="400"/>
      <point x="613" y="400"/>
      <point x="613" y="400"/>
      <point x="613" y="400"/>
      <point x="613" y="400" type="qcurve"/>
    </contour>
  </outline>
</glyph>
<glyph name="quotesingle" format="2">
  <advance width="611"/>
  <unicode hex="0027"/>
  <outline>
    <contour>
      <point x="109.387" y="1184" type="line"/>
      <point x="135.387" y="1333" type="line" smooth="yes"/>
      <point x="143.387" y="1376"/>
      <point x="155.387" y="1423"/>
      <point x="178.387" y="1446"/>
      <point x="219.387" y="1450"/>
      <point x="255.387" y="1450" type="qcurve" smooth="yes"/>
      <point x="627.387" y="1450" type="line" smooth="yes"/>
      <point x="663.387" y="1450"/>
      <point x="702.387" y="1446"/>
      <point x="717.387" y="1423"/>
      <point x="713.387" y="1376"/>
      <point x="705.387" y="1333" type="qcurve" smooth="yes"/>
      <point x="679.387" y="1184" type="line"/>
      <point x="469.387" y="785" type="line"/>
      <point x="179.387" y="785" type="line"/>
    </contour>
  </outline>
</glyph>
<glyph name="parenleft" format="2">
  <advance width="658"/>
  <unicode hex="0028"/>
  <outline>
    <contour>
      <point x="488.532" y="-256" type="line"/>
      <point x="212.532" y="-256" type="line"/>
      <point x="151.532" y="-182"/>
      <point x="64.5321" y="17"/>
      <point x="17.5321" y="246"/>
      <point x="13.5321" y="496"/>
      <point x="35.5321" y="622" type="qcurve" smooth="yes"/>
      <point x="57.5321" y="748"/>
      <point x="149.532" y="998"/>
      <point x="275.532" y="1228"/>
      <point x="431.532" y="1426"/>
      <point x="518.532" y="1500" type="qcurve"/>
      <point x="794.532" y="1500" type="line"/>
      <point x="758.532" y="1447"/>
      <point x="689.532" y="1321"/>
      <point x="626.532" y="1181"/>
      <point x="570.532" y="1028"/>
      <point x="521.532" y="869"/>
      <point x="481.532" y="704"/>
      <point x="467.532" y="622" type="qcurve" smooth="yes"/>
      <point x="453.532" y="540"/>
      <point x="434.532" y="375"/>
      <point x="427.532" y="216"/>
      <point x="431.532" y="63"/>
      <point x="445.532" y="-77"/>
      <point x="470.532" y="-203"/>
      <point x="488.532" y="-256" type="qcurve"/>
    </contour>
  </outline>
</glyph>
<glyph name="asterisk" format="2">
  <advance width="653"/>
  <unicode hex="002A"/>
  <outline>
    <contour>
      <point x="276" y="903" type="line"/>
      <point x="300" y="1044" type="line"/>
      <point x="164" y="962" type="line"/>
      <point x="94" y="1098" type="line"/>
      <point x="251" y="1193" type="line"/>
      <point x="135" y="1279" type="line"/>
      <point x="244" y="1411" type="line"/>
      <point x="350" y="1333" type="line"/>
      <point x="375" y="1472" type="line"/>
      <point x="551" y="1472" type="line"/>
      <point x="526" y="1328" type="line"/>
      <point x="667" y="1411" type="line"/>
      <point x="737" y="1274" type="line"/>
      <point x="579" y="1181" type="line"/>
      <point x="691" y="1096" type="line"/>
      <point x="582" y="964" type="line"/>
      <point x="477" y="1045" type="line"/>
      <point x="452" y="903" type="line"/>
    </contour>
  </outline>
</glyph>
<glyph name="plus" format="2">
  <advance width="1036.28"/>
  <unicode hex="002B"/>
  <outline>
    <contour>
      <point x="993" y="732" type="line"/>
      <point x="942" y="442" type="line"/>
      <point x="631" y="442" type="line"/>
      <point x="563" y="51" type="line"/>
      <point x="251" y="51" type="line"/>
      <point x="319" y="442" type="line"/>
      <point x="8" y="442" type="line"/>
      <point x="59" y="732" type="line"/>
      <point x="370" y="732" type="line"/>
      <point x="437" y="1117" type="line"/>
      <point x="749" y="1117" type="line"/>
      <point x="682" y="732" type="line"/>
    </contour>
  </outline>
</glyph>
<glyph name="comma" format="2">
  <advance width="672"/>
  <unicode hex="002C"/>
  <outline>
    <contour>
      <point x="-24.6861" y="145" type="line"/>
      <point x="17.3139" y="385" type="line" smooth="yes"/>
      <point x="25.3139" y="429"/>
      <point x="45.3139" y="484"/>
      <point x="80.3139" y="514"/>
      <point x="137.314" y="524"/>
      <point x="182.314" y="524" type="qcurve" smooth="yes"/>
      <point x="430.314" y="524" type="line" smooth="yes"/>
      <point x="475.314" y="524"/>
      <point x="529.314" y="514"/>
      <point x="554.314" y="484"/>
      <point x="555.314" y="429"/>
      <point x="547.314" y="385" type="qcurve" smooth="yes"/>
      <point x="505.314" y="145" type="line" smooth="yes"/>
      <point x="497.314" y="100"/>
      <point x="477.314" y="45"/>
      <point x="442.314" y="14"/>
      <point x="385.314" y="4"/>
      <point x="340.314" y="4" type="qcurve" smooth="yes"/>
      <point x="92.3139" y="4" type="line" smooth="yes"/>
      <point x="47.3139" y="4"/>
      <point x="-6.68611" y="14"/>
      <point x="-31.6861" y="45"/>
      <point x="-32.6861" y="100"/>
      <point x="-24.6861" y="145" type="qcurve"/>
    </contour>
    <contour>
      <point x="-89.6861" y="-298" type="line"/>
      <point x="134.314" y="22" type="line"/>
      <point x="466.314" y="36" type="line"/>
      <point x="114.314" y="-342" type="line"/>
      <point x="-89.6861" y="-298" type="line"/>
    </contour>
  </outline>
</glyph>
<glyph name="hyphen" format="2">
  <advance width="692"/>
  <unicode hex="002D"/>
  <outline>
    <contour>
      <point x="78.235" y="818" type="line"/>
      <point x="659.235" y="818" type="line"/>
      <point x="587.235" y="406" type="line"/>
      <point x="6.23503" y="406" type="line"/>
    </contour>
  </outline>
  <guideline y="610"/>
</glyph>
<glyph name="period" format="2">
  <advance width="670"/>
  <unicode hex="002E"/>
  <outline>
    <contour>
      <point x="-25.5098" y="135" type="line"/>
      <point x="17.4902" y="386" type="line" smooth="yes"/>
      <point x="25.4902" y="430"/>
      <point x="45.4902" y="484"/>
      <point x="80.4902" y="514"/>
      <point x="137.49" y="524"/>
      <point x="182.49" y="524" type="qcurve" smooth="yes"/>
      <point x="429.49" y="524" type="line" smooth="yes"/>
      <point x="474.49" y="524"/>
      <point x="528.49" y="514"/>
      <point x="554.49" y="484"/>
      <point x="555.49" y="429"/>
      <point x="547.49" y="384" type="qcurve" smooth="yes"/>
      <point x="504.49" y="135" type="line" smooth="yes"/>
      <point x="496.49" y="90"/>
      <point x="476.49" y="35"/>
      <point x="440.49" y="4"/>
      <point x="383.49" y="-6"/>
      <point x="338.49" y="-6" type="qcurve" smooth="yes"/>
      <point x="90.4902" y="-6" type="line" smooth="yes"/>
      <point x="45.4902" y="-6"/>
      <point x="-7.50978" y="4"/>
      <point x="-32.5098" y="35"/>
      <point x="-33.5098" y="90"/>
      <point x="-25.5098" y="135" type="qcurve"/>
    </contour>
  </outline>
</glyph>
<glyph name="slash" format="2">
  <advance width="764"/>
  <unicode hex="002F"/>
  <outline>
    <contour>
      <point x="440.081" y="1430" type="line"/>
      <point x="860.081" y="1430" type="line"/>
      <point x="317.081" y="-100" type="line"/>
      <point x="-102.919" y="-100" type="line"/>
    </contour>
  </outline>
</glyph>
<glyph name="zero" format="2">
  <advance width="1402" height="1448"/>
  <unicode hex="0030"/>
  <outline>
    <contour>
      <point x="368" y="-18" type="line"/>
      <point x="786" y="-18" type="line" smooth="yes"/>
      <point x="885" y="-18"/>
      <point x="1045" y="13"/>
      <point x="1164" y="91"/>
      <point x="1242" y="225"/>
      <point x="1260" y="328" type="qcurve" smooth="yes"/>
      <point x="1392" y="1084" type="line" smooth="yes"/>
      <point x="1410" y="1185"/>
      <point x="1374" y="1314"/>
      <point x="1279" y="1389"/>
      <point x="1131" y="1418"/>
      <point x="1036" y="1418" type="qcurve" smooth="yes"/>
      <point x="618" y="1418" type="line" smooth="yes"/>
      <point x="524" y="1418"/>
      <point x="366" y="1389"/>
      <point x="246" y="1314"/>
      <point x="166" y="1185"/>
      <point x="148" y="1084" type="qcurve" smooth="yes"/>
      <point x="16" y="328" type="line" smooth="yes"/>
      <point x="-2" y="225"/>
      <point x="30" y="91"/>
      <point x="121" y="13"/>
      <point x="269" y="-18"/>
      <point x="368" y="-18" type="qcurve"/>
    </contour>
    <contour>
      <point x="615" y="484" type="line"/>
      <point x="615" y="484"/>
      <point x="615" y="484"/>
      <point x="615" y="484" type="qcurve"/>
      <point x="691" y="916" type="line"/>
      <point x="691" y="916"/>
      <point x="691" y="916"/>
      <point x="691" y="916"/>
      <point x="691" y="916"/>
      <point x="691" y="916" type="qcurve"/>
      <point x="791" y="916" type="line"/>
      <point x="791" y="916"/>
      <point x="791" y="916"/>
      <point x="791" y="916"/>
      <point x="791" y="916"/>
      <point x="791" y="916" type="qcurve"/>
      <point x="715" y="484" type="line"/>
      <point x="715" y="484"/>
      <point x="715" y="484"/>
      <point x="715" y="484"/>
      <point x="715" y="484"/>
      <point x="715" y="484" type="qcurve"/>
    </contour>
  </outline>
</glyph>
<glyph name="one" format="2">
  <advance width="885" height="1448"/>
  <unicode hex="0031"/>
  <outline>
    <contour>
      <point x="105" y="0" type="line"/>
      <point x="677" y="0" type="line"/>
      <point x="926" y="1428" type="line"/>
      <point x="150" y="1314" type="line"/>
      <point x="80" y="912" type="line"/>
      <point x="267" y="926" type="line"/>
    </contour>
  </outline>
  <guideline x="443" name="halfwidth" color="0.4,0.4,0.4,1"/>
</glyph>
<glyph name="two" format="2">
  <advance width="1348"/>
  <unicode hex="0032"/>
  <outline>
    <contour>
      <point x="-58" y="0" type="line"/>
      <point x="5" y="359" type="line" smooth="yes"/>
      <point x="20" y="444"/>
      <point x="84" y="579"/>
      <point x="176" y="683"/>
      <point x="294" y="759"/>
      <point x="362" y="784" type="qcurve" smooth="yes"/>
      <point x="751" y="928" type="line" smooth="yes"/>
      <point x="757" y="930"/>
      <point x="766" y="935"/>
      <point x="772" y="941"/>
      <point x="776" y="947"/>
      <point x="777" y="951" type="qcurve" smooth="yes"/>
      <point x="790" y="1028" type="line"/>
      <point x="790" y="1028"/>
      <point x="790" y="1028"/>
      <point x="790" y="1028" type="qcurve"/>
      <point x="656" y="1028" type="line"/>
      <point x="656" y="1028"/>
      <point x="656" y="1028"/>
      <point x="656" y="1028" type="qcurve"/>
      <point x="641" y="942" type="line"/>
      <point x="125" y="998" type="line"/>
      <point x="141" y="1086" type="line" smooth="yes"/>
      <point x="159" y="1189"/>
      <point x="240" y="1317"/>
      <point x="361" y="1389"/>
      <point x="517" y="1414"/>
      <point x="608" y="1414" type="qcurve" smooth="yes"/>
      <point x="968" y="1414" type="line" smooth="yes"/>
      <point x="1060" y="1414"/>
      <point x="1208" y="1388"/>
      <point x="1305" y="1315"/>
      <point x="1344" y="1186"/>
      <point x="1326" y="1082" type="qcurve" smooth="yes"/>
      <point x="1306" y="971" type="line" smooth="yes"/>
      <point x="1291" y="887"/>
      <point x="1234" y="769"/>
      <point x="1125" y="676"/>
      <point x="953" y="595"/>
      <point x="824" y="547" type="qcurve" smooth="yes"/>
      <point x="592" y="461" type="line" smooth="yes"/>
      <point x="576" y="455"/>
      <point x="554" y="436"/>
      <point x="540" y="416"/>
      <point x="533" y="396"/>
      <point x="532" y="388" type="qcurve" smooth="yes"/>
      <point x="531" y="386" type="line"/>
      <point x="708" y="386" type="line"/>
      <point x="708" y="386"/>
      <point x="708" y="386"/>
      <point x="708" y="386" type="qcurve"/>
      <point x="723" y="472" type="line"/>
      <point x="1240" y="416" type="line"/>
      <point x="1227" y="342" type="line" smooth="yes"/>
      <point x="1208" y="236"/>
      <point x="1128" y="103"/>
      <point x="1009" y="28"/>
      <point x="852" y="0"/>
      <point x="757" y="0" type="qcurve" smooth="yes"/>
    </contour>
  </outline>
</glyph>
<glyph name="three" format="2">
  <advance width="1378" height="1448"/>
  <unicode hex="0033"/>
  <outline>
    <contour>
      <point x="28" y="393" type="line"/>
      <point x="576" y="487" type="line"/>
      <point x="558" y="383" type="line"/>
      <point x="558" y="383"/>
      <point x="558" y="383"/>
      <point x="558" y="383"/>
      <point x="558" y="383"/>
      <point x="558" y="383" type="qcurve"/>
      <point x="616" y="383" type="line" smooth="yes"/>
      <point x="636" y="383"/>
      <point x="673" y="390"/>
      <point x="701" y="406"/>
      <point x="721" y="432"/>
      <point x="724" y="451" type="qcurve" smooth="yes"/>
      <point x="729" y="480" type="line" smooth="yes"/>
      <point x="732" y="495"/>
      <point x="721" y="518"/>
      <point x="702" y="534"/>
      <point x="676" y="542"/>
      <point x="662" y="542" type="qcurve" smooth="yes"/>
      <point x="592" y="542" type="line"/>
      <point x="650" y="874" type="line"/>
      <point x="720" y="874" type="line" smooth="yes"/>
      <point x="733" y="874"/>
      <point x="756" y="883"/>
      <point x="775" y="898"/>
      <point x="788" y="921"/>
      <point x="790" y="934" type="qcurve" smooth="yes"/>
      <point x="794" y="956" type="line" smooth="yes"/>
      <point x="797" y="973"/>
      <point x="788" y="996"/>
      <point x="767" y="1011"/>
      <point x="737" y="1018"/>
      <point x="719" y="1018" type="qcurve" smooth="yes"/>
      <point x="669" y="1018" type="line"/>
      <point x="669" y="1018"/>
      <point x="669" y="1018"/>
      <point x="669" y="1018" type="qcurve"/>
      <point x="655" y="939" type="line"/>
      <point x="139" y="1032" type="line"/>
      <point x="153" y="1110" type="line" smooth="yes"/>
      <point x="166" y="1187"/>
      <point x="234" y="1302"/>
      <point x="343" y="1379"/>
      <point x="496" y="1418"/>
      <point x="594" y="1418" type="qcurve" smooth="yes"/>
      <point x="1018" y="1418" type="line" smooth="yes"/>
      <point x="1215" y="1418"/>
      <point x="1378" y="1253"/>
      <point x="1351" y="1100" type="qcurve" smooth="yes"/>
      <point x="1336" y="1014" type="line" smooth="yes"/>
      <point x="1324" y="946"/>
      <point x="1280" y="845"/>
      <point x="1213" y="774"/>
      <point x="1120" y="731"/>
      <point x="1059" y="720" type="qcurve"/>
      <point x="1121" y="714"/>
      <point x="1206" y="674"/>
      <point x="1254" y="599"/>
      <point x="1264" y="487"/>
      <point x="1250" y="408" type="qcurve" smooth="yes"/>
      <point x="1233" y="312" type="line" smooth="yes"/>
      <point x="1217" y="217"/>
      <point x="1136" y="90"/>
      <point x="1015" y="14"/>
      <point x="860" y="-18"/>
      <point x="768" y="-18" type="qcurve" smooth="yes"/>
      <point x="344" y="-18" type="line" smooth="yes"/>
      <point x="253" y="-18"/>
      <point x="114" y="11"/>
      <point x="27" y="83"/>
      <point x="-5" y="207"/>
      <point x="12" y="302" type="qcurve" smooth="yes"/>
    </contour>
  </outline>
</glyph>
<glyph name="four" format="2">
  <advance width="1365.89"/>
  <unicode hex="0034"/>
  <outline>
    <contour>
      <point x="-59" y="200" type="line"/>
      <point x="568" y="200" type="line"/>
      <point x="533" y="0" type="line"/>
      <point x="1095" y="0" type="line"/>
      <point x="1130" y="200" type="line"/>
      <point x="1229" y="200" type="line"/>
      <point x="1299" y="602" type="line"/>
      <point x="1200" y="602" type="line"/>
      <point x="1339" y="1400" type="line"/>
      <point x="627" y="1400" type="line"/>
      <point x="5" y="568" type="line"/>
    </contour>
    <contour>
      <point x="505" y="582" type="line"/>
      <point x="677" y="821" type="line"/>
      <point x="635" y="582" type="line"/>
    </contour>
  </outline>
</glyph>
<glyph name="five" format="2">
  <advance width="1211"/>
  <unicode hex="0035"/>
  <outline>
    <contour>
      <point x="373" y="-12" type="line"/>
      <point x="345" y="-12"/>
      <point x="268" y="-4"/>
      <point x="182" y="11"/>
      <point x="90" y="31"/>
      <point x="46" y="44" type="qcurve"/>
      <point x="17" y="386" type="line"/>
      <point x="34" y="382"/>
      <point x="81" y="374"/>
      <point x="135" y="366"/>
      <point x="196" y="358"/>
      <point x="258" y="353"/>
      <point x="320" y="350"/>
      <point x="349" y="350" type="qcurve" smooth="yes"/>
      <point x="388" y="350"/>
      <point x="457" y="357"/>
      <point x="511" y="377"/>
      <point x="546" y="412"/>
      <point x="551" y="440" type="qcurve" smooth="yes"/>
      <point x="555" y="463"/>
      <point x="539" y="495"/>
      <point x="497" y="516"/>
      <point x="427" y="526"/>
      <point x="376" y="526" type="qcurve" smooth="yes"/>
      <point x="315" y="526"/>
      <point x="209" y="517"/>
      <point x="124" y="504"/>
      <point x="59" y="489"/>
      <point x="38" y="482" type="qcurve"/>
      <point x="278" y="1400" type="line"/>
      <point x="1186" y="1400" type="line"/>
      <point x="1028" y="974" type="line"/>
      <point x="523" y="974" type="line"/>
      <point x="500" y="882" type="line"/>
      <point x="517" y="883"/>
      <point x="548" y="885"/>
      <point x="582" y="886"/>
      <point x="625" y="886"/>
      <point x="654" y="886" type="qcurve" smooth="yes"/>
      <point x="725" y="886"/>
      <point x="859" y="874"/>
      <point x="975" y="839"/>
      <point x="1068" y="776"/>
      <point x="1125" y="677"/>
      <point x="1143" y="535"/>
      <point x="1126" y="438" type="qcurve" smooth="yes"/>
      <point x="1108" y="332"/>
      <point x="1022" y="183"/>
      <point x="904" y="83"/>
      <point x="760" y="25"/>
      <point x="605" y="-4"/>
      <point x="447" y="-12"/>
      <point x="373" y="-12" type="qcurve"/>
    </contour>
  </outline>
</glyph>
<glyph name="six" format="2">
  <advance width="1323"/>
  <unicode hex="0036"/>
  <outline>
    <contour>
      <point x="522" y="-18" type="line"/>
      <point x="651" y="-18"/>
      <point x="844" y="-9"/>
      <point x="987" y="23"/>
      <point x="1086" y="85"/>
      <point x="1156" y="191"/>
      <point x="1204" y="346"/>
      <point x="1223" y="456" type="qcurve" smooth="yes"/>
      <point x="1243" y="573"/>
      <point x="1252" y="737"/>
      <point x="1221" y="848"/>
      <point x="1147" y="911"/>
      <point x="1024" y="944"/>
      <point x="847" y="952"/>
      <point x="729" y="952" type="qcurve" smooth="yes"/>
      <point x="644" y="952"/>
      <point x="497" y="928"/>
      <point x="382" y="895"/>
      <point x="303" y="858"/>
      <point x="286" y="844" type="qcurve"/>
      <point x="223" y="484" type="line"/>
      <point x="258" y="499"/>
      <point x="335" y="527"/>
      <point x="422" y="548"/>
      <point x="520" y="560"/>
      <point x="575" y="560" type="qcurve" smooth="yes"/>
      <point x="599" y="560"/>
      <point x="634" y="557"/>
      <point x="660" y="549"/>
      <point x="676" y="536"/>
      <point x="685" y="518"/>
      <point x="685" y="493"/>
      <point x="682" y="477" type="qcurve" smooth="yes"/>
      <point x="679" y="460"/>
      <point x="672" y="433"/>
      <point x="664" y="415"/>
      <point x="654" y="403"/>
      <point x="639" y="396"/>
      <point x="620" y="393"/>
      <point x="607" y="393" type="qcurve" smooth="yes"/>
      <point x="594" y="393"/>
      <point x="576" y="397"/>
      <point x="565" y="407"/>
      <point x="559" y="422"/>
      <point x="558" y="446"/>
      <point x="562" y="478"/>
      <point x="566" y="499" type="qcurve" smooth="yes"/>
      <point x="585" y="607"/>
      <point x="629" y="771"/>
      <point x="680" y="892"/>
      <point x="739" y="974"/>
      <point x="807" y="1023"/>
      <point x="885" y="1044"/>
      <point x="929" y="1044" type="qcurve" smooth="yes"/>
      <point x="950" y="1044"/>
      <point x="991" y="1040"/>
      <point x="1031" y="1032"/>
      <point x="1068" y="1021"/>
      <point x="1086" y="1014" type="qcurve"/>
      <point x="994" y="1414" type="line"/>
      <point x="992" y="1415"/>
      <point x="981" y="1416"/>
      <point x="966" y="1417"/>
      <point x="950" y="1418"/>
      <point x="942" y="1418" type="qcurve" smooth="yes"/>
      <point x="820" y="1418"/>
      <point x="606" y="1375"/>
      <point x="422" y="1284"/>
      <point x="270" y="1146"/>
      <point x="150" y="955"/>
      <point x="63" y="712"/>
      <point x="37" y="562" type="qcurve" smooth="yes"/>
      <point x="14" y="430"/>
      <point x="-6" y="241"/>
      <point x="13" y="112"/>
      <point x="78" y="35"/>
      <point x="201" y="-6"/>
      <point x="389" y="-18"/>
      <point x="522" y="-18" type="qcurve"/>
    </contour>
  </outline>
</glyph>
<glyph name="seven" format="2">
  <advance width="1295"/>
  <unicode hex="0037"/>
  <outline>
    <contour>
      <point x="78" y="973" type="line"/>
      <point x="593" y="877" type="line"/>
      <point x="615" y="1000" type="line"/>
      <point x="790" y="1000" type="line"/>
      <point x="175" y="0" type="line"/>
      <point x="731" y="0" type="line"/>
      <point x="1332" y="1030" type="line"/>
      <point x="1396" y="1400" type="line"/>
      <point x="152" y="1400" type="line"/>
    </contour>
  </outline>
  <guideline x="647.5" name="halfwidth" color="0.4,0.4,0.4,1"/>
</glyph>
<glyph name="eight" format="2">
  <advance width="1434"/>
  <unicode hex="0038"/>
  <outline>
    <contour>
      <point x="566" y="425" type="line" smooth="yes"/>
      <point x="563" y="410"/>
      <point x="571" y="386"/>
      <point x="590" y="370"/>
      <point x="622" y="361"/>
      <point x="644" y="361" type="qcurve" smooth="yes"/>
      <point x="676" y="361" type="line" smooth="yes"/>
      <point x="698" y="361"/>
      <point x="733" y="370"/>
      <point x="758" y="386"/>
      <point x="773" y="410"/>
      <point x="776" y="425" type="qcurve" smooth="yes"/>
      <point x="782" y="457" type="line" smooth="yes"/>
      <point x="785" y="472"/>
      <point x="778" y="496"/>
      <point x="758" y="512"/>
      <point x="726" y="521"/>
      <point x="704" y="521" type="qcurve" smooth="yes"/>
      <point x="672" y="521" type="line" smooth="yes"/>
      <point x="650" y="521"/>
      <point x="615" y="512"/>
      <point x="590" y="496"/>
      <point x="575" y="472"/>
      <point x="572" y="457" type="qcurve" smooth="yes"/>
    </contour>
    <contour>
      <point x="859" y="975" type="line" smooth="yes"/>
      <point x="862" y="990"/>
      <point x="855" y="1013"/>
      <point x="837" y="1029"/>
      <point x="809" y="1038"/>
      <point x="791" y="1038" type="qcurve" smooth="yes"/>
      <point x="765" y="1038" type="line" smooth="yes"/>
      <point x="747" y="1038"/>
      <point x="716" y="1029"/>
      <point x="693" y="1013"/>
      <point x="678" y="990"/>
      <point x="675" y="975" type="qcurve" smooth="yes"/>
      <point x="672" y="957" type="line" smooth="yes"/>
      <point x="669" y="942"/>
      <point x="676" y="919"/>
      <point x="694" y="903"/>
      <point x="722" y="894"/>
      <point x="740" y="894" type="qcurve" smooth="yes"/>
      <point x="766" y="894" type="line" smooth="yes"/>
      <point x="784" y="894"/>
      <point x="815" y="903"/>
      <point x="838" y="919"/>
      <point x="853" y="942"/>
      <point x="856" y="957" type="qcurve" smooth="yes"/>
    </contour>
    <contour>
      <point x="9" y="335" type="line"/>
      <point x="19" y="392" type="line" smooth="yes"/>
      <point x="34" y="477"/>
      <point x="88" y="592"/>
      <point x="156" y="665"/>
      <point x="234" y="703"/>
      <point x="272" y="712" type="qcurve"/>
      <point x="238" y="721"/>
      <point x="185" y="765"/>
      <point x="152" y="833"/>
      <point x="142" y="923"/>
      <point x="152" y="977" type="qcurve"/>
      <point x="169" y="1079" type="line" smooth="yes"/>
      <point x="183" y="1157"/>
      <point x="255" y="1282"/>
      <point x="371" y="1371"/>
      <point x="530" y="1418"/>
      <point x="630" y="1418" type="qcurve" smooth="yes"/>
      <point x="1059" y="1418" type="line" smooth="yes"/>
      <point x="1160" y="1418"/>
      <point x="1302" y="1371"/>
      <point x="1387" y="1283"/>
      <point x="1415" y="1158"/>
      <point x="1401" y="1080" type="qcurve"/>
      <point x="1384" y="977" type="line"/>
      <point x="1374" y="923"/>
      <point x="1332" y="833"/>
      <point x="1274" y="765"/>
      <point x="1206" y="721"/>
      <point x="1171" y="712" type="qcurve"/>
      <point x="1206" y="704"/>
      <point x="1270" y="667"/>
      <point x="1313" y="595"/>
      <point x="1327" y="481"/>
      <point x="1312" y="396" type="qcurve" smooth="yes"/>
      <point x="1302" y="336" type="line" smooth="yes"/>
      <point x="1284" y="235"/>
      <point x="1196" y="99"/>
      <point x="1068" y="17"/>
      <point x="906" y="-18"/>
      <point x="814" y="-18" type="qcurve" smooth="yes"/>
      <point x="373" y="-18" type="line" smooth="yes"/>
      <point x="283" y="-18"/>
      <point x="133" y="16"/>
      <point x="33" y="98"/>
      <point x="-9" y="234"/>
      <point x="9" y="335" type="qcurve"/>
    </contour>
  </outline>
</glyph>
<glyph name="nine" format="2">
  <advance width="1338"/>
  <unicode hex="0039"/>
  <outline>
    <contour>
      <point x="808" y="1418" type="line"/>
      <point x="685" y="1418"/>
      <point x="494" y="1403"/>
      <point x="350" y="1364"/>
      <point x="247" y="1297"/>
      <point x="174" y="1192"/>
      <point x="125" y="1044"/>
      <point x="108" y="944" type="qcurve" smooth="yes"/>
      <point x="89" y="835"/>
      <point x="84" y="676"/>
      <point x="113" y="566"/>
      <point x="176" y="498"/>
      <point x="273" y="461"/>
      <point x="404" y="448"/>
      <point x="487" y="448" type="qcurve" smooth="yes"/>
      <point x="555" y="448"/>
      <point x="674" y="472"/>
      <point x="767" y="507"/>
      <point x="832" y="545"/>
      <point x="846" y="558" type="qcurve"/>
      <point x="911" y="926" type="line"/>
      <point x="890" y="911"/>
      <point x="844" y="884"/>
      <point x="793" y="863"/>
      <point x="736" y="850"/>
      <point x="704" y="850" type="qcurve" smooth="yes"/>
      <point x="691" y="850"/>
      <point x="671" y="853"/>
      <point x="657" y="861"/>
      <point x="648" y="874"/>
      <point x="645" y="892"/>
      <point x="647" y="917"/>
      <point x="650" y="933" type="qcurve" smooth="yes"/>
      <point x="653" y="951"/>
      <point x="660" y="977"/>
      <point x="668" y="995"/>
      <point x="678" y="1007"/>
      <point x="693" y="1014"/>
      <point x="712" y="1017"/>
      <point x="725" y="1017" type="qcurve" smooth="yes"/>
      <point x="738" y="1017"/>
      <point x="756" y="1013"/>
      <point x="767" y="1003"/>
      <point x="773" y="986"/>
      <point x="773" y="962"/>
      <point x="769" y="927"/>
      <point x="765" y="905" type="qcurve" smooth="yes"/>
      <point x="746" y="797"/>
      <point x="702" y="631"/>
      <point x="650" y="509"/>
      <point x="591" y="427"/>
      <point x="523" y="377"/>
      <point x="445" y="356"/>
      <point x="401" y="356" type="qcurve" smooth="yes"/>
      <point x="376" y="356"/>
      <point x="331" y="360"/>
      <point x="290" y="368"/>
      <point x="252" y="379"/>
      <point x="234" y="386" type="qcurve"/>
      <point x="297" y="-9" type="line"/>
      <point x="299" y="-10"/>
      <point x="314" y="-13"/>
      <point x="338" y="-16"/>
      <point x="369" y="-18"/>
      <point x="388" y="-18" type="qcurve" smooth="yes"/>
      <point x="510" y="-18"/>
      <point x="723" y="21"/>
      <point x="906" y="105"/>
      <point x="1057" y="235"/>
      <point x="1176" y="419"/>
      <point x="1262" y="658"/>
      <point x="1288" y="808" type="qcurve" smooth="yes"/>
      <point x="1311" y="940"/>
      <point x="1332" y="1133"/>
      <point x="1314" y="1269"/>
      <point x="1250" y="1354"/>
      <point x="1128" y="1401"/>
      <point x="941" y="1418"/>
      <point x="808" y="1418" type="qcurve"/>
    </contour>
  </outline>
</glyph>
<glyph name="colon" format="2">
  <advance width="671"/>
  <unicode hex="003A"/>
  <outline>
    <contour>
      <point x="-25" y="135" type="line"/>
      <point x="6" y="316" type="line" smooth="yes"/>
      <point x="15" y="367"/>
      <point x="30" y="423"/>
      <point x="61" y="449"/>
      <point x="119" y="454"/>
      <point x="171" y="454" type="qcurve" smooth="yes"/>
      <point x="418" y="454" type="line" smooth="yes"/>
      <point x="470" y="454"/>
      <point x="527" y="449"/>
      <point x="549" y="422"/>
      <point x="545" y="366"/>
      <point x="536" y="314" type="qcurve" smooth="yes"/>
      <point x="505" y="135" type="line" smooth="yes"/>
      <point x="496" y="83"/>
      <point x="481" y="26"/>
      <point x="449" y="-1"/>
      <point x="391" y="-6"/>
      <point x="339" y="-6" type="qcurve" smooth="yes"/>
      <point x="91" y="-6" type="line" smooth="yes"/>
      <point x="39" y="-6"/>
      <point x="-17" y="-1"/>
      <point x="-40" y="26"/>
      <point x="-34" y="83"/>
      <point x="-25" y="135" type="qcurve"/>
    </contour>
    <contour>
      <point x="76" y="715" type="line"/>
      <point x="107" y="896" type="line" smooth="yes"/>
      <point x="116" y="947"/>
      <point x="131" y="1003"/>
      <point x="162" y="1029"/>
      <point x="220" y="1034"/>
      <point x="272" y="1034" type="qcurve" smooth="yes"/>
      <point x="519" y="1034" type="line" smooth="yes"/>
      <point x="571" y="1034"/>
      <point x="628" y="1029"/>
      <point x="650" y="1002"/>
      <point x="646" y="946"/>
      <point x="637" y="894" type="qcurve" smooth="yes"/>
      <point x="606" y="715" type="line" smooth="yes"/>
      <point x="597" y="663"/>
      <point x="582" y="606"/>
      <point x="550" y="579"/>
      <point x="492" y="574"/>
      <point x="440" y="574" type="qcurve" smooth="yes"/>
      <point x="192" y="574" type="line" smooth="yes"/>
      <point x="140" y="574"/>
      <point x="84" y="579"/>
      <point x="62" y="606"/>
      <point x="67" y="663"/>
      <point x="76" y="715" type="qcurve"/>
    </contour>
  </outline>
</glyph>
<glyph name="semicolon" format="2">
  <advance width="670"/>
  <unicode hex="003B"/>
  <outline>
    <contour>
      <point x="76" y="715" type="line"/>
      <point x="107" y="896" type="line" smooth="yes"/>
      <point x="115" y="940"/>
      <point x="135" y="994"/>
      <point x="170" y="1024"/>
      <point x="227" y="1034"/>
      <point x="272" y="1034" type="qcurve" smooth="yes"/>
      <point x="519" y="1034" type="line" smooth="yes"/>
      <point x="564" y="1034"/>
      <point x="618" y="1024"/>
      <point x="644" y="994"/>
      <point x="645" y="939"/>
      <point x="637" y="894" type="qcurve" smooth="yes"/>
      <point x="606" y="715" type="line" smooth="yes"/>
      <point x="598" y="670"/>
      <point x="578" y="615"/>
      <point x="542" y="584"/>
      <point x="485" y="574"/>
      <point x="440" y="574" type="qcurve" smooth="yes"/>
      <point x="192" y="574" type="line" smooth="yes"/>
      <point x="147" y="574"/>
      <point x="94" y="584"/>
      <point x="69" y="615"/>
      <point x="68" y="670"/>
      <point x="76" y="715" type="qcurve"/>
    </contour>
    <contour>
      <point x="-24" y="145" type="line"/>
      <point x="6" y="315" type="line" smooth="yes"/>
      <point x="14" y="359"/>
      <point x="34" y="414"/>
      <point x="69" y="444"/>
      <point x="126" y="454"/>
      <point x="171" y="454" type="qcurve" smooth="yes"/>
      <point x="419" y="454" type="line" smooth="yes"/>
      <point x="464" y="454"/>
      <point x="518" y="444"/>
      <point x="543" y="414"/>
      <point x="544" y="359"/>
      <point x="536" y="315" type="qcurve" smooth="yes"/>
      <point x="506" y="145" type="line" smooth="yes"/>
      <point x="498" y="100"/>
      <point x="478" y="45"/>
      <point x="443" y="14"/>
      <point x="386" y="4"/>
      <point x="341" y="4" type="qcurve" smooth="yes"/>
      <point x="93" y="4" type="line" smooth="yes"/>
      <point x="48" y="4"/>
      <point x="-6" y="14"/>
      <point x="-31" y="45"/>
      <point x="-32" y="100"/>
      <point x="-24" y="145" type="qcurve"/>
    </contour>
    <contour>
      <point x="-89" y="-298" type="line"/>
      <point x="135" y="22" type="line"/>
      <point x="467" y="36" type="line"/>
      <point x="115" y="-342" type="line"/>
      <point x="-89" y="-298" type="line"/>
    </contour>
  </outline>
</glyph>
<glyph name="less" format="2">
  <advance width="997.922"/>
  <unicode hex="003C"/>
  <outline>
    <contour>
      <point x="835" y="51" type="line"/>
      <point x="885" y="339" type="line"/>
      <point x="407" y="564" type="line"/>
      <point x="964" y="791" type="line"/>
      <point x="1021" y="1117" type="line"/>
      <point x="57" y="719" type="line"/>
      <point x="10" y="449" type="line"/>
      <point x="835" y="51" type="line"/>
    </contour>
  </outline>
</glyph>
<glyph name="greater" format="2">
  <advance width="998"/>
  <unicode hex="003E"/>
  <outline>
    <contour>
      <point x="128.957" y="1117" type="line"/>
      <point x="78.9572" y="829" type="line"/>
      <point x="556.957" y="604" type="line"/>
      <point x="-0.0427625" y="377" type="line"/>
      <point x="-57.0428" y="51" type="line"/>
      <point x="906.957" y="449" type="line"/>
      <point x="953.957" y="719" type="line"/>
      <point x="128.957" y="1117" type="line"/>
    </contour>
  </outline>
</glyph>
<glyph name="question" format="2">
  <advance width="1097"/>
  <unicode hex="003F"/>
  <outline>
    <contour>
      <point x="244.309" y="462" type="line"/>
      <point x="278.309" y="658" type="line" smooth="yes"/>
      <point x="286.309" y="702"/>
      <point x="329.309" y="785"/>
      <point x="400.309" y="850"/>
      <point x="495.309" y="890"/>
      <point x="553.309" y="890" type="qcurve" smooth="yes"/>
      <point x="615.309" y="890" type="line"/>
      <point x="615.309" y="890"/>
      <point x="615.309" y="890"/>
      <point x="615.309" y="890"/>
      <point x="615.309" y="890"/>
      <point x="615.309" y="890" type="qcurve"/>
      <point x="640.309" y="1032" type="line"/>
      <point x="640.309" y="1032"/>
      <point x="640.309" y="1032"/>
      <point x="640.309" y="1032"/>
      <point x="640.309" y="1032"/>
      <point x="640.309" y="1032" type="qcurve"/>
      <point x="555.309" y="1032" type="line"/>
      <point x="555.309" y="1032"/>
      <point x="555.309" y="1032"/>
      <point x="555.309" y="1032"/>
      <point x="555.309" y="1032"/>
      <point x="555.309" y="1032" type="qcurve"/>
      <point x="538.309" y="935" type="line"/>
      <point x="96.3087" y="1008" type="line"/>
      <point x="116.309" y="1121" type="line" smooth="yes"/>
      <point x="130.309" y="1200"/>
      <point x="185.309" y="1313"/>
      <point x="275.309" y="1385"/>
      <point x="403.309" y="1418"/>
      <point x="488.309" y="1418" type="qcurve" smooth="yes"/>
      <point x="844.309" y="1418" type="line" smooth="yes"/>
      <point x="930.309" y="1418"/>
      <point x="1045.31" y="1385"/>
      <point x="1109.31" y="1315"/>
      <point x="1125.31" y="1203"/>
      <point x="1111.31" y="1123" type="qcurve" smooth="yes"/>
      <point x="1058.31" y="822" type="line" smooth="yes"/>
      <point x="1048.31" y="763"/>
      <point x="1004.31" y="655"/>
      <point x="934.309" y="573"/>
      <point x="838.309" y="524"/>
      <point x="775.309" y="524" type="qcurve" smooth="yes"/>
      <point x="709.309" y="524" type="line"/>
      <point x="709.309" y="524"/>
      <point x="709.309" y="524"/>
      <point x="709.309" y="524"/>
      <point x="709.309" y="524"/>
      <point x="709.309" y="524" type="qcurve"/>
      <point x="699.309" y="462" type="line"/>
    </contour>
    <contour>
      <point x="149.309" y="135" type="line"/>
      <point x="164.309" y="226" type="line" smooth="yes"/>
      <point x="172.309" y="270"/>
      <point x="192.309" y="324"/>
      <point x="228.309" y="354"/>
      <point x="285.309" y="364"/>
      <point x="330.309" y="364" type="qcurve" smooth="yes"/>
      <point x="577.309" y="364" type="line" smooth="yes"/>
      <point x="622.309" y="364"/>
      <point x="676.309" y="354"/>
      <point x="701.309" y="324"/>
      <point x="702.309" y="269"/>
      <point x="694.309" y="224" type="qcurve" smooth="yes"/>
      <point x="679.309" y="135" type="line" smooth="yes"/>
      <point x="671.309" y="90"/>
      <point x="651.309" y="35"/>
      <point x="615.309" y="4"/>
      <point x="558.309" y="-6"/>
      <point x="513.309" y="-6" type="qcurve" smooth="yes"/>
      <point x="265.309" y="-6" type="line" smooth="yes"/>
      <point x="220.309" y="-6"/>
      <point x="167.309" y="4"/>
      <point x="142.309" y="35"/>
      <point x="141.309" y="90"/>
      <point x="149.309" y="135" type="qcurve"/>
    </contour>
  </outline>
</glyph>
<glyph name="at" format="2">
  <advance width="1777" height="1020.84"/>
  <unicode hex="0040"/>
  <outline>
    <contour>
      <point x="-43.4576" y="81" type="line"/>
      <point x="112.542" y="972" type="line" smooth="yes"/>
      <point x="127.542" y="1060"/>
      <point x="197.542" y="1170"/>
      <point x="301.542" y="1231"/>
      <point x="434.542" y="1253"/>
      <point x="512.542" y="1253" type="qcurve" smooth="yes"/>
      <point x="1460.54" y="1253" type="line" smooth="yes"/>
      <point x="1538.54" y="1253"/>
      <point x="1663.54" y="1231"/>
      <point x="1746.54" y="1170"/>
      <point x="1779.54" y="1060"/>
      <point x="1764.54" y="972" type="qcurve" smooth="yes"/>
      <point x="1668.54" y="426" type="line" smooth="yes"/>
      <point x="1652.54" y="335"/>
      <point x="1587.54" y="228"/>
      <point x="1498.54" y="171"/>
      <point x="1390.54" y="154"/>
      <point x="1332.54" y="154" type="qcurve" smooth="yes"/>
      <point x="1046.54" y="154" type="line" smooth="yes"/>
      <point x="992.542" y="154"/>
      <point x="916.542" y="175"/>
      <point x="868.542" y="206"/>
      <point x="847.542" y="245"/>
      <point x="849.542" y="263" type="qcurve"/>
      <point x="834.542" y="231"/>
      <point x="795.542" y="189"/>
      <point x="745.542" y="163"/>
      <point x="684.542" y="153"/>
      <point x="647.542" y="153" type="qcurve" smooth="yes"/>
      <point x="607.542" y="153" type="line" smooth="yes"/>
      <point x="551.542" y="153"/>
      <point x="474.542" y="175"/>
      <point x="429.542" y="220"/>
      <point x="416.542" y="289"/>
      <point x="425.542" y="337" type="qcurve" smooth="yes"/>
      <point x="490.542" y="708" type="line" smooth="yes"/>
      <point x="498.542" y="754"/>
      <point x="535.542" y="821"/>
      <point x="595.542" y="865"/>
      <point x="680.542" y="886"/>
      <point x="735.542" y="886" type="qcurve" smooth="yes"/>
      <point x="766.542" y="886" type="line" smooth="yes"/>
      <point x="841.542" y="886"/>
      <point x="927.542" y="848"/>
      <point x="944.542" y="808" type="qcurve"/>
      <point x="956.542" y="878" type="line"/>
      <point x="1323.54" y="878" type="line"/>
      <point x="1251.54" y="463" type="line" smooth="yes"/>
      <point x="1249.54" y="452"/>
      <point x="1252.54" y="435"/>
      <point x="1261.54" y="423"/>
      <point x="1279.54" y="417"/>
      <point x="1292.54" y="417" type="qcurve" smooth="yes"/>
      <point x="1306.54" y="417" type="line" smooth="yes"/>
      <point x="1323.54" y="417"/>
      <point x="1344.54" y="427"/>
      <point x="1359.54" y="448"/>
      <point x="1368.54" y="480"/>
      <point x="1372.54" y="501" type="qcurve" smooth="yes"/>
      <point x="1440.54" y="886" type="line" smooth="yes"/>
      <point x="1444.54" y="909"/>
      <point x="1436.54" y="947"/>
      <point x="1404.54" y="975"/>
      <point x="1346.54" y="990"/>
      <point x="1299.54" y="990" type="qcurve" smooth="yes"/>
      <point x="571.542" y="990" type="line" smooth="yes"/>
      <point x="538.542" y="990"/>
      <point x="482.542" y="982"/>
      <point x="440.542" y="959"/>
      <point x="412.542" y="918"/>
      <point x="406.542" y="886" type="qcurve" smooth="yes"/>
      <point x="280.542" y="164" type="line" smooth="yes"/>
      <point x="276.542" y="138"/>
      <point x="280.542" y="96"/>
      <point x="307.542" y="66"/>
      <point x="361.542" y="49"/>
      <point x="407.542" y="49" type="qcurve" smooth="yes"/>
      <point x="1314.54" y="49" type="line"/>
      <point x="1269.54" y="-213" type="line"/>
      <point x="256.542" y="-213" type="line" smooth="yes"/>
      <point x="174.542" y="-213"/>
      <point x="48.5424" y="-189"/>
      <point x="-31.4576" y="-124"/>
      <point x="-59.4576" y="-9"/>
      <point x="-43.4576" y="81" type="qcurve"/>
    </contour>
    <contour>
      <point x="811.542" y="448" type="line"/>
      <point x="811.542" y="448"/>
      <point x="811.542" y="448"/>
      <point x="811.542" y="448" type="qcurve"/>
      <point x="881.542" y="448" type="line"/>
      <point x="881.542" y="448"/>
      <point x="881.542" y="448"/>
      <point x="881.542" y="448" type="qcurve"/>
      <point x="906.542" y="591" type="line"/>
      <point x="836.542" y="591" type="line"/>
      <point x="836.542" y="591"/>
      <point x="836.542" y="591"/>
      <point x="836.542" y="591" type="qcurve"/>
    </contour>
  </outline>
  <guideline y="551"/>
</glyph>
<glyph name="B" format="2">
  <advance width="1381"/>
  <unicode hex="0042"/>
  <anchor x="691" y="1550" name="top"/>
  <anchor x="691" y="-150" name="bottom"/>
  <outline>
    <contour>
      <point x="-40" y="0" type="line"/>
      <point x="843" y="0" type="line" smooth="yes"/>
      <point x="938" y="0"/>
      <point x="1093" y="46"/>
      <point x="1211" y="137"/>
      <point x="1289" y="275"/>
      <point x="1305" y="366" type="qcurve" smooth="yes"/>
      <point x="1315" y="422" type="line" smooth="yes"/>
      <point x="1323" y="466"/>
      <point x="1316" y="547"/>
      <point x="1289" y="619"/>
      <point x="1240" y="681"/>
      <point x="1205" y="706" type="qcurve"/>
      <point x="1245" y="731"/>
      <point x="1309" y="791"/>
      <point x="1357" y="860"/>
      <point x="1389" y="937"/>
      <point x="1396" y="978" type="qcurve" smooth="yes"/>
      <point x="1405" y="1034" type="line" smooth="yes"/>
      <point x="1421" y="1126"/>
      <point x="1392" y="1263"/>
      <point x="1306" y="1354"/>
      <point x="1166" y="1400"/>
      <point x="1071" y="1400" type="qcurve" smooth="yes"/>
      <point x="204" y="1400" type="line"/>
    </contour>
    <contour>
      <point x="598" y="376" type="line"/>
      <point x="626" y="536" type="line"/>
      <point x="701" y="536" type="line" smooth="yes"/>
      <point x="735" y="536"/>
      <point x="756" y="503"/>
      <point x="751" y="476" type="qcurve" smooth="yes"/>
      <point x="744" y="436" type="line" smooth="yes"/>
      <point x="742" y="423"/>
      <point x="732" y="400"/>
      <point x="715" y="385"/>
      <point x="690" y="376"/>
      <point x="673" y="376" type="qcurve" smooth="yes"/>
    </contour>
    <contour>
      <point x="683" y="868" type="line"/>
      <point x="711" y="1028" type="line"/>
      <point x="786" y="1028" type="line" smooth="yes"/>
      <point x="803" y="1028"/>
      <point x="825" y="1019"/>
      <point x="837" y="1004"/>
      <point x="839" y="982"/>
      <point x="837" y="968" type="qcurve" smooth="yes"/>
      <point x="830" y="928" type="line" smooth="yes"/>
      <point x="828" y="915"/>
      <point x="817" y="892"/>
      <point x="800" y="877"/>
      <point x="775" y="868"/>
      <point x="758" y="868" type="qcurve" smooth="yes"/>
    </contour>
  </outline>
</glyph>
<glyph name="C" format="2">
  <advance width="1321" height="1448"/>
  <unicode hex="0043"/>
  <anchor x="837" y="1550" name="top"/>
  <anchor x="540" y="-150" name="bottom"/>
  <outline>
    <contour>
      <point x="132.281" y="1084" type="line"/>
      <point x="0.280674" y="328" type="line" smooth="yes"/>
      <point x="-17.7193" y="225"/>
      <point x="13.2807" y="91"/>
      <point x="105.281" y="13"/>
      <point x="253.281" y="-18"/>
      <point x="352.281" y="-18" type="qcurve" smooth="yes"/>
      <point x="770.281" y="-18" type="line" smooth="yes"/>
      <point x="869.281" y="-18"/>
      <point x="1028.28" y="13"/>
      <point x="1148.28" y="91"/>
      <point x="1226.28" y="225"/>
      <point x="1244.28" y="328" type="qcurve" smooth="yes"/>
      <point x="1280.28" y="530" type="line"/>
      <point x="727.281" y="640" type="line"/>
      <point x="696.281" y="466" type="line"/>
      <point x="696.281" y="466"/>
      <point x="696.281" y="466"/>
      <point x="696.281" y="466"/>
      <point x="696.281" y="466"/>
      <point x="696.281" y="466" type="qcurve"/>
      <point x="596.281" y="466" type="line"/>
      <point x="596.281" y="466"/>
      <point x="596.281" y="466"/>
      <point x="596.281" y="466"/>
      <point x="596.281" y="466"/>
      <point x="596.281" y="466" type="qcurve"/>
      <point x="678.281" y="934" type="line"/>
      <point x="678.281" y="934"/>
      <point x="678.281" y="934"/>
      <point x="678.281" y="934"/>
      <point x="678.281" y="934"/>
      <point x="678.281" y="934" type="qcurve"/>
      <point x="772.281" y="934" type="line"/>
      <point x="772.281" y="934"/>
      <point x="772.281" y="934"/>
      <point x="772.281" y="934"/>
      <point x="772.281" y="934"/>
      <point x="772.281" y="934" type="qcurve"/>
      <point x="746.281" y="786" type="line"/>
      <point x="1336.28" y="890" type="line"/>
      <point x="1370.28" y="1084" type="line" smooth="yes"/>
      <point x="1388.28" y="1185"/>
      <point x="1352.28" y="1314"/>
      <point x="1257.28" y="1389"/>
      <point x="1109.28" y="1418"/>
      <point x="1014.28" y="1418" type="qcurve" smooth="yes"/>
      <point x="602.281" y="1418" type="line" smooth="yes"/>
      <point x="508.281" y="1418"/>
      <point x="350.281" y="1389"/>
      <point x="230.281" y="1314"/>
      <point x="150.281" y="1185"/>
      <point x="132.281" y="1084" type="qcurve"/>
    </contour>
  </outline>
</glyph>
<glyph name="D" format="2">
  <advance width="1365"/>
  <unicode hex="0044"/>
  <anchor x="614" y="1550" name="top"/>
  <anchor x="614" y="-150" name="bottom"/>
  <outline>
    <contour>
      <point x="609.178" y="444" type="line"/>
      <point x="619.178" y="444" type="line" smooth="yes"/>
      <point x="637.178" y="444"/>
      <point x="669.446" y="457"/>
      <point x="698.158" y="484"/>
      <point x="723.487" y="526"/>
      <point x="746.608" y="584"/>
      <point x="765.695" y="659"/>
      <point x="773.897" y="706" type="qcurve" smooth="yes"/>
      <point x="781.924" y="752"/>
      <point x="787.662" y="825"/>
      <point x="784.26" y="880"/>
      <point x="772.24" y="920"/>
      <point x="752.602" y="945"/>
      <point x="725.522" y="956"/>
      <point x="708.522" y="956" type="qcurve" smooth="yes"/>
      <point x="698.522" y="956" type="line"/>
    </contour>
    <contour>
      <point x="-40.3" y="0" type="line"/>
      <point x="204" y="1400" type="line"/>
      <point x="791" y="1400" type="line" smooth="yes"/>
      <point x="902" y="1400"/>
      <point x="1082.37" y="1362"/>
      <point x="1219.93" y="1285"/>
      <point x="1314.69" y="1169"/>
      <point x="1364.47" y="1013"/>
      <point x="1369.44" y="818"/>
      <point x="1348.85" y="700" type="qcurve" smooth="yes"/>
      <point x="1327.04" y="575"/>
      <point x="1246.79" y="373"/>
      <point x="1134.74" y="218"/>
      <point x="995.197" y="106"/>
      <point x="831.633" y="34"/>
      <point x="646.7" y="0"/>
      <point x="546.7" y="0" type="qcurve" smooth="yes"/>
    </contour>
  </outline>
  <guideline x="131407"/>
  <guideline y="1549"/>
  <guideline y="1325"/>
  <guideline y="73"/>
</glyph>
<glyph name="F" format="2">
  <advance width="1103"/>
  <unicode hex="0046"/>
  <outline>
    <contour>
      <point x="-40" y="0" type="line"/>
      <point x="204" y="1400" type="line"/>
      <point x="1176" y="1400" type="line"/>
      <point x="1099" y="956" type="line"/>
      <point x="699" y="956" type="line"/>
      <point x="678" y="834" type="line"/>
      <point x="958" y="834" type="line"/>
      <point x="880" y="390" type="line"/>
      <point x="600" y="390" type="line"/>
      <point x="532" y="0" type="line"/>
    </contour>
  </outline>
</glyph>
<glyph name="I" format="2">
  <advance width="732" height="1448"/>
  <unicode hex="0049"/>
  <anchor x="517" y="1550" name="top"/>
  <anchor x="220" y="-150" name="bottom"/>
  <anchor x="273" y="0" name="ogonek"/>
  <outline>
    <contour>
      <point x="-40" y="0" type="line"/>
      <point x="204" y="1400" type="line"/>
      <point x="776" y="1400" type="line"/>
      <point x="532" y="0" type="line"/>
    </contour>
  </outline>
</glyph>
<glyph name="J" format="2">
  <advance width="1337.28" height="1448"/>
  <unicode hex="004A"/>
  <anchor x="1130" y="1550" name="top"/>
  <anchor x="531" y="-150" name="bottom"/>
  <outline>
    <contour>
      <point x="1390" y="1400" type="line"/>
      <point x="818" y="1400" type="line"/>
      <point x="651" y="446" type="line"/>
      <point x="651" y="446"/>
      <point x="651" y="446"/>
      <point x="651" y="446"/>
      <point x="651" y="446"/>
      <point x="651" y="446" type="qcurve"/>
      <point x="576" y="446" type="line"/>
      <point x="576" y="446"/>
      <point x="576" y="446"/>
      <point x="576" y="446"/>
      <point x="576" y="446"/>
      <point x="576" y="446" type="qcurve"/>
      <point x="628" y="740" type="line"/>
      <point x="37" y="636" type="line"/>
      <point x="-18" y="316" type="line" smooth="yes"/>
      <point x="-36" y="216"/>
      <point x="0" y="86"/>
      <point x="95" y="11"/>
      <point x="243" y="-18"/>
      <point x="337" y="-18" type="qcurve" smooth="yes"/>
      <point x="730" y="-18" type="line" smooth="yes"/>
      <point x="825" y="-18"/>
      <point x="982" y="11"/>
      <point x="1103" y="86"/>
      <point x="1183" y="216"/>
      <point x="1201" y="316" type="qcurve" smooth="yes"/>
    </contour>
  </outline>
</glyph>
<glyph name="K" format="2">
  <advance width="1522" height="1448"/>
  <unicode hex="004B"/>
  <anchor x="904" y="1550" name="top"/>
  <anchor x="660" y="-150" name="bottom"/>
  <outline>
    <contour>
      <point x="-40" y="0" type="line"/>
      <point x="532" y="0" type="line"/>
      <point x="644" y="640" type="line"/>
      <point x="619" y="706" type="line"/>
      <point x="760" y="0" type="line"/>
      <point x="1412" y="0" type="line"/>
      <point x="1178" y="839" type="line"/>
      <point x="1178" y="714" type="line"/>
      <point x="1603" y="1400" type="line"/>
      <point x="1004" y="1400" type="line"/>
      <point x="624" y="723" type="line"/>
      <point x="665" y="763" type="line"/>
      <point x="776" y="1400" type="line"/>
      <point x="204" y="1400" type="line"/>
    </contour>
  </outline>
</glyph>
<glyph name="M" format="2">
  <advance width="1684"/>
  <unicode hex="004D"/>
  <anchor x="985" y="1550" name="top"/>
  <anchor x="658" y="-150" name="bottom"/>
  <outline>
    <contour>
      <point x="-40" y="0" type="line"/>
      <point x="444" y="0" type="line"/>
      <point x="540" y="548" type="line"/>
      <point x="724" y="186" type="line"/>
      <point x="1009" y="553" type="line"/>
      <point x="912" y="0" type="line"/>
      <point x="1484" y="0" type="line"/>
      <point x="1728" y="1400" type="line"/>
      <point x="1253" y="1400" type="line"/>
      <point x="879" y="934" type="line"/>
      <point x="630" y="1400" type="line"/>
      <point x="204" y="1400" type="line"/>
    </contour>
  </outline>
</glyph>
<glyph name="O" format="2">
  <advance width="1370" height="1448"/>
  <unicode hex="004F"/>
  <anchor x="839" y="1568" name="top"/>
  <anchor x="540" y="-168" name="bottom"/>
  <anchor x="1376" y="1084" name="horn"/>
  <anchor x="732" y="0" name="ogonek"/>
  <outline>
    <contour>
      <point x="132.281" y="1084" type="line"/>
      <point x="0.280674" y="328" type="line" smooth="yes"/>
      <point x="-17.7193" y="225"/>
      <point x="13.2807" y="91"/>
      <point x="105.281" y="13"/>
      <point x="253.281" y="-18"/>
      <point x="352.281" y="-18" type="qcurve" smooth="yes"/>
      <point x="770.281" y="-18" type="line" smooth="yes"/>
      <point x="869.281" y="-18"/>
      <point x="1028.28" y="13"/>
      <point x="1148.28" y="91"/>
      <point x="1226.28" y="225"/>
      <point x="1244.28" y="328" type="qcurve" smooth="yes"/>
      <point x="1376.28" y="1084" type="line" smooth="yes"/>
      <point x="1394.28" y="1185"/>
      <point x="1358.28" y="1314"/>
      <point x="1263.28" y="1389"/>
      <point x="1115.28" y="1418"/>
      <point x="1020.28" y="1418" type="qcurve" smooth="yes"/>
      <point x="602.281" y="1418" type="line" smooth="yes"/>
      <point x="508.281" y="1418"/>
      <point x="350.281" y="1389"/>
      <point x="230.281" y="1314"/>
      <point x="150.281" y="1185"/>
      <point x="132.281" y="1084" type="qcurve"/>
    </contour>
    <contour>
      <point x="675.281" y="916" type="line"/>
      <point x="675.281" y="916"/>
      <point x="675.281" y="916"/>
      <point x="675.281" y="916"/>
      <point x="675.281" y="916"/>
      <point x="675.281" y="916" type="qcurve"/>
      <point x="775.281" y="916" type="line"/>
      <point x="775.281" y="916"/>
      <point x="775.281" y="916"/>
      <point x="775.281" y="916"/>
      <point x="775.281" y="916"/>
      <point x="775.281" y="916" type="qcurve"/>
      <point x="699.281" y="484" type="line"/>
      <point x="699.281" y="484"/>
      <point x="699.281" y="484"/>
      <point x="699.281" y="484"/>
      <point x="699.281" y="484"/>
      <point x="699.281" y="484" type="qcurve"/>
      <point x="599.281" y="484" type="line"/>
      <point x="599.281" y="484"/>
      <point x="599.281" y="484"/>
      <point x="599.281" y="484"/>
      <point x="599.281" y="484"/>
      <point x="599.281" y="484" type="qcurve"/>
    </contour>
  </outline>
</glyph>
<glyph name="P" format="2">
  <advance width="1356"/>
  <unicode hex="0050"/>
  <outline>
    <contour>
      <point x="-40" y="0" type="line"/>
      <point x="532" y="0" type="line"/>
      <point x="595" y="360" type="line"/>
      <point x="870" y="360" type="line" smooth="yes"/>
      <point x="965" y="360"/>
      <point x="1122" y="387"/>
      <point x="1243" y="459"/>
      <point x="1323" y="586"/>
      <point x="1341" y="686" type="qcurve" smooth="yes"/>
      <point x="1407" y="1066" type="line" smooth="yes"/>
      <point x="1425" y="1167"/>
      <point x="1389" y="1296"/>
      <point x="1294" y="1371"/>
      <point x="1146" y="1400"/>
      <point x="1051" y="1400" type="qcurve" smooth="yes"/>
      <point x="204" y="1400" type="line"/>
    </contour>
    <contour>
      <point x="672" y="800" type="line"/>
      <point x="700" y="960" type="line"/>
      <point x="755" y="960" type="line" smooth="yes"/>
      <point x="772" y="960"/>
      <point x="793" y="951"/>
      <point x="805" y="936"/>
      <point x="807" y="914"/>
      <point x="805" y="900" type="qcurve" smooth="yes"/>
      <point x="798" y="860" type="line" smooth="yes"/>
      <point x="796" y="847"/>
      <point x="786" y="824"/>
      <point x="769" y="809"/>
      <point x="744" y="800"/>
      <point x="727" y="800" type="qcurve" smooth="yes"/>
    </contour>
  </outline>
  <guideline x="678" name="halfwidth" color="0.4,0.4,0.4,1"/>
</glyph>
<glyph name="Q" format="2">
  <advance width="1370.45"/>
  <unicode hex="0051"/>
  <anchor x="685.225" y="1550" name="top"/>
  <anchor x="685.225" y="-446" name="bottom"/>
  <outline>
    <contour>
      <point x="132.281" y="1084" type="line"/>
      <point x="0.281" y="328" type="line" smooth="yes"/>
      <point x="-17.719" y="225"/>
      <point x="13.281" y="91"/>
      <point x="105.281" y="13"/>
      <point x="253.281" y="-18"/>
      <point x="352.281" y="-18" type="qcurve" smooth="yes"/>
      <point x="770.281" y="-18" type="line" smooth="yes"/>
      <point x="869.281" y="-18"/>
      <point x="1028.28" y="13"/>
      <point x="1148.28" y="91"/>
      <point x="1226.28" y="225"/>
      <point x="1244.28" y="328" type="qcurve" smooth="yes"/>
      <point x="1376.28" y="1084" type="line" smooth="yes"/>
      <point x="1394.28" y="1185"/>
      <point x="1358.28" y="1314"/>
      <point x="1263.28" y="1389"/>
      <point x="1115.28" y="1418"/>
      <point x="1020.28" y="1418" type="qcurve" smooth="yes"/>
      <point x="602.281" y="1418" type="line" smooth="yes"/>
      <point x="508.281" y="1418"/>
      <point x="350.281" y="1389"/>
      <point x="230.281" y="1314"/>
      <point x="150.281" y="1185"/>
      <point x="132.281" y="1084" type="qcurve"/>
    </contour>
    <contour>
      <point x="675.281" y="916" type="line"/>
      <point x="675.281" y="916"/>
      <point x="675.281" y="916"/>
      <point x="675.281" y="916"/>
      <point x="675.281" y="916"/>
      <point x="675.281" y="916" type="qcurve"/>
      <point x="775.281" y="916" type="line"/>
      <point x="775.281" y="916"/>
      <point x="775.281" y="916"/>
      <point x="775.281" y="916"/>
      <point x="775.281" y="916"/>
      <point x="775.281" y="916" type="qcurve"/>
      <point x="699.281" y="484" type="line"/>
      <point x="699.281" y="484"/>
      <point x="699.281" y="484"/>
      <point x="699.281" y="484"/>
      <point x="699.281" y="484"/>
      <point x="699.281" y="484" type="qcurve"/>
      <point x="599.281" y="484" type="line"/>
      <point x="599.281" y="484"/>
      <point x="599.281" y="484"/>
      <point x="599.281" y="484"/>
      <point x="599.281" y="484"/>
      <point x="599.281" y="484" type="qcurve"/>
    </contour>
    <contour>
      <point x="539.281" y="-282" type="line"/>
      <point x="971.281" y="-282" type="line"/>
      <point x="930.281" y="571" type="line"/>
      <point x="630.281" y="526" type="line"/>
    </contour>
  </outline>
</glyph>
<glyph name="R" format="2">
  <advance width="1493"/>
  <unicode hex="0052"/>
  <anchor x="746.5" y="-150" name="bottom"/>
  <anchor x="746.5" y="1550" name="top"/>
  <outline>
    <contour>
      <point x="-40" y="0" type="line"/>
      <point x="532" y="0" type="line"/>
      <point x="609" y="444" type="line"/>
      <point x="609" y="444" type="line"/>
      <point x="735" y="0" type="line"/>
      <point x="1353" y="0" type="line"/>
      <point x="1146" y="533" type="line"/>
      <point x="1146" y="533" type="line"/>
      <point x="1187" y="550"/>
      <point x="1255" y="602"/>
      <point x="1307" y="675"/>
      <point x="1345" y="770"/>
      <point x="1355" y="828" type="qcurve" smooth="yes"/>
      <point x="1396" y="1066" type="line" smooth="yes"/>
      <point x="1414" y="1167"/>
      <point x="1378" y="1296"/>
      <point x="1283" y="1371"/>
      <point x="1135" y="1400"/>
      <point x="1040" y="1400" type="qcurve" smooth="yes"/>
      <point x="204" y="1400" type="line"/>
    </contour>
    <contour>
      <point x="675" y="820" type="line"/>
      <point x="700" y="960" type="line"/>
      <point x="755" y="960" type="line" smooth="yes"/>
      <point x="772" y="960"/>
      <point x="793" y="951"/>
      <point x="805" y="936"/>
      <point x="807" y="914"/>
      <point x="805" y="900" type="qcurve" smooth="yes"/>
      <point x="802" y="880" type="line"/>
      <point x="799" y="867"/>
      <point x="789" y="844"/>
      <point x="772" y="829"/>
      <point x="747" y="820"/>
      <point x="730" y="820" type="qcurve" smooth="yes"/>
    </contour>
  </outline>
  <guideline angle="90" color="0.4,0.4,0.4,1" name="halfwidth" x="746.5" y="0"/>
</glyph>
<glyph name="S" format="2">
  <advance width="1274"/>
  <unicode hex="0053"/>
  <anchor x="784" y="1564" name="top"/>
  <anchor x="483" y="-164" name="bottom"/>
  <outline>
    <contour>
      <point x="-16.0225" y="410" type="line"/>
      <point x="538.977" y="462" type="line"/>
      <point x="522.977" y="372" type="line"/>
      <point x="522.977" y="372"/>
      <point x="522.977" y="372"/>
      <point x="522.977" y="372"/>
      <point x="522.977" y="372"/>
      <point x="522.977" y="372" type="qcurve"/>
      <point x="632.977" y="372" type="line"/>
      <point x="632.977" y="372"/>
      <point x="632.977" y="372"/>
      <point x="632.977" y="372"/>
      <point x="632.977" y="372"/>
      <point x="632.977" y="372" type="qcurve"/>
      <point x="657.977" y="514" type="line"/>
      <point x="657.977" y="514"/>
      <point x="657.977" y="514"/>
      <point x="657.977" y="514"/>
      <point x="657.977" y="514"/>
      <point x="657.977" y="514" type="qcurve"/>
      <point x="429.977" y="514" type="line" smooth="yes"/>
      <point x="334.977" y="514"/>
      <point x="187.977" y="542"/>
      <point x="95.9775" y="618"/>
      <point x="63.9775" y="752"/>
      <point x="81.9775" y="858" type="qcurve" smooth="yes"/>
      <point x="120.977" y="1082" type="line" smooth="yes"/>
      <point x="138.977" y="1186"/>
      <point x="222.977" y="1315"/>
      <point x="345.977" y="1388"/>
      <point x="503.977" y="1414"/>
      <point x="594.977" y="1414" type="qcurve" smooth="yes"/>
      <point x="930.977" y="1414" type="line" smooth="yes"/>
      <point x="1022.98" y="1414"/>
      <point x="1168.98" y="1389"/>
      <point x="1263.98" y="1317"/>
      <point x="1301.98" y="1189"/>
      <point x="1283.98" y="1086" type="qcurve" smooth="yes"/>
      <point x="1269.98" y="1006" type="line"/>
      <point x="734.977" y="958" type="line"/>
      <point x="746.977" y="1028" type="line"/>
      <point x="746.977" y="1028"/>
      <point x="746.977" y="1028"/>
      <point x="746.977" y="1028"/>
      <point x="746.977" y="1028"/>
      <point x="746.977" y="1028" type="qcurve"/>
      <point x="636.977" y="1028" type="line"/>
      <point x="636.977" y="1028"/>
      <point x="636.977" y="1028"/>
      <point x="636.977" y="1028"/>
      <point x="636.977" y="1028"/>
      <point x="636.977" y="1028" type="qcurve"/>
      <point x="614.977" y="900" type="line"/>
      <point x="614.977" y="900"/>
      <point x="614.977" y="900"/>
      <point x="614.977" y="900"/>
      <point x="614.977" y="900"/>
      <point x="614.977" y="900" type="qcurve"/>
      <point x="858.977" y="900" type="line" smooth="yes"/>
      <point x="950.977" y="900"/>
      <point x="1097.98" y="875"/>
      <point x="1193.98" y="804"/>
      <point x="1231.98" y="676"/>
      <point x="1213.98" y="572" type="qcurve" smooth="yes"/>
      <point x="1171.98" y="330" type="line" smooth="yes"/>
      <point x="1152.98" y="224"/>
      <point x="1072.98" y="89"/>
      <point x="952.977" y="14"/>
      <point x="795.977" y="-14"/>
      <point x="699.977" y="-14" type="qcurve" smooth="yes"/>
      <point x="319.977" y="-14" type="line" smooth="yes"/>
      <point x="224.977" y="-14"/>
      <point x="76.9775" y="14"/>
      <point x="-16.0225" y="89"/>
      <point x="-49.0225" y="222"/>
      <point x="-31.0225" y="328" type="qcurve"/>
    </contour>
  </outline>
</glyph>
<glyph name="T" format="2">
  <advance width="1175"/>
  <unicode hex="0054"/>
  <anchor x="741" y="1550" name="top"/>
  <anchor x="444" y="-150" name="bottom"/>
  <outline>
    <contour>
      <point x="183.858" y="0" type="line"/>
      <point x="755.858" y="0" type="line"/>
      <point x="915.858" y="916" type="line"/>
      <point x="1191.86" y="916" type="line"/>
      <point x="1275.86" y="1400" type="line"/>
      <point x="151.858" y="1400" type="line"/>
      <point x="67.8578" y="916" type="line"/>
      <point x="343.858" y="916" type="line"/>
    </contour>
  </outline>
</glyph>
<glyph name="U" format="2">
  <advance width="1378"/>
  <unicode hex="0055"/>
  <anchor x="838" y="1550" name="top"/>
  <anchor x="540" y="-150" name="bottom"/>
  <anchor x="726" y="0" name="ogonek"/>
  <anchor x="1430" y="1400" name="horn"/>
  <outline>
    <contour>
      <point x="196" y="1400" type="line"/>
      <point x="768" y="1400" type="line"/>
      <point x="605" y="466" type="line"/>
      <point x="605" y="466"/>
      <point x="605" y="466"/>
      <point x="605" y="466"/>
      <point x="605" y="466"/>
      <point x="605" y="466" type="qcurve"/>
      <point x="695" y="466" type="line"/>
      <point x="695" y="466"/>
      <point x="695" y="466"/>
      <point x="695" y="466"/>
      <point x="695" y="466"/>
      <point x="695" y="466" type="qcurve"/>
      <point x="858" y="1400" type="line"/>
      <point x="1430" y="1400" type="line"/>
      <point x="1243" y="325" type="line" smooth="yes"/>
      <point x="1224" y="219"/>
      <point x="1144" y="85"/>
      <point x="1025" y="10"/>
      <point x="867" y="-18"/>
      <point x="771" y="-18" type="qcurve" smooth="yes"/>
      <point x="359" y="-18" type="line" smooth="yes"/>
      <point x="264" y="-18"/>
      <point x="117" y="10"/>
      <point x="24" y="85"/>
      <point x="-10" y="219"/>
      <point x="9" y="325" type="qcurve" smooth="yes"/>
    </contour>
  </outline>
</glyph>
<glyph name="V" format="2">
  <advance width="1410"/>
  <unicode hex="0056"/>
  <anchor x="860" y="1550" name="top"/>
  <anchor x="563" y="-150" name="bottom"/>
  <outline>
    <contour>
      <point x="117" y="1400" type="line"/>
      <point x="713" y="1400" type="line"/>
      <point x="734" y="714" type="line"/>
      <point x="987" y="1400" type="line"/>
      <point x="1547" y="1400" type="line"/>
      <point x="793" y="0" type="line"/>
      <point x="383" y="0" type="line"/>
    </contour>
  </outline>
</glyph>
<glyph name="X" format="2">
  <advance width="1354"/>
  <unicode hex="0058"/>
  <anchor x="828" y="1550" name="top"/>
  <anchor x="531" y="-150" name="bottom"/>
  <outline>
    <contour>
      <point x="-130" y="0" type="line"/>
      <point x="386" y="0" type="line"/>
      <point x="585" y="283" type="line"/>
      <point x="683" y="0" type="line"/>
      <point x="1244" y="0" type="line"/>
      <point x="991" y="720" type="line"/>
      <point x="1468" y="1400" type="line"/>
      <point x="952" y="1400" type="line"/>
      <point x="778" y="1152" type="line"/>
      <point x="692" y="1400" type="line"/>
      <point x="130" y="1400" type="line"/>
      <point x="374" y="715" type="line"/>
    </contour>
  </outline>
  <guideline y="715"/>
  <guideline x="672"/>
</glyph>
<glyph name="Y" format="2">
  <advance width="1388"/>
  <unicode hex="0059"/>
  <anchor x="848" y="1550" name="top"/>
  <anchor x="561" y="-150" name="bottom"/>
  <outline>
    <contour>
      <point x="290.858" y="0" type="line"/>
      <point x="862.858" y="0" type="line"/>
      <point x="933.858" y="408" type="line"/>
      <point x="1524.86" y="1400" type="line"/>
      <point x="965.858" y="1400" type="line"/>
      <point x="737.858" y="951" type="line"/>
      <point x="665.858" y="1400" type="line"/>
      <point x="116.858" y="1400" type="line"/>
      <point x="362.858" y="412" type="line"/>
    </contour>
  </outline>
  <guideline x="577" y="0" angle="260.11" color="1,0,0,1"/>
</glyph>
<glyph name="Z" format="2">
  <advance width="1329.62"/>
  <unicode hex="005A"/>
  <anchor x="838" y="1550" name="top"/>
  <anchor x="538" y="-150" name="bottom"/>
  <outline>
    <contour>
      <point x="-44.039" y="0" type="line"/>
      <point x="1119.96" y="0" type="line"/>
      <point x="1200.96" y="464" type="line"/>
      <point x="750.961" y="464" type="line"/>
      <point x="754.961" y="455" type="line"/>
      <point x="1306.96" y="1128" type="line"/>
      <point x="1353.96" y="1400" type="line"/>
      <point x="269.961" y="1400" type="line"/>
      <point x="188.961" y="936" type="line"/>
      <point x="558.961" y="936" type="line"/>
      <point x="554.961" y="945" type="line"/>
      <point x="2.961" y="272" type="line"/>
    </contour>
  </outline>
</glyph>
<glyph name="backslash" format="2">
  <advance width="745"/>
  <unicode hex="005C"/>
  <outline>
    <contour>
      <point x="563" y="1430" type="line"/>
      <point x="167" y="1430" type="line"/>
      <point x="176" y="-100" type="line"/>
      <point x="572" y="-100" type="line"/>
    </contour>
  </outline>
</glyph>
<glyph name="asciicircum" format="2">
  <advance width="1010"/>
  <unicode hex="005E"/>
  <outline>
    <contour>
      <point x="30" y="850" type="line"/>
      <point x="475" y="1400" type="line"/>
      <point x="787" y="1400" type="line"/>
      <point x="1040" y="850" type="line"/>
      <point x="680" y="850" type="line"/>
      <point x="591" y="1190" type="line"/>
      <point x="382" y="850" type="line"/>
    </contour>
  </outline>
  <guideline y="850"/>
</glyph>
<glyph name="a" format="2">
  <advance width="1271" height="1448"/>
  <unicode hex="0061"/>
  <anchor x="735" y="1174" name="top"/>
  <anchor x="504" y="-150" name="bottom"/>
  <anchor x="897" y="0" name="ogonek"/>
  <outline>
    <contour>
      <point x="220.268" y="-14" type="line" smooth="yes"/>
      <point x="159.268" y="-14"/>
      <point x="55.2675" y="10"/>
      <point x="-15.7325" y="68"/>
      <point x="-44.7325" y="166"/>
      <point x="-31.7325" y="240" type="qcurve" smooth="yes"/>
      <point x="-11.7325" y="358" type="line" smooth="yes"/>
      <point x="1.26753" y="431"/>
      <point x="64.2675" y="525"/>
      <point x="154.268" y="580"/>
      <point x="266.268" y="602"/>
      <point x="327.268" y="602" type="qcurve" smooth="yes"/>
      <point x="669.268" y="602" type="line"/>
      <point x="689.268" y="718" type="line"/>
      <point x="689.268" y="718"/>
      <point x="689.268" y="718"/>
      <point x="689.268" y="718" type="qcurve"/>
      <point x="619.268" y="718" type="line"/>
      <point x="619.268" y="718"/>
      <point x="619.268" y="718"/>
      <point x="619.268" y="718" type="qcurve"/>
      <point x="606.268" y="642" type="line"/>
      <point x="98.2675" y="736" type="line"/>
      <point x="103.268" y="764" type="line" smooth="yes"/>
      <point x="117.268" y="846"/>
      <point x="179.268" y="952"/>
      <point x="268.268" y="1014"/>
      <point x="381.268" y="1038"/>
      <point x="447.268" y="1038" type="qcurve" smooth="yes"/>
      <point x="973.268" y="1038" type="line" smooth="yes"/>
      <point x="1039.27" y="1038"/>
      <point x="1144.27" y="1015"/>
      <point x="1211.27" y="953"/>
      <point x="1236.27" y="846"/>
      <point x="1221.27" y="762" type="qcurve" smooth="yes"/>
      <point x="1088.27" y="0" type="line"/>
      <point x="564.268" y="0" type="line"/>
      <point x="589.268" y="146" type="line"/>
      <point x="568.268" y="100"/>
      <point x="512.268" y="39"/>
      <point x="440.268" y="2"/>
      <point x="353.268" y="-14"/>
      <point x="300.268" y="-14" type="qcurve" smooth="yes"/>
    </contour>
    <contour>
      <point x="506.268" y="262" type="line"/>
      <point x="506.268" y="262"/>
      <point x="506.268" y="262"/>
      <point x="506.268" y="262" type="qcurve"/>
      <point x="610.268" y="262" type="line"/>
      <point x="629.268" y="370" type="line"/>
      <point x="525.268" y="370" type="line"/>
      <point x="525.268" y="370"/>
      <point x="525.268" y="370"/>
      <point x="525.268" y="370" type="qcurve"/>
    </contour>
  </outline>
  <guideline x="565" y="-0" angle="260.084" color="1,0,0,1"/>
</glyph>
<glyph name="b" format="2">
  <advance width="1273" height="-1448"/>
  <unicode hex="0062"/>
  <anchor x="801" y="1598" name="top"/>
  <anchor x="494" y="-162" name="bottom"/>
  <outline>
    <contour>
      <point x="-52" y="0" type="line"/>
      <point x="472" y="0" type="line"/>
      <point x="489" y="100" type="line"/>
      <point x="512" y="43"/>
      <point x="635" y="-12"/>
      <point x="744" y="-12" type="qcurve" smooth="yes"/>
      <point x="788" y="-12" type="line" smooth="yes"/>
      <point x="868" y="-12"/>
      <point x="989" y="19"/>
      <point x="1075" y="83"/>
      <point x="1128" y="183"/>
      <point x="1140" y="252" type="qcurve" smooth="yes"/>
      <point x="1232" y="782" type="line"/>
      <point x="1244" y="847"/>
      <point x="1225" y="943"/>
      <point x="1161" y="1006"/>
      <point x="1051" y="1036"/>
      <point x="971" y="1036" type="qcurve" smooth="yes"/>
      <point x="927" y="1036" type="line" smooth="yes"/>
      <point x="820" y="1036"/>
      <point x="676" y="981"/>
      <point x="633" y="924" type="qcurve"/>
      <point x="729" y="1472" type="line"/>
      <point x="205" y="1472" type="line"/>
    </contour>
    <contour>
      <point x="544" y="410" type="line"/>
      <point x="579" y="614" type="line"/>
      <point x="679" y="614" type="line"/>
      <point x="679" y="614"/>
      <point x="679" y="614"/>
      <point x="679" y="614" type="qcurve"/>
      <point x="644" y="410" type="line"/>
      <point x="644" y="410"/>
      <point x="644" y="410"/>
      <point x="644" y="410" type="qcurve"/>
    </contour>
  </outline>
  <guideline y="988"/>
  <guideline y="42"/>
</glyph>
<glyph name="c" format="2">
  <advance width="1238"/>
  <unicode hex="0063"/>
  <anchor x="718" y="1174" name="top"/>
  <anchor x="487" y="-150" name="bottom"/>
  <outline>
    <contour>
      <point x="-18.6754" y="256" type="line"/>
      <point x="72.3246" y="778" type="line" smooth="yes"/>
      <point x="84.3246" y="848"/>
      <point x="138.325" y="946"/>
      <point x="227.325" y="1009"/>
      <point x="356.325" y="1038"/>
      <point x="443.325" y="1038" type="qcurve" smooth="yes"/>
      <point x="929.325" y="1038" type="line" smooth="yes"/>
      <point x="1016.32" y="1038"/>
      <point x="1134.32" y="1010"/>
      <point x="1200.32" y="948"/>
      <point x="1218.32" y="851"/>
      <point x="1206.32" y="782" type="qcurve" smooth="yes"/>
      <point x="1183.32" y="650" type="line"/>
      <point x="642.325" y="552" type="line"/>
      <point x="660.325" y="656" type="line"/>
      <point x="660.325" y="656"/>
      <point x="660.325" y="656"/>
      <point x="660.325" y="656" type="qcurve"/>
      <point x="574.325" y="656" type="line"/>
      <point x="574.325" y="656"/>
      <point x="574.325" y="656"/>
      <point x="574.325" y="656" type="qcurve"/>
      <point x="524.325" y="368" type="line"/>
      <point x="524.325" y="368"/>
      <point x="524.325" y="368"/>
      <point x="524.325" y="368" type="qcurve"/>
      <point x="614.325" y="368" type="line"/>
      <point x="614.325" y="368"/>
      <point x="614.325" y="368"/>
      <point x="614.325" y="368" type="qcurve"/>
      <point x="633.325" y="474" type="line"/>
      <point x="1138.32" y="366" type="line"/>
      <point x="1119.32" y="256" type="line" smooth="yes"/>
      <point x="1106.32" y="183"/>
      <point x="1054.32" y="81"/>
      <point x="965.325" y="16"/>
      <point x="837.325" y="-14"/>
      <point x="748.325" y="-14" type="qcurve" smooth="yes"/>
      <point x="258.325" y="-14" type="line" smooth="yes"/>
      <point x="170.325" y="-14"/>
      <point x="51.3246" y="16"/>
      <point x="-14.6754" y="81"/>
      <point x="-31.6754" y="183"/>
      <point x="-18.6754" y="256" type="qcurve"/>
    </contour>
  </outline>
</glyph>
<glyph name="d" format="2">
  <advance width="1273.03" height="1448"/>
  <unicode hex="0064"/>
  <anchor x="788" y="1598" name="top"/>
  <anchor x="481" y="-162" name="bottom"/>
  <anchor x="1340" y="1472" name="right"/>
  <outline>
    <contour>
      <point x="-18.9701" y="252" type="line"/>
      <point x="73.0299" y="782" type="line" smooth="yes"/>
      <point x="85.0299" y="847"/>
      <point x="138.03" y="943"/>
      <point x="224.03" y="1006"/>
      <point x="345.03" y="1036"/>
      <point x="424.03" y="1036" type="qcurve" smooth="yes"/>
      <point x="468.03" y="1036" type="line" smooth="yes"/>
      <point x="575.03" y="1036"/>
      <point x="699.03" y="981"/>
      <point x="722.03" y="924" type="qcurve"/>
      <point x="818.03" y="1472" type="line"/>
      <point x="1342.03" y="1472" type="line"/>
      <point x="1085.03" y="0" type="line"/>
      <point x="561.03" y="0" type="line"/>
      <point x="578.03" y="100" type="line"/>
      <point x="536.03" y="43"/>
      <point x="394.03" y="-12"/>
      <point x="285.03" y="-12" type="qcurve" smooth="yes"/>
      <point x="241.03" y="-12" type="line" smooth="yes"/>
      <point x="161.03" y="-12"/>
      <point x="50.0299" y="19"/>
      <point x="-12.9701" y="83"/>
      <point x="-30.9701" y="183"/>
      <point x="-18.9701" y="252" type="qcurve"/>
    </contour>
    <contour>
      <point x="668.03" y="614" type="line"/>
      <point x="568.03" y="614" type="line"/>
      <point x="568.03" y="614"/>
      <point x="568.03" y="614"/>
      <point x="568.03" y="614" type="qcurve"/>
      <point x="533.03" y="410" type="line"/>
      <point x="533.03" y="410"/>
      <point x="533.03" y="410"/>
      <point x="533.03" y="410" type="qcurve"/>
      <point x="633.03" y="410" type="line"/>
    </contour>
  </outline>
  <guideline angle="0" x="0" y="988"/>
  <guideline angle="0" x="0" y="42"/>
</glyph>
<glyph name="e" format="2">
  <advance width="1262" height="1448"/>
  <unicode hex="0065"/>
  <anchor x="716" y="1174" name="top"/>
  <anchor x="485" y="-150" name="bottom"/>
  <anchor x="802" y="-4" name="ogonek"/>
  <outline>
    <contour>
      <point x="-11.7254" y="296" type="line"/>
      <point x="65.2746" y="738" type="line" smooth="yes"/>
      <point x="79.2746" y="816"/>
      <point x="142.275" y="929"/>
      <point x="250.275" y="1003"/>
      <point x="408.275" y="1038"/>
      <point x="515.275" y="1038" type="qcurve" smooth="yes"/>
      <point x="847.275" y="1038" type="line" smooth="yes"/>
      <point x="955.275" y="1038"/>
      <point x="1107.27" y="1003"/>
      <point x="1197.27" y="930"/>
      <point x="1227.27" y="817"/>
      <point x="1213.27" y="738" type="qcurve" smooth="yes"/>
      <point x="1155.27" y="404" type="line"/>
      <point x="531.275" y="404" type="line"/>
      <point x="510.275" y="288" type="line"/>
      <point x="510.275" y="288"/>
      <point x="510.275" y="288"/>
      <point x="510.275" y="288" type="qcurve"/>
      <point x="610.275" y="288" type="line"/>
      <point x="610.275" y="288"/>
      <point x="610.275" y="288"/>
      <point x="610.275" y="288" type="qcurve"/>
      <point x="624.275" y="368" type="line"/>
      <point x="1133.27" y="280" type="line"/>
      <point x="1130.27" y="262" type="line" smooth="yes"/>
      <point x="1117.27" y="187"/>
      <point x="1049.27" y="82"/>
      <point x="935.275" y="16"/>
      <point x="772.275" y="-14"/>
      <point x="664.275" y="-14" type="qcurve" smooth="yes"/>
      <point x="332.275" y="-14" type="line" smooth="yes"/>
      <point x="224.275" y="-14"/>
      <point x="79.2746" y="22"/>
      <point x="-2.72542" y="98"/>
      <point x="-25.7254" y="215"/>
      <point x="-11.7254" y="296" type="qcurve"/>
    </contour>
    <contour>
      <point x="570.275" y="628" type="line"/>
      <point x="670.275" y="628" type="line"/>
      <point x="688.275" y="736" type="line"/>
      <point x="688.275" y="736"/>
      <point x="688.275" y="736"/>
      <point x="688.275" y="736" type="qcurve"/>
      <point x="588.275" y="736" type="line"/>
      <point x="588.275" y="736"/>
      <point x="588.275" y="736"/>
      <point x="588.275" y="736" type="qcurve"/>
    </contour>
  </outline>
  <guideline y="-1038" color="1,0,0,1"/>
</glyph>
<glyph name="f" format="2">
  <advance width="870"/>
  <unicode hex="0066"/>
  <outline>
    <contour>
      <point x="188" y="1024" type="line"/>
      <point x="214" y="1176" type="line" smooth="yes"/>
      <point x="228" y="1254"/>
      <point x="288" y="1366"/>
      <point x="379" y="1438"/>
      <point x="503" y="1472"/>
      <point x="580" y="1472" type="qcurve" smooth="yes"/>
      <point x="1017" y="1472" type="line"/>
      <point x="914" y="1170" type="line"/>
      <point x="737" y="1170" type="line"/>
      <point x="737" y="1170"/>
      <point x="737" y="1170"/>
      <point x="737" y="1170" type="qcurve"/>
      <point x="712" y="1024" type="line"/>
      <point x="884" y="1024" type="line"/>
      <point x="831" y="722" type="line"/>
      <point x="659" y="722" type="line"/>
      <point x="533" y="0" type="line"/>
      <point x="9" y="0" type="line"/>
      <point x="135" y="722" type="line"/>
      <point x="47" y="722" type="line"/>
      <point x="100" y="1024" type="line"/>
    </contour>
  </outline>
</glyph>
<glyph name="g" format="2">
  <advance width="1273" height="1448"/>
  <unicode hex="0067"/>
  <anchor x="633" y="1178" name="top"/>
  <anchor x="633" y="-578" name="bottom"/>
  <outline>
    <contour>
      <point x="533.03" y="410" type="line"/>
      <point x="568.03" y="614" type="line"/>
      <point x="568.03" y="614"/>
      <point x="568.03" y="614"/>
      <point x="568.03" y="614" type="qcurve"/>
      <point x="668.03" y="614" type="line"/>
      <point x="633.03" y="410" type="line"/>
      <point x="533.03" y="410" type="line"/>
      <point x="533.03" y="410"/>
      <point x="533.03" y="410"/>
      <point x="533.03" y="410" type="qcurve"/>
    </contour>
    <contour>
      <point x="-51.9701" y="-428" type="line"/>
      <point x="750.03" y="-428" type="line" smooth="yes"/>
      <point x="809.03" y="-428"/>
      <point x="913.03" y="-381"/>
      <point x="996.03" y="-296"/>
      <point x="1054.03" y="-176"/>
      <point x="1067.03" y="-102" type="qcurve" smooth="yes"/>
      <point x="1264.03" y="1024" type="line"/>
      <point x="740.03" y="1024" type="line"/>
      <point x="722.03" y="924" type="line"/>
      <point x="699.03" y="981"/>
      <point x="575.03" y="1036"/>
      <point x="468.03" y="1036" type="qcurve" smooth="yes"/>
      <point x="424.03" y="1036" type="line" smooth="yes"/>
      <point x="345.03" y="1036"/>
      <point x="224.03" y="1006"/>
      <point x="138.03" y="943"/>
      <point x="85.0299" y="847"/>
      <point x="73.0299" y="782" type="qcurve"/>
      <point x="-18.9701" y="252" type="line" smooth="yes"/>
      <point x="-30.9701" y="183"/>
      <point x="-12.9701" y="83"/>
      <point x="50.0299" y="19"/>
      <point x="161.03" y="-12"/>
      <point x="241.03" y="-12" type="qcurve" smooth="yes"/>
      <point x="285.03" y="-12" type="line" smooth="yes"/>
      <point x="394.03" y="-12"/>
      <point x="536.03" y="43"/>
      <point x="578.03" y="100" type="qcurve"/>
      <point x="547.03" y="-80" type="line"/>
      <point x="547.03" y="-80"/>
      <point x="547.03" y="-80"/>
      <point x="547.03" y="-80" type="qcurve"/>
      <point x="-62.9701" y="-80" type="line"/>
    </contour>
  </outline>
</glyph>
<glyph name="h" format="2">
  <advance width="1278.7" height="1448"/>
  <unicode hex="0068"/>
  <anchor x="493" y="1622" name="top"/>
  <anchor x="496" y="-150" name="bottom"/>
  <anchor x="-63" y="518" name="left"/>
  <outline>
    <contour>
      <point x="-52.3045" y="0" type="line"/>
      <point x="204.695" y="1472" type="line"/>
      <point x="728.695" y="1472" type="line"/>
      <point x="634.695" y="932" type="line"/>
      <point x="675.695" y="986"/>
      <point x="820.695" y="1036"/>
      <point x="938.695" y="1036" type="qcurve" smooth="yes"/>
      <point x="968.695" y="1036" type="line" smooth="yes"/>
      <point x="1064.7" y="1036"/>
      <point x="1178.7" y="1001"/>
      <point x="1233.7" y="927"/>
      <point x="1237.7" y="814"/>
      <point x="1223.7" y="736" type="qcurve" smooth="yes"/>
      <point x="1095.7" y="0" type="line"/>
      <point x="571.695" y="0" type="line"/>
      <point x="671.695" y="574" type="line"/>
      <point x="671.695" y="574"/>
      <point x="671.695" y="574"/>
      <point x="671.695" y="574" type="qcurve"/>
      <point x="571.695" y="574" type="line"/>
      <point x="471.695" y="0" type="line"/>
    </contour>
  </outline>
  <guideline angle="0" x="0" y="988"/>
  <guideline angle="0" x="0" y="870"/>
</glyph>
<glyph name="k" format="2">
  <advance width="1380" height="1448"/>
  <unicode hex="006B"/>
  <anchor x="489" y="1598" name="top"/>
  <anchor x="546" y="-150" name="bottom"/>
  <anchor x="-24" y="736" name="left"/>
  <outline>
    <contour>
      <point x="-52.3045" y="0" type="line"/>
      <point x="471.696" y="0" type="line"/>
      <point x="544.696" y="420" type="line"/>
      <point x="539.696" y="420" type="line"/>
      <point x="659.696" y="0" type="line"/>
      <point x="1259.7" y="0" type="line"/>
      <point x="1038.7" y="603" type="line"/>
      <point x="1035.7" y="582" type="line"/>
      <point x="1362.7" y="1024" type="line"/>
      <point x="877.696" y="1024" type="line"/>
      <point x="570.696" y="598" type="line"/>
      <point x="575.696" y="596" type="line"/>
      <point x="728.696" y="1472" type="line"/>
      <point x="204.696" y="1472" type="line"/>
    </contour>
  </outline>
</glyph>
<glyph name="l" format="2">
  <advance width="660" height="1448"/>
  <unicode hex="006C"/>
  <anchor x="489" y="1598" name="top"/>
  <anchor x="184" y="-150" name="bottom"/>
  <anchor x="729" y="1472" name="right"/>
  <anchor x="662" y="700" name="eldot"/>
  <outline>
    <contour>
      <point x="-52.3045" y="0" type="line"/>
      <point x="471.696" y="0" type="line"/>
      <point x="728.696" y="1472" type="line"/>
      <point x="204.696" y="1472" type="line"/>
    </contour>
  </outline>
</glyph>
<glyph name="n" format="2">
  <advance width="1278" height="1448"/>
  <unicode hex="006E"/>
  <anchor x="728" y="1186" name="top"/>
  <anchor x="495" y="-150" name="bottom"/>
  <anchor x="-64" y="518" name="left"/>
  <outline>
    <contour>
      <point x="-53.2989" y="0" type="line"/>
      <point x="125.701" y="1024" type="line"/>
      <point x="649.701" y="1024" type="line"/>
      <point x="633.701" y="934" type="line"/>
      <point x="675.701" y="988"/>
      <point x="819.701" y="1038"/>
      <point x="937.701" y="1038" type="qcurve" smooth="yes"/>
      <point x="967.701" y="1038" type="line" smooth="yes"/>
      <point x="1063.7" y="1038"/>
      <point x="1177.7" y="1003"/>
      <point x="1232.7" y="929"/>
      <point x="1237.7" y="816"/>
      <point x="1223.7" y="738" type="qcurve" smooth="yes"/>
      <point x="1094.7" y="0" type="line"/>
      <point x="570.701" y="0" type="line"/>
      <point x="670.701" y="574" type="line"/>
      <point x="670.701" y="574"/>
      <point x="670.701" y="574"/>
      <point x="670.701" y="574" type="qcurve"/>
      <point x="570.701" y="574" type="line"/>
      <point x="470.701" y="0" type="line"/>
    </contour>
  </outline>
  <guideline y="988"/>
  <guideline y="870"/>
</glyph>
<glyph name="o" format="2">
  <advance width="1262" height="1448"/>
  <unicode hex="006F"/>
  <anchor x="716" y="1174" name="top"/>
  <anchor x="485" y="-150" name="bottom"/>
  <anchor x="1222" y="784" name="horn"/>
  <anchor x="677" y="0" name="ogonek"/>
  <outline>
    <contour>
      <point x="-19.6174" y="250" type="line"/>
      <point x="73.3826" y="784" type="line" smooth="yes"/>
      <point x="84.3826" y="849"/>
      <point x="137.383" y="945"/>
      <point x="223.383" y="1008"/>
      <point x="344.383" y="1038"/>
      <point x="423.383" y="1038" type="qcurve" smooth="yes"/>
      <point x="959.383" y="1038" type="line" smooth="yes"/>
      <point x="1118.38" y="1038"/>
      <point x="1244.38" y="915"/>
      <point x="1221.38" y="784" type="qcurve" smooth="yes"/>
      <point x="1128.38" y="250" type="line" smooth="yes"/>
      <point x="1116.38" y="181"/>
      <point x="1064.38" y="81"/>
      <point x="978.383" y="17"/>
      <point x="857.383" y="-14"/>
      <point x="776.383" y="-14" type="qcurve" smooth="yes"/>
      <point x="240.383" y="-14" type="line" smooth="yes"/>
      <point x="160.383" y="-14"/>
      <point x="49.3826" y="17"/>
      <point x="-13.6174" y="81"/>
      <point x="-31.6174" y="181"/>
      <point x="-19.6174" y="250" type="qcurve"/>
    </contour>
    <contour>
      <point x="524.383" y="368" type="line"/>
      <point x="524.383" y="368"/>
      <point x="524.383" y="368"/>
      <point x="524.383" y="368" type="qcurve"/>
      <point x="624.383" y="368" type="line"/>
      <point x="624.383" y="368"/>
      <point x="624.383" y="368"/>
      <point x="624.383" y="368" type="qcurve"/>
      <point x="674.383" y="656" type="line"/>
      <point x="674.383" y="656"/>
      <point x="674.383" y="656"/>
      <point x="674.383" y="656" type="qcurve"/>
      <point x="574.383" y="656" type="line"/>
      <point x="574.383" y="656"/>
      <point x="574.383" y="656"/>
      <point x="574.383" y="656" type="qcurve"/>
    </contour>
  </outline>
</glyph>
<glyph name="p" format="2">
  <advance width="1272" height="1448"/>
  <unicode hex="0070"/>
  <anchor x="790" y="1598" name="top"/>
  <anchor x="424" y="-554" name="bottom"/>
  <outline>
    <contour>
      <point x="-128" y="-428" type="line"/>
      <point x="126" y="1024" type="line"/>
      <point x="650" y="1024" type="line"/>
      <point x="632" y="924" type="line"/>
      <point x="674" y="981"/>
      <point x="817" y="1036"/>
      <point x="926" y="1036" type="qcurve" smooth="yes"/>
      <point x="970" y="1036" type="line" smooth="yes"/>
      <point x="1050" y="1036"/>
      <point x="1161" y="1005"/>
      <point x="1224" y="941"/>
      <point x="1242" y="841"/>
      <point x="1230" y="772" type="qcurve" smooth="yes"/>
      <point x="1137" y="242" type="line" smooth="yes"/>
      <point x="1126" y="177"/>
      <point x="1073" y="81"/>
      <point x="987" y="18"/>
      <point x="867" y="-12"/>
      <point x="787" y="-12" type="qcurve" smooth="yes"/>
      <point x="743" y="-12" type="line" smooth="yes"/>
      <point x="636" y="-12"/>
      <point x="511" y="43"/>
      <point x="488" y="100" type="qcurve"/>
      <point x="396" y="-428" type="line"/>
    </contour>
    <contour>
      <point x="543" y="410" type="line"/>
      <point x="643" y="410" type="line"/>
      <point x="643" y="410"/>
      <point x="643" y="410"/>
      <point x="643" y="410" type="qcurve"/>
      <point x="678" y="614" type="line"/>
      <point x="678" y="614"/>
      <point x="678" y="614"/>
      <point x="678" y="614" type="qcurve"/>
      <point x="578" y="614" type="line"/>
    </contour>
  </outline>
</glyph>
<glyph name="q" format="2">
  <advance width="1273" height="1448"/>
  <unicode hex="0071"/>
  <anchor x="790" y="1598" name="top"/>
  <anchor x="483" y="-162" name="bottom"/>
  <outline>
    <contour>
      <point x="-18.9701" y="252" type="line"/>
      <point x="73.0299" y="782" type="line"/>
      <point x="85.0299" y="847"/>
      <point x="138.03" y="943"/>
      <point x="224.03" y="1006"/>
      <point x="345.03" y="1036"/>
      <point x="424.03" y="1036" type="qcurve" smooth="yes"/>
      <point x="468.03" y="1036" type="line" smooth="yes"/>
      <point x="575.03" y="1036"/>
      <point x="699.03" y="981"/>
      <point x="722.03" y="924" type="qcurve"/>
      <point x="740.03" y="1024" type="line"/>
      <point x="1264.03" y="1024" type="line"/>
      <point x="1010.03" y="-428" type="line"/>
      <point x="486.03" y="-428" type="line"/>
      <point x="578.03" y="100" type="line"/>
      <point x="536.03" y="43"/>
      <point x="394.03" y="-12"/>
      <point x="285.03" y="-12" type="qcurve" smooth="yes"/>
      <point x="241.03" y="-12" type="line" smooth="yes"/>
      <point x="161.03" y="-12"/>
      <point x="50.0299" y="19"/>
      <point x="-12.9701" y="83"/>
      <point x="-30.9701" y="183"/>
      <point x="-18.9701" y="252" type="qcurve"/>
    </contour>
    <contour>
      <point x="533.03" y="410" type="line"/>
      <point x="533.03" y="410"/>
      <point x="533.03" y="410"/>
      <point x="533.03" y="410" type="qcurve"/>
      <point x="633.03" y="410" type="line"/>
      <point x="668.03" y="614" type="line"/>
      <point x="568.03" y="614" type="line"/>
      <point x="568.03" y="614"/>
      <point x="568.03" y="614"/>
      <point x="568.03" y="614" type="qcurve"/>
    </contour>
  </outline>
</glyph>
<glyph name="r" format="2">
  <advance width="1226" height="1448"/>
  <unicode hex="0072"/>
  <anchor x="723" y="1186" name="top"/>
  <anchor x="183" y="-150" name="bottom"/>
  <anchor x="-63" y="518" name="left"/>
  <outline>
    <contour>
      <point x="-53" y="0" type="line"/>
      <point x="126" y="1024" type="line"/>
      <point x="650" y="1024" type="line"/>
      <point x="634" y="932" type="line"/>
      <point x="675" y="986"/>
      <point x="820" y="1036"/>
      <point x="938" y="1036" type="qcurve" smooth="yes"/>
      <point x="958" y="1036" type="line" smooth="yes"/>
      <point x="1054" y="1036"/>
      <point x="1168" y="1001"/>
      <point x="1223" y="927"/>
      <point x="1227" y="814"/>
      <point x="1213" y="736" type="qcurve" smooth="yes"/>
      <point x="1184" y="568" type="line"/>
      <point x="643" y="470" type="line"/>
      <point x="661" y="574" type="line"/>
      <point x="661" y="574"/>
      <point x="661" y="574"/>
      <point x="661" y="574" type="qcurve"/>
      <point x="571" y="574" type="line"/>
      <point x="471" y="0" type="line"/>
    </contour>
  </outline>
  <guideline angle="0" x="0" y="988"/>
  <guideline angle="0" x="0" y="870"/>
</glyph>
<glyph name="s" format="2">
  <advance width="1221"/>
  <unicode hex="0073"/>
  <anchor x="693" y="1174" name="top"/>
  <anchor x="462" y="-150" name="bottom"/>
  <outline>
    <contour>
      <point x="-30.0707" y="254" type="line"/>
      <point x="498.929" y="336" type="line"/>
      <point x="484.929" y="258" type="line"/>
      <point x="484.929" y="258"/>
      <point x="484.929" y="258"/>
      <point x="484.929" y="258" type="qcurve"/>
      <point x="574.929" y="258" type="line"/>
      <point x="574.929" y="258"/>
      <point x="574.929" y="258"/>
      <point x="574.929" y="258" type="qcurve"/>
      <point x="591.929" y="358" type="line"/>
      <point x="591.929" y="358"/>
      <point x="591.929" y="358"/>
      <point x="591.929" y="358" type="qcurve"/>
      <point x="305.929" y="358" type="line" smooth="yes"/>
      <point x="233.929" y="358"/>
      <point x="125.929" y="389"/>
      <point x="58.9293" y="458"/>
      <point x="36.9293" y="567"/>
      <point x="50.9293" y="646" type="qcurve" smooth="yes"/>
      <point x="72.9293" y="772" type="line" smooth="yes"/>
      <point x="86.9293" y="849"/>
      <point x="161.929" y="952"/>
      <point x="269.929" y="1013"/>
      <point x="400.929" y="1038"/>
      <point x="470.929" y="1038" type="qcurve" smooth="yes"/>
      <point x="938.929" y="1038" type="line" smooth="yes"/>
      <point x="1004.93" y="1038"/>
      <point x="1102.93" y="1009"/>
      <point x="1164.93" y="951"/>
      <point x="1186.93" y="864"/>
      <point x="1176.93" y="806" type="qcurve" smooth="yes"/>
      <point x="1170.93" y="776" type="line"/>
      <point x="652.929" y="694" type="line"/>
      <point x="665.929" y="766" type="line"/>
      <point x="665.929" y="766"/>
      <point x="665.929" y="766"/>
      <point x="665.929" y="766" type="qcurve"/>
      <point x="575.929" y="766" type="line"/>
      <point x="575.929" y="766"/>
      <point x="575.929" y="766"/>
      <point x="575.929" y="766" type="qcurve"/>
      <point x="559.929" y="676" type="line"/>
      <point x="559.929" y="676"/>
      <point x="559.929" y="676"/>
      <point x="559.929" y="676" type="qcurve"/>
      <point x="863.929" y="676" type="line" smooth="yes"/>
      <point x="933.929" y="676"/>
      <point x="1043.93" y="656"/>
      <point x="1114.93" y="600"/>
      <point x="1141.93" y="502"/>
      <point x="1127.93" y="424" type="qcurve" smooth="yes"/>
      <point x="1096.93" y="248" type="line" smooth="yes"/>
      <point x="1082.93" y="169"/>
      <point x="1023.93" y="67"/>
      <point x="934.929" y="8"/>
      <point x="816.929" y="-14"/>
      <point x="743.929" y="-14" type="qcurve" smooth="yes"/>
      <point x="229.929" y="-14" type="line" smooth="yes"/>
      <point x="157.929" y="-14"/>
      <point x="48.9293" y="10"/>
      <point x="-21.0707" y="67"/>
      <point x="-46.0707" y="160"/>
      <point x="-34.0707" y="228" type="qcurve" smooth="yes"/>
    </contour>
  </outline>
</glyph>
<glyph name="t" format="2">
  <advance width="828"/>
  <unicode hex="0074"/>
  <anchor x="518" y="1394" name="top"/>
  <anchor x="246" y="-164" name="bottom"/>
  <anchor x="763" y="1400" name="right"/>
  <outline>
    <contour>
      <point x="299.616" y="-14" type="line" smooth="yes"/>
      <point x="217.616" y="-14"/>
      <point x="105.616" y="14"/>
      <point x="42.6157" y="76"/>
      <point x="25.6157" y="173"/>
      <point x="37.6157" y="242" type="qcurve" smooth="yes"/>
      <point x="121.616" y="722" type="line"/>
      <point x="33.6157" y="722" type="line"/>
      <point x="86.6157" y="1024" type="line"/>
      <point x="174.616" y="1024" type="line"/>
      <point x="212.616" y="1244" type="line"/>
      <point x="736.616" y="1244" type="line"/>
      <point x="698.616" y="1024" type="line"/>
      <point x="862.616" y="1024" type="line"/>
      <point x="809.616" y="722" type="line"/>
      <point x="645.616" y="722" type="line"/>
      <point x="569.616" y="288" type="line"/>
      <point x="569.616" y="288"/>
      <point x="569.616" y="288"/>
      <point x="569.616" y="288" type="qcurve"/>
      <point x="728.616" y="288" type="line"/>
      <point x="626.616" y="-14" type="line"/>
    </contour>
  </outline>
</glyph>
<glyph name="u" format="2">
  <advance width="1208"/>
  <unicode hex="0075"/>
  <anchor x="689" y="1174" name="top"/>
  <anchor x="458" y="-150" name="bottom"/>
  <anchor x="650" y="0" name="ogonek"/>
  <anchor x="1233" y="1024" name="horn"/>
  <outline>
    <contour>
      <point x="-49.8701" y="204" type="line"/>
      <point x="93.1299" y="1024" type="line"/>
      <point x="617.13" y="1024" type="line"/>
      <point x="510.13" y="412" type="line"/>
      <point x="510.13" y="412"/>
      <point x="510.13" y="412"/>
      <point x="510.13" y="412" type="qcurve"/>
      <point x="602.13" y="412" type="line"/>
      <point x="602.13" y="412"/>
      <point x="602.13" y="412"/>
      <point x="602.13" y="412" type="qcurve"/>
      <point x="709.13" y="1024" type="line"/>
      <point x="1233.13" y="1024" type="line"/>
      <point x="1090.13" y="204" type="line" smooth="yes"/>
      <point x="1079.13" y="141"/>
      <point x="1031.13" y="62"/>
      <point x="959.13" y="17"/>
      <point x="865.13" y="0"/>
      <point x="808.13" y="0" type="qcurve" smooth="yes"/>
      <point x="158.13" y="0" type="line" smooth="yes"/>
      <point x="101.13" y="0"/>
      <point x="13.1299" y="17"/>
      <point x="-41.8701" y="62"/>
      <point x="-60.8701" y="141"/>
      <point x="-49.8701" y="204" type="qcurve"/>
    </contour>
  </outline>
</glyph>
<glyph name="v" format="2">
  <advance width="1246"/>
  <unicode hex="0076"/>
  <anchor x="738" y="1174" name="top"/>
  <anchor x="479" y="-150" name="bottom"/>
  <outline>
    <contour>
      <point x="245" y="0" type="line"/>
      <point x="767" y="0" type="line"/>
      <point x="1306" y="1024" type="line"/>
      <point x="838" y="1024" type="line"/>
      <point x="646" y="637" type="line"/>
      <point x="595" y="1024" type="line"/>
      <point x="61" y="1024" type="line"/>
    </contour>
  </outline>
</glyph>
<glyph name="w" format="2">
  <advance width="1916"/>
  <unicode hex="0077"/>
  <anchor x="1073" y="1174" name="top"/>
  <anchor x="818" y="-150" name="bottom"/>
  <outline>
    <contour>
      <point x="234" y="0" type="line"/>
      <point x="61" y="1024" type="line"/>
      <point x="572" y="1024" type="line"/>
      <point x="632" y="172" type="line"/>
      <point x="602" y="0" type="line"/>
    </contour>
    <contour>
      <point x="429" y="0" type="line"/>
      <point x="459" y="172" type="line"/>
      <point x="823" y="1024" type="line"/>
      <point x="1100" y="1024" type="line"/>
      <point x="1060" y="798" type="line"/>
      <point x="711" y="0" type="line"/>
    </contour>
    <contour>
      <point x="978" y="0" type="line"/>
      <point x="909" y="798" type="line"/>
      <point x="949" y="1024" type="line"/>
      <point x="1271" y="1024" type="line"/>
      <point x="1338" y="172" type="line"/>
      <point x="1307" y="0" type="line"/>
    </contour>
    <contour>
      <point x="1124" y="0" type="line"/>
      <point x="1154" y="172" type="line"/>
      <point x="1526" y="1024" type="line"/>
      <point x="1976" y="1024" type="line"/>
      <point x="1446" y="0" type="line"/>
    </contour>
  </outline>
</glyph>
<glyph name="x" format="2">
  <advance width="1352.56"/>
  <unicode hex="0078"/>
  <anchor x="762.559" y="1174" name="top"/>
  <anchor x="531.559" y="-150" name="bottom"/>
  <outline>
    <contour>
      <point x="-118.441" y="0" type="line"/>
      <point x="406.559" y="0" type="line"/>
      <point x="564.559" y="198" type="line"/>
      <point x="650.559" y="0" type="line"/>
      <point x="1232.56" y="0" type="line"/>
      <point x="926.559" y="533" type="line"/>
      <point x="1365.56" y="1024" type="line"/>
      <point x="835.559" y="1024" type="line"/>
      <point x="695.559" y="846" type="line"/>
      <point x="625.559" y="1024" type="line"/>
      <point x="60.5588" y="1024" type="line"/>
      <point x="337.559" y="521" type="line"/>
    </contour>
  </outline>
</glyph>
<glyph name="y" format="2">
  <advance width="1241"/>
  <unicode hex="0079"/>
  <anchor x="707.559" y="1174" name="top"/>
  <anchor x="911.559" y="-120" name="bottom"/>
  <outline>
    <contour>
      <point x="-105.441" y="-428" type="line"/>
      <point x="31.5588" y="-428" type="line" smooth="yes"/>
      <point x="159.559" y="-428"/>
      <point x="356.559" y="-394"/>
      <point x="513.559" y="-311"/>
      <point x="639.559" y="-172"/>
      <point x="697.559" y="-68" type="qcurve" smooth="yes"/>
      <point x="1301.56" y="1024" type="line"/>
      <point x="811.559" y="1024" type="line"/>
      <point x="625.559" y="677" type="line"/>
      <point x="580.559" y="1024" type="line"/>
      <point x="60.5588" y="1024" type="line"/>
      <point x="279.559" y="28" type="line"/>
      <point x="222.559" y="-80" type="line"/>
      <point x="222.559" y="-80"/>
      <point x="222.559" y="-80"/>
      <point x="222.559" y="-80"/>
      <point x="222.559" y="-80"/>
      <point x="222.559" y="-80" type="qcurve"/>
      <point x="-116.441" y="-80" type="line"/>
    </contour>
  </outline>
</glyph>
<glyph name="z" format="2">
  <advance width="1092.6"/>
  <unicode hex="007A"/>
  <anchor x="629.779" y="1174" name="top"/>
  <anchor x="398.779" y="-150" name="bottom"/>
  <outline>
    <contour>
      <point x="-92.4027" y="0" type="line"/>
      <point x="943.597" y="0" type="line"/>
      <point x="999.597" y="322" type="line"/>
      <point x="608.597" y="322" type="line"/>
      <point x="612.597" y="313" type="line"/>
      <point x="1072.6" y="797" type="line"/>
      <point x="1112.6" y="1024" type="line"/>
      <point x="132.597" y="1024" type="line"/>
      <point x="76.5973" y="702" type="line"/>
      <point x="415.597" y="702" type="line"/>
      <point x="411.597" y="711" type="line"/>
      <point x="-52.4027" y="227" type="line"/>
    </contour>
  </outline>
</glyph>
<glyph name="braceleft" format="2">
  <advance width="890"/>
  <unicode hex="007B"/>
  <outline>
    <contour>
      <point x="117" y="18" type="line"/>
      <point x="159" y="257" type="line" smooth="yes"/>
      <point x="166" y="298"/>
      <point x="158" y="364"/>
      <point x="122" y="410"/>
      <point x="53" y="435"/>
      <point x="0" y="435" type="qcurve"/>
      <point x="57" y="759" type="line"/>
      <point x="110" y="759"/>
      <point x="187" y="784"/>
      <point x="240" y="831"/>
      <point x="271" y="897"/>
      <point x="278" y="937" type="qcurve" smooth="yes"/>
      <point x="318" y="1164" type="line" smooth="yes"/>
      <point x="330" y="1232"/>
      <point x="390" y="1337"/>
      <point x="481" y="1410"/>
      <point x="598" y="1448"/>
      <point x="665" y="1448" type="qcurve" smooth="yes"/>
      <point x="998" y="1448" type="line"/>
      <point x="937" y="1098" type="line"/>
      <point x="868" y="1098" type="line" smooth="yes"/>
      <point x="835" y="1098"/>
      <point x="787" y="1085"/>
      <point x="752" y="1057"/>
      <point x="731" y="1015"/>
      <point x="726" y="986" type="qcurve" smooth="yes"/>
      <point x="707" y="877" type="line" smooth="yes"/>
      <point x="688" y="766"/>
      <point x="560" y="624"/>
      <point x="459" y="597" type="qcurve"/>
      <point x="504" y="584"/>
      <point x="570" y="534"/>
      <point x="609" y="464"/>
      <point x="620" y="373"/>
      <point x="610" y="317" type="qcurve" smooth="yes"/>
      <point x="590" y="206" type="line" smooth="yes"/>
      <point x="585" y="177"/>
      <point x="592" y="135"/>
      <point x="616" y="107"/>
      <point x="660" y="94"/>
      <point x="693" y="94" type="qcurve" smooth="yes"/>
      <point x="762" y="94" type="line"/>
      <point x="701" y="-256" type="line"/>
      <point x="368" y="-256" type="line" smooth="yes"/>
      <point x="301" y="-256"/>
      <point x="197" y="-218"/>
      <point x="131" y="-147"/>
      <point x="106" y="-46"/>
      <point x="117" y="18" type="qcurve"/>
    </contour>
  </outline>
</glyph>
<glyph name="bar" format="2">
  <advance width="560.796"/>
  <unicode hex="007C"/>
  <outline>
    <contour>
      <point x="225" y="1520" type="line"/>
      <point x="625" y="1520" type="line"/>
      <point x="276" y="-480" type="line"/>
      <point x="-124" y="-480" type="line"/>
    </contour>
  </outline>
</glyph>
<glyph name="asciitilde" format="2">
  <advance width="942.405"/>
  <unicode hex="007E"/>
  <outline>
    <contour>
      <point x="-17" y="445" type="line"/>
      <point x="-2" y="497"/>
      <point x="37" y="586"/>
      <point x="83" y="658"/>
      <point x="138" y="712"/>
      <point x="200" y="749"/>
      <point x="270" y="768"/>
      <point x="308" y="768" type="qcurve" smooth="yes"/>
      <point x="342" y="768"/>
      <point x="393" y="760"/>
      <point x="436" y="749"/>
      <point x="473" y="736"/>
      <point x="508" y="725"/>
      <point x="546" y="717"/>
      <point x="569" y="717" type="qcurve" smooth="yes"/>
      <point x="586" y="717"/>
      <point x="613" y="729"/>
      <point x="632" y="747"/>
      <point x="645" y="768"/>
      <point x="648" y="778" type="qcurve"/>
      <point x="926" y="730" type="line"/>
      <point x="912" y="682"/>
      <point x="874" y="596"/>
      <point x="828" y="525"/>
      <point x="774" y="468"/>
      <point x="712" y="428"/>
      <point x="641" y="407"/>
      <point x="601" y="407" type="qcurve" smooth="yes"/>
      <point x="570" y="407"/>
      <point x="519" y="415"/>
      <point x="476" y="426"/>
      <point x="438" y="439"/>
      <point x="401" y="450"/>
      <point x="363" y="458"/>
      <point x="340" y="458" type="qcurve" smooth="yes"/>
      <point x="324" y="458"/>
      <point x="297" y="446"/>
      <point x="278" y="428"/>
      <point x="265" y="407"/>
      <point x="261" y="397" type="qcurve"/>
    </contour>
  </outline>
</glyph>
<glyph name="cent" format="2">
  <advance width="1367.69"/>
  <unicode hex="00A2"/>
  <outline>
    <contour>
      <point x="524" y="-100" type="line"/>
      <point x="586" y="-100" type="line"/>
      <point x="627" y="136" type="line"/>
      <point x="905" y="136" type="line" smooth="yes"/>
      <point x="993" y="136"/>
      <point x="1122" y="166"/>
      <point x="1210" y="231"/>
      <point x="1263" y="333"/>
      <point x="1276" y="406" type="qcurve" smooth="yes"/>
      <point x="1295" y="516" type="line"/>
      <point x="790" y="624" type="line"/>
      <point x="771" y="518" type="line"/>
      <point x="771" y="518"/>
      <point x="771" y="518"/>
      <point x="771" y="518" type="qcurve"/>
      <point x="693" y="518" type="line"/>
      <point x="744" y="806" type="line"/>
      <point x="818" y="806" type="line"/>
      <point x="818" y="806"/>
      <point x="818" y="806"/>
      <point x="818" y="806" type="qcurve"/>
      <point x="800" y="702" type="line"/>
      <point x="1341" y="800" type="line"/>
      <point x="1364" y="932" type="line" smooth="yes"/>
      <point x="1376" y="1001"/>
      <point x="1357" y="1098"/>
      <point x="1290" y="1160"/>
      <point x="1173" y="1188"/>
      <point x="1086" y="1188" type="qcurve" smooth="yes"/>
      <point x="810" y="1188" type="line"/>
      <point x="847" y="1400" type="line"/>
      <point x="785" y="1400" type="line"/>
      <point x="748" y="1188" type="line"/>
      <point x="470" y="1188" type="line" smooth="yes"/>
      <point x="383" y="1188"/>
      <point x="254" y="1159"/>
      <point x="164" y="1096"/>
      <point x="111" y="998"/>
      <point x="99" y="928" type="qcurve" smooth="yes"/>
      <point x="8" y="406" type="line" smooth="yes"/>
      <point x="-5" y="333"/>
      <point x="12" y="231"/>
      <point x="78" y="166"/>
      <point x="196" y="136"/>
      <point x="285" y="136" type="qcurve" smooth="yes"/>
      <point x="565" y="136" type="line"/>
    </contour>
    <contour>
      <point x="682" y="806" type="line"/>
      <point x="631" y="518" type="line"/>
      <point x="551" y="518" type="line"/>
      <point x="551" y="518"/>
      <point x="551" y="518"/>
      <point x="551" y="518" type="qcurve"/>
      <point x="602" y="806" type="line"/>
      <point x="602" y="806"/>
      <point x="602" y="806"/>
      <point x="602" y="806" type="qcurve"/>
    </contour>
  </outline>
</glyph>
<glyph name="sterling" format="2">
  <advance width="1390"/>
  <unicode hex="00A3"/>
  <outline>
    <contour>
      <point x="67" y="543" type="line"/>
      <point x="730" y="543" type="line"/>
      <point x="820" y="785" type="line"/>
      <point x="108" y="785" type="line"/>
    </contour>
    <contour>
      <point x="-79" y="0" type="line"/>
      <point x="217" y="200" type="line"/>
      <point x="305" y="200"/>
      <point x="461" y="229"/>
      <point x="584" y="304"/>
      <point x="669" y="434"/>
      <point x="687" y="534" type="qcurve" smooth="yes"/>
      <point x="770" y="1013" type="line" smooth="yes"/>
      <point x="772" y="1024"/>
      <point x="779" y="1040"/>
      <point x="790" y="1050"/>
      <point x="806" y="1054"/>
      <point x="817" y="1054" type="qcurve" smooth="yes"/>
      <point x="831" y="1054" type="line" smooth="yes"/>
      <point x="842" y="1054"/>
      <point x="856" y="1050"/>
      <point x="864" y="1040"/>
      <point x="866" y="1025"/>
      <point x="864" y="1014" type="qcurve" smooth="yes"/>
      <point x="840" y="876" type="line"/>
      <point x="1430" y="980" type="line"/>
      <point x="1448" y="1084" type="line" smooth="yes"/>
      <point x="1465" y="1185"/>
      <point x="1429" y="1314"/>
      <point x="1334" y="1389"/>
      <point x="1186" y="1418"/>
      <point x="1091" y="1418" type="qcurve" smooth="yes"/>
      <point x="679" y="1418" type="line" smooth="yes"/>
      <point x="585" y="1418"/>
      <point x="427" y="1389"/>
      <point x="307" y="1314"/>
      <point x="227" y="1185"/>
      <point x="210" y="1084" type="qcurve" smooth="yes"/>
      <point x="94" y="414" type="line" smooth="yes"/>
      <point x="92" y="401"/>
      <point x="83" y="382"/>
      <point x="68" y="370"/>
      <point x="49" y="364"/>
      <point x="36" y="364" type="qcurve" smooth="yes"/>
      <point x="-16" y="364" type="line"/>
    </contour>
    <contour>
      <point x="-79" y="0" type="line"/>
      <point x="853" y="0" type="line" smooth="yes"/>
      <point x="952" y="0"/>
      <point x="1112" y="33"/>
      <point x="1231" y="111"/>
      <point x="1309" y="240"/>
      <point x="1325" y="336" type="qcurve" smooth="yes"/>
      <point x="1332" y="378" type="line"/>
      <point x="779" y="488" type="line"/>
      <point x="765" y="404" type="line" smooth="yes"/>
      <point x="763" y="394"/>
      <point x="756" y="378"/>
      <point x="744" y="369"/>
      <point x="729" y="364"/>
      <point x="718" y="364" type="qcurve" smooth="yes"/>
      <point x="-16" y="364" type="line"/>
    </contour>
  </outline>
  <guideline y="986"/>
  <guideline x="660"/>
</glyph>
<glyph name="currency" format="2">
  <advance width="1424" height="1448"/>
  <unicode hex="00A4"/>
  <outline>
    <contour>
      <point x="96" y="450" type="line"/>
      <point x="189" y="984" type="line" smooth="yes"/>
      <point x="200" y="1049"/>
      <point x="253" y="1145"/>
      <point x="339" y="1208"/>
      <point x="460" y="1238"/>
      <point x="539" y="1238" type="qcurve" smooth="yes"/>
      <point x="1075" y="1238" type="line" smooth="yes"/>
      <point x="1234" y="1238"/>
      <point x="1360" y="1115"/>
      <point x="1337" y="984" type="qcurve" smooth="yes"/>
      <point x="1244" y="450" type="line" smooth="yes"/>
      <point x="1232" y="381"/>
      <point x="1179" y="281"/>
      <point x="1093" y="217"/>
      <point x="972" y="186"/>
      <point x="891" y="186" type="qcurve" smooth="yes"/>
      <point x="355" y="186" type="line" smooth="yes"/>
      <point x="275" y="186"/>
      <point x="164" y="217"/>
      <point x="101" y="281"/>
      <point x="84" y="381"/>
      <point x="96" y="450" type="qcurve"/>
    </contour>
    <contour>
      <point x="640" y="568" type="line"/>
      <point x="640" y="568"/>
      <point x="640" y="568"/>
      <point x="640" y="568" type="qcurve"/>
      <point x="740" y="568" type="line"/>
      <point x="740" y="568"/>
      <point x="740" y="568"/>
      <point x="740" y="568" type="qcurve"/>
      <point x="790" y="856" type="line"/>
      <point x="790" y="856"/>
      <point x="790" y="856"/>
      <point x="790" y="856" type="qcurve"/>
      <point x="690" y="856" type="line"/>
      <point x="690" y="856"/>
      <point x="690" y="856"/>
      <point x="690" y="856" type="qcurve"/>
    </contour>
    <contour>
      <point x="1" y="-42" type="line"/>
      <point x="-140" y="129" type="line"/>
      <point x="375" y="568" type="line"/>
      <point x="516" y="397" type="line"/>
    </contour>
    <contour>
      <point x="63" y="1295" type="line"/>
      <point x="264" y="1466" type="line"/>
      <point x="626" y="1027" type="line"/>
      <point x="425" y="856" type="line"/>
    </contour>
    <contour>
      <point x="1430" y="1466" type="line"/>
      <point x="1571" y="1295" type="line"/>
      <point x="1055" y="856" type="line"/>
      <point x="914" y="1027" type="line"/>
    </contour>
    <contour>
      <point x="1368" y="129" type="line"/>
      <point x="1167" y="-42" type="line"/>
      <point x="804" y="397" type="line"/>
      <point x="1005" y="568" type="line"/>
    </contour>
  </outline>
</glyph>
<glyph name="yen" format="2">
  <advance width="1388"/>
  <unicode hex="00A5"/>
  <outline>
    <component base="Y" yxScale="0.1745" xOffset="-120"/>
    <contour>
      <point x="112" y="575" type="line"/>
      <point x="1236" y="575" type="line"/>
      <point x="1264" y="735" type="line"/>
      <point x="140" y="735" type="line"/>
    </contour>
    <contour>
      <point x="72" y="345" type="line"/>
      <point x="1196" y="345" type="line"/>
      <point x="1224" y="505" type="line"/>
      <point x="100" y="505" type="line"/>
    </contour>
  </outline>
  <guideline y="331"/>
  <guideline x="1281"/>
  <guideline y="331"/>
  <guideline x="1281"/>
</glyph>
<glyph name="section" format="2">
  <advance width="1403"/>
  <unicode hex="00A7"/>
  <outline>
    <contour>
      <point x="239" y="-150" type="line"/>
      <point x="853" y="-150" type="line" smooth="yes"/>
      <point x="918" y="-150"/>
      <point x="1025" y="-132"/>
      <point x="1105" y="-81"/>
      <point x="1159" y="10"/>
      <point x="1171" y="82" type="qcurve" smooth="yes"/>
      <point x="1209" y="298" type="line" smooth="yes"/>
      <point x="1211" y="308"/>
      <point x="1212" y="326"/>
      <point x="1213" y="335" type="qcurve"/>
      <point x="1236" y="350"/>
      <point x="1273" y="390"/>
      <point x="1303" y="441"/>
      <point x="1325" y="504"/>
      <point x="1332" y="542" type="qcurve" smooth="yes"/>
      <point x="1365" y="734" type="line" smooth="yes"/>
      <point x="1377" y="805"/>
      <point x="1354" y="903"/>
      <point x="1292" y="964"/>
      <point x="1194" y="992"/>
      <point x="1132" y="992" type="qcurve" smooth="yes"/>
      <point x="708" y="992" type="line"/>
      <point x="708" y="992"/>
      <point x="708" y="992"/>
      <point x="708" y="992" type="qcurve"/>
      <point x="732" y="1128" type="line"/>
      <point x="732" y="1128"/>
      <point x="732" y="1128"/>
      <point x="732" y="1128" type="qcurve"/>
      <point x="812" y="1128" type="line"/>
      <point x="812" y="1128"/>
      <point x="812" y="1128"/>
      <point x="812" y="1128" type="qcurve"/>
      <point x="800" y="1058" type="line"/>
      <point x="1342" y="1140" type="line"/>
      <point x="1349" y="1178" type="line" smooth="yes"/>
      <point x="1361" y="1247"/>
      <point x="1336" y="1334"/>
      <point x="1271" y="1382"/>
      <point x="1171" y="1400"/>
      <point x="1109" y="1400" type="qcurve" smooth="yes"/>
      <point x="537" y="1400" type="line" smooth="yes"/>
      <point x="475" y="1400"/>
      <point x="368" y="1382"/>
      <point x="285" y="1332"/>
      <point x="228" y="1244"/>
      <point x="216" y="1174" type="qcurve" smooth="yes"/>
      <point x="182" y="978" type="line" smooth="yes"/>
      <point x="180" y="967"/>
      <point x="178" y="946"/>
      <point x="176" y="935" type="qcurve"/>
      <point x="154" y="920"/>
      <point x="117" y="880"/>
      <point x="87" y="830"/>
      <point x="65" y="770"/>
      <point x="59" y="734" type="qcurve" smooth="yes"/>
      <point x="26" y="542" type="line" smooth="yes"/>
      <point x="13" y="471"/>
      <point x="34" y="372"/>
      <point x="95" y="311"/>
      <point x="193" y="284"/>
      <point x="257" y="284" type="qcurve" smooth="yes"/>
      <point x="663" y="284" type="line"/>
      <point x="663" y="284"/>
      <point x="663" y="284"/>
      <point x="663" y="284" type="qcurve"/>
      <point x="634" y="122" type="line"/>
      <point x="634" y="122"/>
      <point x="634" y="122"/>
      <point x="634" y="122" type="qcurve"/>
      <point x="554" y="122" type="line"/>
      <point x="554" y="122"/>
      <point x="554" y="122"/>
      <point x="554" y="122" type="qcurve"/>
      <point x="568" y="200" type="line"/>
      <point x="9" y="116" type="line"/>
      <point x="3" y="82" type="line" smooth="yes"/>
      <point x="-9" y="10"/>
      <point x="13" y="-81"/>
      <point x="75" y="-132"/>
      <point x="175" y="-150"/>
      <point x="239" y="-150" type="qcurve"/>
    </contour>
    <contour>
      <point x="552" y="556" type="line"/>
      <point x="552" y="556"/>
      <point x="552" y="556"/>
      <point x="552" y="556" type="qcurve"/>
      <point x="581" y="720" type="line"/>
      <point x="581" y="720"/>
      <point x="581" y="720"/>
      <point x="581" y="720" type="qcurve"/>
      <point x="819" y="720" type="line"/>
      <point x="819" y="720"/>
      <point x="819" y="720"/>
      <point x="819" y="720" type="qcurve"/>
      <point x="790" y="556" type="line"/>
      <point x="790" y="556"/>
      <point x="790" y="556"/>
      <point x="790" y="556" type="qcurve"/>
    </contour>
  </outline>
</glyph>
<glyph name="ordfeminine" format="2">
  <advance width="839"/>
  <unicode hex="00AA"/>
  <outline>
    <contour>
      <point x="212" y="597" type="line" smooth="yes"/>
      <point x="172" y="597"/>
      <point x="104" y="613"/>
      <point x="59" y="651"/>
      <point x="40" y="715"/>
      <point x="48" y="763" type="qcurve" smooth="yes"/>
      <point x="62" y="841" type="line" smooth="yes"/>
      <point x="70" y="889"/>
      <point x="111" y="950"/>
      <point x="170" y="986"/>
      <point x="243" y="1000"/>
      <point x="283" y="1000" type="qcurve" smooth="yes"/>
      <point x="507" y="1000" type="line"/>
      <point x="520" y="1077" type="line"/>
      <point x="520" y="1077"/>
      <point x="520" y="1077"/>
      <point x="520" y="1077" type="qcurve"/>
      <point x="466" y="1077" type="line"/>
      <point x="466" y="1077"/>
      <point x="466" y="1077"/>
      <point x="466" y="1077" type="qcurve"/>
      <point x="457" y="1028" type="line"/>
      <point x="128" y="1089" type="line"/>
      <point x="131" y="1107" type="line" smooth="yes"/>
      <point x="140" y="1160"/>
      <point x="180" y="1229"/>
      <point x="238" y="1269"/>
      <point x="312" y="1285"/>
      <point x="355" y="1285" type="qcurve" smooth="yes"/>
      <point x="703" y="1285" type="line" smooth="yes"/>
      <point x="746" y="1285"/>
      <point x="815" y="1270"/>
      <point x="858" y="1230"/>
      <point x="874" y="1160"/>
      <point x="865" y="1105" type="qcurve" smooth="yes"/>
      <point x="778" y="606" type="line"/>
      <point x="438" y="606" type="line"/>
      <point x="455" y="702" type="line"/>
      <point x="441" y="672"/>
      <point x="404" y="632"/>
      <point x="356" y="607"/>
      <point x="298" y="597"/>
      <point x="264" y="597" type="qcurve" smooth="yes"/>
    </contour>
    <contour>
      <point x="391" y="777" type="line"/>
      <point x="391" y="777"/>
      <point x="391" y="777"/>
      <point x="391" y="777" type="qcurve"/>
      <point x="468" y="777" type="line"/>
      <point x="480" y="848" type="line"/>
      <point x="403" y="848" type="line"/>
      <point x="403" y="848"/>
      <point x="403" y="848"/>
      <point x="403" y="848" type="qcurve"/>
    </contour>
  </outline>
  <guideline y="36"/>
  <guideline y="36"/>
</glyph>
<glyph name="logicalnot" format="2">
  <advance width="997"/>
  <unicode hex="00AC"/>
  <outline>
    <contour>
      <point x="866" y="232" type="line"/>
      <point x="544" y="232" type="line"/>
      <point x="618" y="652" type="line"/>
      <point x="46" y="652" type="line"/>
      <point x="96" y="942" type="line"/>
      <point x="990" y="942" type="line"/>
    </contour>
  </outline>
</glyph>
<glyph name="degree" format="2">
  <advance width="597"/>
  <unicode hex="00B0"/>
  <outline>
    <contour>
      <point x="114" y="1169" type="line"/>
      <point x="148" y="1364" type="line" smooth="yes"/>
      <point x="163" y="1450"/>
      <point x="272" y="1530"/>
      <point x="376" y="1530" type="qcurve" smooth="yes"/>
      <point x="517" y="1530" type="line" smooth="yes"/>
      <point x="622" y="1530"/>
      <point x="703" y="1450"/>
      <point x="688" y="1364" type="qcurve" smooth="yes"/>
      <point x="654" y="1169" type="line" smooth="yes"/>
      <point x="638" y="1079"/>
      <point x="531" y="996"/>
      <point x="424" y="996" type="qcurve" smooth="yes"/>
      <point x="283" y="996" type="line" smooth="yes"/>
      <point x="177" y="996"/>
      <point x="98" y="1078"/>
      <point x="114" y="1169" type="qcurve"/>
    </contour>
    <contour>
      <point x="346" y="1210" type="line"/>
      <point x="346" y="1210"/>
      <point x="346" y="1210"/>
      <point x="346" y="1210" type="qcurve"/>
      <point x="436" y="1210" type="line"/>
      <point x="436" y="1210"/>
      <point x="436" y="1210"/>
      <point x="436" y="1210" type="qcurve"/>
      <point x="455" y="1316" type="line"/>
      <point x="455" y="1316"/>
      <point x="455" y="1316"/>
      <point x="455" y="1316" type="qcurve"/>
      <point x="365" y="1316" type="line"/>
      <point x="365" y="1316"/>
      <point x="365" y="1316"/>
      <point x="365" y="1316" type="qcurve"/>
    </contour>
  </outline>
</glyph>
<glyph name="plusminus" format="2">
  <advance width="1002"/>
  <unicode hex="00B1"/>
  <outline>
    <contour>
      <point x="1003" y="979" type="line"/>
      <point x="952" y="689" type="line"/>
      <point x="660" y="689" type="line"/>
      <point x="608" y="387" type="line"/>
      <point x="296" y="387" type="line"/>
      <point x="348" y="689" type="line"/>
      <point x="52" y="689" type="line"/>
      <point x="103" y="979" type="line"/>
      <point x="399" y="979" type="line"/>
      <point x="451" y="1280" type="line"/>
      <point x="763" y="1280" type="line"/>
      <point x="711" y="979" type="line"/>
    </contour>
    <contour>
      <point x="-64" y="0" type="line"/>
      <point x="-14" y="290" type="line"/>
      <point x="880" y="290" type="line"/>
      <point x="830" y="0" type="line"/>
    </contour>
  </outline>
</glyph>
<glyph name="uni00B5" format="2">
  <advance width="1273"/>
  <unicode hex="00B5"/>
  <outline>
    <contour>
      <point x="-128" y="-428" type="line"/>
      <point x="301" y="-378" type="line"/>
      <point x="372" y="29" type="line"/>
      <point x="379" y="5"/>
      <point x="422" y="-14"/>
      <point x="446" y="-14" type="qcurve"/>
      <point x="448" y="-14" type="line"/>
      <point x="471" y="-14"/>
      <point x="511" y="3"/>
      <point x="548" y="42"/>
      <point x="583" y="104"/>
      <point x="600" y="150" type="qcurve"/>
      <point x="574" y="0" type="line"/>
      <point x="1088" y="0" type="line"/>
      <point x="1267" y="1024" type="line"/>
      <point x="753" y="1024" type="line"/>
      <point x="637" y="362" type="line"/>
      <point x="637" y="362"/>
      <point x="637" y="362"/>
      <point x="637" y="362"/>
      <point x="637" y="362"/>
      <point x="637" y="362" type="qcurve"/>
      <point x="524" y="362" type="line"/>
      <point x="524" y="362"/>
      <point x="524" y="362"/>
      <point x="524" y="362"/>
      <point x="524" y="362"/>
      <point x="524" y="362" type="qcurve"/>
      <point x="640" y="1024" type="line"/>
      <point x="126" y="1024" type="line"/>
    </contour>
  </outline>
</glyph>
<glyph name="paragraph" format="2">
  <advance width="1009"/>
  <unicode hex="00B6"/>
  <outline>
    <contour>
      <point x="809" y="0" type="line"/>
      <point x="617" y="0" type="line"/>
      <point x="833" y="1238" type="line"/>
      <point x="745" y="1238" type="line"/>
      <point x="529" y="0" type="line"/>
      <point x="337" y="0" type="line"/>
      <point x="400" y="360" type="line"/>
      <point x="375" y="360" type="line" smooth="yes"/>
      <point x="280" y="360"/>
      <point x="132" y="387"/>
      <point x="37" y="459"/>
      <point x="0" y="586"/>
      <point x="18" y="686" type="qcurve" smooth="yes"/>
      <point x="84" y="1066" type="line" smooth="yes"/>
      <point x="102" y="1167"/>
      <point x="183" y="1296"/>
      <point x="304" y="1371"/>
      <point x="461" y="1400"/>
      <point x="556" y="1400" type="qcurve" smooth="yes"/>
      <point x="1053" y="1400" type="line"/>
    </contour>
  </outline>
  <guideline angle="90" color="0.4,0.4,0.4,1" name="halfwidth" x="504" y="0"/>
</glyph>
<glyph name="ordmasculine" format="2">
  <advance width="838"/>
  <unicode hex="00BA"/>
  <outline>
    <contour>
      <point x="58" y="769" type="line"/>
      <point x="119" y="1120" type="line" smooth="yes"/>
      <point x="134" y="1205"/>
      <point x="243" y="1285"/>
      <point x="348" y="1285" type="qcurve" smooth="yes"/>
      <point x="702" y="1285" type="line" smooth="yes"/>
      <point x="807" y="1285"/>
      <point x="888" y="1205"/>
      <point x="873" y="1120" type="qcurve" smooth="yes"/>
      <point x="812" y="769" type="line" smooth="yes"/>
      <point x="796" y="679"/>
      <point x="688" y="597"/>
      <point x="582" y="597" type="qcurve" smooth="yes"/>
      <point x="228" y="597" type="line" smooth="yes"/>
      <point x="122" y="597"/>
      <point x="42" y="678"/>
      <point x="58" y="769" type="qcurve"/>
    </contour>
    <contour>
      <point x="411" y="845" type="line"/>
      <point x="411" y="845"/>
      <point x="411" y="845"/>
      <point x="411" y="845" type="qcurve"/>
      <point x="485" y="845" type="line"/>
      <point x="485" y="845"/>
      <point x="485" y="845"/>
      <point x="485" y="845" type="qcurve"/>
      <point x="519" y="1037" type="line"/>
      <point x="519" y="1037"/>
      <point x="519" y="1037"/>
      <point x="519" y="1037" type="qcurve"/>
      <point x="445" y="1037" type="line"/>
      <point x="445" y="1037"/>
      <point x="445" y="1037"/>
      <point x="445" y="1037" type="qcurve"/>
    </contour>
  </outline>
</glyph>
<glyph name="AE" format="2">
  <advance width="1969"/>
  <unicode hex="00C6"/>
  <anchor x="1268" y="1550" name="top"/>
  <anchor x="801" y="-150" name="bottom"/>
  <outline>
    <contour>
      <point x="-130" y="0" type="line"/>
      <point x="536" y="1400" type="line"/>
      <point x="2013" y="1400" type="line"/>
      <point x="1939" y="976" type="line"/>
      <point x="1515" y="976" type="line"/>
      <point x="1500" y="890" type="line"/>
      <point x="1884" y="890" type="line"/>
      <point x="1820" y="520" type="line"/>
      <point x="1436" y="520" type="line"/>
      <point x="1419" y="424" type="line"/>
      <point x="1857" y="424" type="line"/>
      <point x="1783" y="0" type="line"/>
      <point x="773" y="0" type="line"/>
      <point x="788" y="84" type="line"/>
      <point x="502" y="84" type="line"/>
      <point x="465" y="0" type="line"/>
    </contour>
    <contour>
      <point x="657" y="444" type="line"/>
      <point x="850" y="444" type="line"/>
      <point x="940" y="956" type="line"/>
      <point x="879" y="956" type="line"/>
    </contour>
  </outline>
</glyph>
<glyph name="Eth" format="2">
  <advance width="1354"/>
  <unicode hex="00D0"/>
  <anchor x="609" y="1550" name="top"/>
  <anchor x="609" y="-150" name="bottom"/>
  <outline>
    <contour>
      <point x="-40" y="0" type="line"/>
      <point x="56" y="550" type="line"/>
      <point x="-2" y="550" type="line"/>
      <point x="52" y="862" type="line"/>
      <point x="110" y="862" type="line"/>
      <point x="204" y="1400" type="line"/>
      <point x="791" y="1400" type="line" smooth="yes"/>
      <point x="902" y="1400"/>
      <point x="1079" y="1352"/>
      <point x="1211" y="1261"/>
      <point x="1300" y="1128"/>
      <point x="1345" y="958"/>
      <point x="1347" y="753"/>
      <point x="1326" y="635" type="qcurve" smooth="yes"/>
      <point x="1304" y="510"/>
      <point x="1227" y="318"/>
      <point x="1121" y="177"/>
      <point x="986" y="82"/>
      <point x="828" y="24"/>
      <point x="647" y="0"/>
      <point x="547" y="0" type="qcurve" smooth="yes"/>
    </contour>
    <contour>
      <point x="609" y="444" type="line"/>
      <point x="619" y="444" type="line" smooth="yes"/>
      <point x="637" y="444"/>
      <point x="669" y="457"/>
      <point x="698" y="484"/>
      <point x="724" y="526"/>
      <point x="746" y="584"/>
      <point x="766" y="659"/>
      <point x="774" y="706" type="qcurve" smooth="yes"/>
      <point x="782" y="752"/>
      <point x="788" y="825"/>
      <point x="785" y="880"/>
      <point x="773" y="920"/>
      <point x="753" y="945"/>
      <point x="726" y="956"/>
      <point x="709" y="956" type="qcurve" smooth="yes"/>
      <point x="699" y="956" type="line"/>
      <point x="682" y="862" type="line"/>
      <point x="721" y="862" type="line"/>
      <point x="667" y="550" type="line"/>
      <point x="628" y="550" type="line"/>
    </contour>
  </outline>
</glyph>
<glyph name="multiply" format="2">
  <advance width="995"/>
  <unicode hex="00D7"/>
  <outline>
    <contour>
      <point x="171" y="89" type="line"/>
      <point x="-20" y="271" type="line"/>
      <point x="294" y="589" type="line"/>
      <point x="90" y="906" type="line"/>
      <point x="344" y="1089" type="line"/>
      <point x="520" y="816" type="line"/>
      <point x="790" y="1089" type="line"/>
      <point x="982" y="906" type="line"/>
      <point x="667" y="589" type="line"/>
      <point x="871" y="272" type="line"/>
      <point x="616" y="89" type="line"/>
      <point x="441" y="361" type="line"/>
    </contour>
  </outline>
  <guideline x="157" y="75" angle="45.2076" color="1,0,0,1"/>
  <guideline x="90" y="906" angle="302.774" color="1,0,0,1"/>
  <guideline x="383" y="1478" angle="316.317"/>
  <guideline x="90" y="906" angle="215.595"/>
</glyph>
<glyph name="Oslash" format="2">
  <advance width="1457"/>
  <unicode hex="00D8"/>
  <anchor x="889" y="1610" name="top"/>
  <outline>
    <contour>
      <point x="175.017" y="1084" type="line"/>
      <point x="43.0165" y="328" type="line" smooth="yes"/>
      <point x="25.0165" y="225"/>
      <point x="56.0165" y="91"/>
      <point x="148.017" y="13"/>
      <point x="296.017" y="-18"/>
      <point x="395.017" y="-18" type="qcurve" smooth="yes"/>
      <point x="813.017" y="-18" type="line" smooth="yes"/>
      <point x="912.017" y="-18"/>
      <point x="1071.02" y="13"/>
      <point x="1191.02" y="91"/>
      <point x="1269.02" y="225"/>
      <point x="1287.02" y="328" type="qcurve" smooth="yes"/>
      <point x="1419.02" y="1084" type="line" smooth="yes"/>
      <point x="1437.02" y="1185"/>
      <point x="1401.02" y="1314"/>
      <point x="1306.02" y="1389"/>
      <point x="1158.02" y="1418"/>
      <point x="1063.02" y="1418" type="qcurve" smooth="yes"/>
      <point x="645.017" y="1418" type="line" smooth="yes"/>
      <point x="551.017" y="1418"/>
      <point x="393.017" y="1389"/>
      <point x="273.017" y="1314"/>
      <point x="193.017" y="1185"/>
      <point x="175.017" y="1084" type="qcurve"/>
    </contour>
    <contour>
      <point x="703.017" y="946" type="line"/>
      <point x="703.017" y="946"/>
      <point x="703.017" y="946"/>
      <point x="703.017" y="946"/>
      <point x="703.017" y="946"/>
      <point x="703.017" y="946" type="qcurve"/>
      <point x="843.017" y="946" type="line"/>
      <point x="843.017" y="946"/>
      <point x="843.017" y="946"/>
      <point x="843.017" y="946"/>
      <point x="843.017" y="946"/>
      <point x="843.017" y="946" type="qcurve"/>
      <point x="757.017" y="454" type="line"/>
      <point x="757.017" y="454"/>
      <point x="757.017" y="454"/>
      <point x="757.017" y="454"/>
      <point x="757.017" y="454"/>
      <point x="757.017" y="454" type="qcurve"/>
      <point x="617.017" y="454" type="line"/>
      <point x="617.017" y="454"/>
      <point x="617.017" y="454"/>
      <point x="617.017" y="454"/>
      <point x="617.017" y="454"/>
      <point x="617.017" y="454" type="qcurve"/>
    </contour>
    <contour>
      <point x="69.0165" y="-60" type="line"/>
      <point x="307.017" y="173" type="line"/>
      <point x="465.017" y="296" type="line"/>
      <point x="1124.02" y="1001" type="line"/>
      <point x="1271.02" y="1112" type="line"/>
      <point x="1510.02" y="1344" type="line"/>
      <point x="1392.02" y="1460" type="line"/>
      <point x="1158.02" y="1232" type="line"/>
      <point x="1001.02" y="1113" type="line"/>
      <point x="343.017" y="409" type="line"/>
      <point x="195.017" y="294" type="line"/>
      <point x="-48.9835" y="56" type="line"/>
    </contour>
  </outline>
  <guideline y="-60"/>
  <guideline y="-60"/>
  <guideline y="1460"/>
</glyph>
<glyph name="Thorn" format="2">
  <advance width="1361.54"/>
  <unicode hex="00DE"/>
  <outline>
    <contour>
      <point x="-52" y="0" type="line"/>
      <point x="520" y="0" type="line"/>
      <point x="550" y="170" type="line"/>
      <point x="800" y="170" type="line" smooth="yes"/>
      <point x="895" y="170"/>
      <point x="1052" y="197"/>
      <point x="1173" y="269"/>
      <point x="1253" y="396"/>
      <point x="1271" y="496" type="qcurve" smooth="yes"/>
      <point x="1345" y="922" type="line" smooth="yes"/>
      <point x="1363" y="1023"/>
      <point x="1327" y="1152"/>
      <point x="1232" y="1227"/>
      <point x="1084" y="1256"/>
      <point x="989" y="1256" type="qcurve" smooth="yes"/>
      <point x="739" y="1256" type="line"/>
      <point x="764" y="1400" type="line"/>
      <point x="192" y="1400" type="line"/>
    </contour>
    <contour>
      <point x="630" y="630" type="line"/>
      <point x="654" y="770" type="line"/>
      <point x="709" y="770" type="line" smooth="yes"/>
      <point x="726" y="770"/>
      <point x="748" y="761"/>
      <point x="760" y="746"/>
      <point x="762" y="724"/>
      <point x="760" y="710" type="qcurve"/>
      <point x="756" y="690" type="line"/>
      <point x="754" y="677"/>
      <point x="744" y="654"/>
      <point x="727" y="639"/>
      <point x="702" y="630"/>
      <point x="685" y="630" type="qcurve" smooth="yes"/>
    </contour>
  </outline>
  <guideline angle="90" color="0.4,0.4,0.4,1" name="halfwidth" x="680.77" y="0"/>
</glyph>
<glyph name="germandbls" format="2">
  <advance width="1258"/>
  <unicode hex="00DF"/>
  <outline>
    <contour>
      <point x="676" y="916" type="line"/>
      <point x="944" y="916" type="line" smooth="yes"/>
      <point x="1025" y="916"/>
      <point x="1146" y="947"/>
      <point x="1232" y="1011"/>
      <point x="1284" y="1111"/>
      <point x="1296" y="1180" type="qcurve" smooth="yes"/>
      <point x="1305" y="1228" type="line" smooth="yes"/>
      <point x="1328" y="1359"/>
      <point x="1202" y="1482"/>
      <point x="1043" y="1482" type="qcurve" smooth="yes"/>
      <point x="507" y="1482" type="line" smooth="yes"/>
      <point x="428" y="1482"/>
      <point x="307" y="1452"/>
      <point x="221" y="1389"/>
      <point x="168" y="1293"/>
      <point x="157" y="1228" type="qcurve" smooth="yes"/>
      <point x="-58" y="0" type="line"/>
      <point x="467" y="0" type="line"/>
      <point x="672" y="1180" type="line"/>
      <point x="672" y="1180"/>
      <point x="672" y="1180"/>
      <point x="672" y="1180" type="qcurve"/>
      <point x="772" y="1180" type="line"/>
      <point x="772" y="1180"/>
      <point x="772" y="1180"/>
      <point x="772" y="1180" type="qcurve"/>
      <point x="745" y="1024" type="line"/>
      <point x="745" y="1024"/>
      <point x="745" y="1024"/>
      <point x="745" y="1024" type="qcurve"/>
      <point x="695" y="1024" type="line"/>
    </contour>
    <contour>
      <point x="505" y="-10" type="line"/>
      <point x="811" y="-10" type="line" smooth="yes"/>
      <point x="876" y="-10"/>
      <point x="983" y="9"/>
      <point x="1063" y="60"/>
      <point x="1117" y="150"/>
      <point x="1129" y="222" type="qcurve" smooth="yes"/>
      <point x="1222" y="752" type="line" smooth="yes"/>
      <point x="1234" y="823"/>
      <point x="1209" y="910"/>
      <point x="1144" y="958"/>
      <point x="1044" y="974"/>
      <point x="982" y="974" type="qcurve" smooth="yes"/>
      <point x="686" y="974" type="line"/>
      <point x="629" y="642" type="line"/>
      <point x="679" y="642" type="line"/>
      <point x="679" y="642"/>
      <point x="679" y="642"/>
      <point x="679" y="642" type="qcurve"/>
      <point x="631" y="372" type="line"/>
      <point x="631" y="372"/>
      <point x="631" y="372"/>
      <point x="631" y="372" type="qcurve"/>
      <point x="571" y="372" type="line"/>
    </contour>
  </outline>
</glyph>
<glyph name="ae" format="2">
  <advance width="1891"/>
  <unicode hex="00E6"/>
  <anchor x="1045" y="1174" name="top"/>
  <anchor x="794" y="-150" name="bottom"/>
  <outline>
    <contour>
      <point x="201.731" y="-14" type="line"/>
      <point x="550.731" y="-14" type="line" smooth="yes"/>
      <point x="628.731" y="-14"/>
      <point x="748.731" y="31"/>
      <point x="788.731" y="78" type="qcurve"/>
      <point x="819.731" y="28"/>
      <point x="957.731" y="-14"/>
      <point x="1054.73" y="-14" type="qcurve" smooth="yes"/>
      <point x="1433.73" y="-14" type="line" smooth="yes"/>
      <point x="1498.73" y="-14"/>
      <point x="1605.73" y="14"/>
      <point x="1687.73" y="76"/>
      <point x="1742.73" y="176"/>
      <point x="1754.73" y="248" type="qcurve" smooth="yes"/>
      <point x="1760.73" y="282" type="line"/>
      <point x="1255.73" y="366" type="line"/>
      <point x="1241.73" y="288" type="line"/>
      <point x="1241.73" y="288"/>
      <point x="1241.73" y="288"/>
      <point x="1241.73" y="288" type="qcurve"/>
      <point x="1131.73" y="288" type="line"/>
      <point x="1131.73" y="288"/>
      <point x="1131.73" y="288"/>
      <point x="1131.73" y="288" type="qcurve"/>
      <point x="1152.73" y="404" type="line"/>
      <point x="1784.73" y="404" type="line"/>
      <point x="1855.73" y="812" type="line" smooth="yes"/>
      <point x="1867.73" y="882"/>
      <point x="1841.73" y="970"/>
      <point x="1775.73" y="1020"/>
      <point x="1674.73" y="1038"/>
      <point x="1612.73" y="1038" type="qcurve" smooth="yes"/>
      <point x="1297.73" y="1038" type="line" smooth="yes"/>
      <point x="1219.73" y="1038"/>
      <point x="1098.73" y="997"/>
      <point x="1057.73" y="953" type="qcurve"/>
      <point x="1033.73" y="996"/>
      <point x="929.731" y="1038"/>
      <point x="853.731" y="1038" type="qcurve" smooth="yes"/>
      <point x="398.731" y="1038" type="line" smooth="yes"/>
      <point x="336.731" y="1038"/>
      <point x="229.731" y="1011"/>
      <point x="145.731" y="951"/>
      <point x="88.731" y="855"/>
      <point x="76.731" y="786" type="qcurve" smooth="yes"/>
      <point x="70.731" y="748" type="line"/>
      <point x="583.731" y="666" type="line"/>
      <point x="595.731" y="736" type="line"/>
      <point x="595.731" y="736"/>
      <point x="595.731" y="736"/>
      <point x="595.731" y="736" type="qcurve"/>
      <point x="685.731" y="736" type="line"/>
      <point x="685.731" y="736"/>
      <point x="685.731" y="736"/>
      <point x="685.731" y="736" type="qcurve"/>
      <point x="667.731" y="628" type="line"/>
      <point x="313.731" y="628" type="line" smooth="yes"/>
      <point x="251.731" y="628"/>
      <point x="145.731" y="612"/>
      <point x="64.731" y="564"/>
      <point x="8.73098" y="477"/>
      <point x="-3.26902" y="406" type="qcurve" smooth="yes"/>
      <point x="-36.269" y="218" type="line" smooth="yes"/>
      <point x="-48.269" y="146"/>
      <point x="-26.269" y="56"/>
      <point x="36.731" y="5"/>
      <point x="136.731" y="-14"/>
      <point x="201.731" y="-14" type="qcurve"/>
    </contour>
    <contour>
      <point x="519.731" y="288" type="line"/>
      <point x="519.731" y="288"/>
      <point x="519.731" y="288"/>
      <point x="519.731" y="288" type="qcurve"/>
      <point x="540.731" y="404" type="line"/>
      <point x="540.731" y="404"/>
      <point x="540.731" y="404"/>
      <point x="540.731" y="404" type="qcurve"/>
      <point x="628.731" y="404" type="line"/>
      <point x="607.731" y="288" type="line"/>
      <point x="607.731" y="288"/>
      <point x="607.731" y="288"/>
      <point x="607.731" y="288" type="qcurve"/>
    </contour>
    <contour>
      <point x="1191.73" y="628" type="line"/>
      <point x="1209.73" y="736" type="line"/>
      <point x="1209.73" y="736"/>
      <point x="1209.73" y="736"/>
      <point x="1209.73" y="736" type="qcurve"/>
      <point x="1317.73" y="736" type="line"/>
      <point x="1317.73" y="736"/>
      <point x="1317.73" y="736"/>
      <point x="1317.73" y="736" type="qcurve"/>
      <point x="1299.73" y="628" type="line"/>
    </contour>
  </outline>
  <guideline x="1785" y="404" angle="260.098" color="1,0,0,1"/>
  <guideline x="1300" y="628" angle="260.091" color="1,0,0,1"/>
</glyph>
<glyph name="eth" format="2">
  <advance width="1353"/>
  <unicode hex="00F0"/>
  <outline>
    <contour>
      <point x="241" y="-14" type="line"/>
      <point x="777" y="-14" type="line" smooth="yes"/>
      <point x="858" y="-14"/>
      <point x="979" y="17"/>
      <point x="1065" y="81"/>
      <point x="1117" y="181"/>
      <point x="1129" y="250" type="qcurve" smooth="yes"/>
      <point x="1174" y="510" type="line" smooth="yes"/>
      <point x="1193" y="619"/>
      <point x="1209" y="808"/>
      <point x="1206" y="971"/>
      <point x="1183" y="1108"/>
      <point x="1162" y="1165" type="qcurve"/>
      <point x="1389" y="1212" type="line"/>
      <point x="1383" y="1375" type="line"/>
      <point x="1076" y="1312" type="line"/>
      <point x="1016" y="1381"/>
      <point x="848" y="1462"/>
      <point x="740" y="1482" type="qcurve"/>
      <point x="360" y="1349" type="line"/>
      <point x="455" y="1329"/>
      <point x="584" y="1263"/>
      <point x="627" y="1220" type="qcurve"/>
      <point x="308" y="1154" type="line"/>
      <point x="314" y="991" type="line"/>
      <point x="709" y="1072" type="line"/>
      <point x="716" y="1040"/>
      <point x="721" y="972"/>
      <point x="720" y="938" type="qcurve"/>
      <point x="407" y="938" type="line" smooth="yes"/>
      <point x="327" y="938"/>
      <point x="206" y="908"/>
      <point x="120" y="845"/>
      <point x="67" y="749"/>
      <point x="56" y="684" type="qcurve" smooth="yes"/>
      <point x="-19" y="250" type="line" smooth="yes"/>
      <point x="-31" y="181"/>
      <point x="-13" y="81"/>
      <point x="50" y="17"/>
      <point x="161" y="-14"/>
      <point x="241" y="-14" type="qcurve"/>
    </contour>
    <contour>
      <point x="658" y="556" type="line"/>
      <point x="658" y="556"/>
      <point x="658" y="556"/>
      <point x="658" y="556" type="qcurve"/>
      <point x="625" y="368" type="line"/>
      <point x="625" y="368"/>
      <point x="625" y="368"/>
      <point x="625" y="368" type="qcurve"/>
      <point x="525" y="368" type="line"/>
      <point x="525" y="368"/>
      <point x="525" y="368"/>
      <point x="525" y="368" type="qcurve"/>
      <point x="558" y="556" type="line"/>
      <point x="558" y="556"/>
      <point x="558" y="556"/>
      <point x="558" y="556" type="qcurve"/>
    </contour>
  </outline>
</glyph>
<glyph name="divide" format="2">
  <advance width="996.277"/>
  <unicode hex="00F7"/>
  <outline>
    <contour>
      <point x="392" y="911" type="line"/>
      <point x="413" y="1034" type="line" smooth="yes"/>
      <point x="419" y="1066"/>
      <point x="432" y="1103"/>
      <point x="458" y="1122"/>
      <point x="503" y="1127"/>
      <point x="541" y="1127" type="qcurve" smooth="yes"/>
      <point x="609" y="1127" type="line" smooth="yes"/>
      <point x="648" y="1127"/>
      <point x="692" y="1122"/>
      <point x="711" y="1103"/>
      <point x="711" y="1066"/>
      <point x="705" y="1034" type="qcurve" smooth="yes"/>
      <point x="684" y="911" type="line" smooth="yes"/>
      <point x="679" y="879"/>
      <point x="666" y="841"/>
      <point x="640" y="822"/>
      <point x="594" y="817"/>
      <point x="555" y="817" type="qcurve" smooth="yes"/>
      <point x="487" y="817" type="line" smooth="yes"/>
      <point x="449" y="817"/>
      <point x="405" y="822"/>
      <point x="386" y="841"/>
      <point x="387" y="878"/>
      <point x="392" y="911" type="qcurve"/>
    </contour>
    <contour>
      <point x="8" y="442" type="line"/>
      <point x="59" y="732" type="line"/>
      <point x="953" y="732" type="line"/>
      <point x="902" y="442" type="line"/>
    </contour>
    <contour>
      <point x="257" y="135" type="line"/>
      <point x="278" y="258" type="line" smooth="yes"/>
      <point x="284" y="290"/>
      <point x="297" y="327"/>
      <point x="322" y="346"/>
      <point x="367" y="351"/>
      <point x="405" y="351" type="qcurve" smooth="yes"/>
      <point x="473" y="351" type="line" smooth="yes"/>
      <point x="512" y="351"/>
      <point x="556" y="346"/>
      <point x="576" y="327"/>
      <point x="576" y="290"/>
      <point x="570" y="258" type="qcurve" smooth="yes"/>
      <point x="549" y="135" type="line" smooth="yes"/>
      <point x="544" y="103"/>
      <point x="531" y="65"/>
      <point x="504" y="46"/>
      <point x="458" y="41"/>
      <point x="419" y="41" type="qcurve" smooth="yes"/>
      <point x="351" y="41" type="line" smooth="yes"/>
      <point x="313" y="41"/>
      <point x="270" y="46"/>
      <point x="250" y="65"/>
      <point x="251" y="102"/>
      <point x="257" y="135" type="qcurve"/>
    </contour>
  </outline>
</glyph>
<glyph name="oslash" format="2">
  <advance width="1269" height="1448"/>
  <unicode hex="00F8"/>
  <anchor x="720" y="1174" name="top"/>
  <outline>
    <contour>
      <point x="-15.5728" y="250" type="line"/>
      <point x="77.4272" y="784" type="line" smooth="yes"/>
      <point x="88.4272" y="849"/>
      <point x="141.427" y="945"/>
      <point x="227.427" y="1008"/>
      <point x="348.427" y="1038"/>
      <point x="427.427" y="1038" type="qcurve" smooth="yes"/>
      <point x="963.427" y="1038" type="line" smooth="yes"/>
      <point x="1122.43" y="1038"/>
      <point x="1248.43" y="915"/>
      <point x="1225.43" y="784" type="qcurve" smooth="yes"/>
      <point x="1132.43" y="250" type="line" smooth="yes"/>
      <point x="1120.43" y="181"/>
      <point x="1068.43" y="81"/>
      <point x="982.427" y="17"/>
      <point x="861.427" y="-14"/>
      <point x="780.427" y="-14" type="qcurve" smooth="yes"/>
      <point x="244.427" y="-14" type="line" smooth="yes"/>
      <point x="164.427" y="-14"/>
      <point x="53.4272" y="17"/>
      <point x="-9.57285" y="81"/>
      <point x="-27.5728" y="181"/>
      <point x="-15.5728" y="250" type="qcurve"/>
    </contour>
    <contour>
      <point x="495.427" y="348" type="line"/>
      <point x="495.427" y="348"/>
      <point x="495.427" y="348"/>
      <point x="495.427" y="348" type="qcurve"/>
      <point x="655.427" y="348" type="line"/>
      <point x="655.427" y="348"/>
      <point x="655.427" y="348"/>
      <point x="655.427" y="348" type="qcurve"/>
      <point x="712.427" y="676" type="line"/>
      <point x="712.427" y="676"/>
      <point x="712.427" y="676"/>
      <point x="712.427" y="676" type="qcurve"/>
      <point x="552.427" y="676" type="line"/>
      <point x="552.427" y="676"/>
      <point x="552.427" y="676"/>
      <point x="552.427" y="676" type="qcurve"/>
    </contour>
    <contour>
      <point x="-43.5728" y="-60" type="line"/>
      <point x="-126.573" y="64" type="line"/>
      <point x="149.427" y="264" type="line"/>
      <point x="306.427" y="388" type="line"/>
      <point x="832.427" y="770" type="line"/>
      <point x="981.427" y="868" type="line"/>
      <point x="1246.43" y="1060" type="line"/>
      <point x="1328.43" y="936" type="line"/>
      <point x="1059.43" y="741" type="line"/>
      <point x="911.427" y="644" type="line"/>
      <point x="384.427" y="261" type="line"/>
      <point x="225.427" y="136" type="line"/>
    </contour>
  </outline>
  <guideline y="1060"/>
  <guideline y="-60"/>
</glyph>
<glyph name="Hbar" format="2">
  <advance width="1502"/>
  <unicode hex="0126"/>
  <anchor x="903" y="1550" name="top"/>
  <anchor x="606" y="-150" name="bottom"/>
  <anchor x="32" y="700" name="left"/>
  <outline>
    <contour>
      <point x="10" y="0" type="line"/>
      <point x="582" y="0" type="line"/>
      <point x="826" y="1400" type="line"/>
      <point x="254" y="1400" type="line"/>
    </contour>
    <contour>
      <point x="682" y="0" type="line"/>
      <point x="1254" y="0" type="line"/>
      <point x="1498" y="1400" type="line"/>
      <point x="926" y="1400" type="line"/>
    </contour>
    <contour>
      <point x="636" y="482" type="line"/>
      <point x="796" y="482" type="line"/>
      <point x="851" y="794" type="line"/>
      <point x="691" y="794" type="line"/>
    </contour>
    <contour>
      <point x="66" y="894" type="line"/>
      <point x="1510" y="894" type="line"/>
      <point x="1564" y="1206" type="line"/>
      <point x="120" y="1206" type="line"/>
    </contour>
  </outline>
  <guideline y="1050" color="1,0,0,1"/>
</glyph>
<glyph name="hbar" format="2">
  <advance width="1329"/>
  <unicode hex="0127"/>
  <anchor x="543" y="1622" name="top"/>
  <anchor x="546" y="-150" name="bottom"/>
  <anchor x="-13" y="518" name="left"/>
  <outline>
    <contour>
      <point x="-2.40817" y="0" type="line"/>
      <point x="254.592" y="1472" type="line"/>
      <point x="778.592" y="1472" type="line"/>
      <point x="682.592" y="920" type="line"/>
      <point x="723.592" y="974"/>
      <point x="868.592" y="1024"/>
      <point x="986.592" y="1024" type="qcurve" smooth="yes"/>
      <point x="1016.59" y="1024" type="line" smooth="yes"/>
      <point x="1112.59" y="1024"/>
      <point x="1226.59" y="989"/>
      <point x="1281.59" y="915"/>
      <point x="1285.59" y="802"/>
      <point x="1271.59" y="724" type="qcurve" smooth="yes"/>
      <point x="1145.59" y="0" type="line"/>
      <point x="621.592" y="0" type="line"/>
      <point x="721.592" y="574" type="line"/>
      <point x="721.592" y="574"/>
      <point x="721.592" y="574"/>
      <point x="721.592" y="574" type="qcurve"/>
      <point x="621.592" y="574" type="line"/>
      <point x="521.592" y="0" type="line"/>
    </contour>
    <contour>
      <point x="137.592" y="1375" type="line"/>
      <point x="1047.59" y="1375" type="line"/>
      <point x="1000.59" y="1103" type="line"/>
      <point x="90.5918" y="1103" type="line"/>
    </contour>
  </outline>
  <guideline y="1251" color="1,0,0,1"/>
  <guideline x="672" y="574" angle="260.087" color="1,0,0,1"/>
</glyph>
<glyph name="Lslash" format="2">
  <advance width="1035"/>
  <unicode hex="0141"/>
  <outline>
    <contour>
      <point x="-40" y="0" type="line"/>
      <point x="204" y="1400" type="line"/>
      <point x="776" y="1400" type="line"/>
      <point x="616" y="484" type="line"/>
      <point x="976" y="484" type="line"/>
      <point x="892" y="0" type="line"/>
    </contour>
    <contour>
      <point x="897" y="921" type="line"/>
      <point x="869" y="761" type="line"/>
      <point x="-41" y="450" type="line"/>
      <point x="-14" y="610" type="line"/>
    </contour>
  </outline>
  <guideline x="131499"/>
  <guideline x="131219"/>
</glyph>
<glyph name="lslash" format="2">
  <advance width="689"/>
  <unicode hex="0142"/>
  <outline>
    <contour>
      <point x="-38" y="0" type="line"/>
      <point x="486" y="0" type="line"/>
      <point x="613" y="726" type="line"/>
      <point x="684" y="750" type="line"/>
      <point x="712" y="910" type="line"/>
      <point x="641" y="886" type="line"/>
      <point x="743" y="1472" type="line"/>
      <point x="219" y="1472" type="line"/>
      <point x="83" y="695" type="line"/>
      <point x="11" y="670" type="line"/>
      <point x="-17" y="510" type="line"/>
      <point x="55" y="535" type="line"/>
    </contour>
  </outline>
  <guideline x="131513"/>
  <guideline x="131233"/>
  <guideline y="724"/>
</glyph>
<glyph name="Eng" format="2">
  <advance width="1470"/>
  <unicode hex="014A"/>
  <outline>
    <contour>
      <point x="-40" y="0" type="line"/>
      <point x="492" y="0" type="line"/>
      <point x="570" y="446" type="line"/>
      <point x="886" y="0" type="line"/>
      <point x="1270" y="0" type="line"/>
      <point x="1514" y="1400" type="line"/>
      <point x="982" y="1400" type="line"/>
      <point x="904" y="951" type="line"/>
      <point x="586" y="1400" type="line"/>
      <point x="204" y="1400" type="line"/>
    </contour>
    <contour>
      <point x="565" y="-80" type="line"/>
      <point x="576" y="-428" type="line"/>
      <point x="935" y="-428" type="line" smooth="yes"/>
      <point x="994" y="-428"/>
      <point x="1098" y="-381"/>
      <point x="1181" y="-295"/>
      <point x="1239" y="-175"/>
      <point x="1252" y="-102" type="qcurve" smooth="yes"/>
      <point x="1270" y="0" type="line"/>
      <point x="802" y="200" type="line"/>
      <point x="752" y="-80" type="line"/>
      <point x="752" y="-80"/>
      <point x="752" y="-80"/>
      <point x="752" y="-80" type="qcurve"/>
    </contour>
  </outline>
  <guideline x="686"/>
  <guideline x="631"/>
</glyph>
<glyph name="eng" format="2">
  <advance width="1271"/>
  <unicode hex="014B"/>
  <anchor x="878" y="1174" name="top"/>
  <anchor x="495" y="-150" name="bottom"/>
  <anchor x="-64" y="518" name="left"/>
  <outline>
    <contour>
      <point x="-53" y="0" type="line"/>
      <point x="471" y="0" type="line"/>
      <point x="571" y="574" type="line"/>
      <point x="671" y="574" type="line"/>
      <point x="671" y="574"/>
      <point x="671" y="574"/>
      <point x="671" y="574" type="qcurve"/>
      <point x="557" y="-80" type="line"/>
      <point x="557" y="-80"/>
      <point x="557" y="-80"/>
      <point x="557" y="-80" type="qcurve"/>
      <point x="385" y="-80" type="line"/>
      <point x="396" y="-428" type="line"/>
      <point x="760" y="-428" type="line" smooth="yes"/>
      <point x="819" y="-428"/>
      <point x="923" y="-381"/>
      <point x="1006" y="-296"/>
      <point x="1064" y="-176"/>
      <point x="1077" y="-102" type="qcurve" smooth="yes"/>
      <point x="1224" y="738" type="line" smooth="yes"/>
      <point x="1238" y="816"/>
      <point x="1233" y="929"/>
      <point x="1178" y="1003"/>
      <point x="1064" y="1038"/>
      <point x="968" y="1038" type="qcurve" smooth="yes"/>
      <point x="938" y="1038" type="line" smooth="yes"/>
      <point x="820" y="1038"/>
      <point x="676" y="988"/>
      <point x="634" y="934" type="qcurve"/>
      <point x="650" y="1024" type="line"/>
      <point x="126" y="1024" type="line"/>
    </contour>
  </outline>
  <guideline x="521" y="-0" angle="260.104" color="1,0,0,1"/>
  <guideline x="209" y="-0" angle="260.032" color="1,0,0,1"/>
</glyph>
<glyph name="oe" format="2">
  <advance width="1903"/>
  <unicode hex="0153"/>
  <anchor x="2006" y="1174" name="top"/>
  <anchor x="1775" y="-150" name="bottom"/>
  <outline>
    <contour>
      <point x="213" y="-14" type="line"/>
      <point x="606" y="-14" type="line" smooth="yes"/>
      <point x="684" y="-14"/>
      <point x="804" y="31"/>
      <point x="844" y="78" type="qcurve"/>
      <point x="875" y="28"/>
      <point x="1013" y="-14"/>
      <point x="1110" y="-14" type="qcurve" smooth="yes"/>
      <point x="1445" y="-14" type="line" smooth="yes"/>
      <point x="1510" y="-14"/>
      <point x="1617" y="14"/>
      <point x="1699" y="76"/>
      <point x="1754" y="176"/>
      <point x="1766" y="248" type="qcurve" smooth="yes"/>
      <point x="1772" y="282" type="line"/>
      <point x="1267" y="366" type="line"/>
      <point x="1253" y="288" type="line"/>
      <point x="1253" y="288"/>
      <point x="1253" y="288"/>
      <point x="1253" y="288" type="qcurve"/>
      <point x="1143" y="288" type="line"/>
      <point x="1143" y="288"/>
      <point x="1143" y="288"/>
      <point x="1143" y="288" type="qcurve"/>
      <point x="1164" y="404" type="line"/>
      <point x="1796" y="404" type="line"/>
      <point x="1867" y="812" type="line" smooth="yes"/>
      <point x="1879" y="882"/>
      <point x="1853" y="970"/>
      <point x="1787" y="1020"/>
      <point x="1686" y="1038"/>
      <point x="1624" y="1038" type="qcurve" smooth="yes"/>
      <point x="1239" y="1038" type="line" smooth="yes"/>
      <point x="1161" y="1038"/>
      <point x="1040" y="997"/>
      <point x="999" y="953" type="qcurve"/>
      <point x="975" y="996"/>
      <point x="871" y="1038"/>
      <point x="795" y="1038" type="qcurve" smooth="yes"/>
      <point x="396" y="1038" type="line" smooth="yes"/>
      <point x="334" y="1038"/>
      <point x="227" y="1011"/>
      <point x="143" y="951"/>
      <point x="86" y="855"/>
      <point x="74" y="786" type="qcurve" smooth="yes"/>
      <point x="-25" y="218" type="line" smooth="yes"/>
      <point x="-37" y="146"/>
      <point x="-15" y="56"/>
      <point x="48" y="5"/>
      <point x="148" y="-14"/>
      <point x="213" y="-14" type="qcurve"/>
    </contour>
    <contour>
      <point x="1311" y="628" type="line"/>
      <point x="1203" y="628" type="line"/>
      <point x="1221" y="736" type="line"/>
      <point x="1221" y="736"/>
      <point x="1221" y="736"/>
      <point x="1221" y="736" type="qcurve"/>
      <point x="1329" y="736" type="line"/>
      <point x="1329" y="736"/>
      <point x="1329" y="736"/>
      <point x="1329" y="736" type="qcurve"/>
    </contour>
    <contour>
      <point x="529" y="288" type="line"/>
      <point x="607" y="736" type="line"/>
      <point x="607" y="736"/>
      <point x="607" y="736"/>
      <point x="607" y="736" type="qcurve"/>
      <point x="697" y="736" type="line"/>
      <point x="697" y="736"/>
      <point x="697" y="736"/>
      <point x="697" y="736" type="qcurve"/>
      <point x="619" y="288" type="line"/>
      <point x="619" y="288"/>
      <point x="619" y="288"/>
      <point x="619" y="288" type="qcurve"/>
      <point x="529" y="288" type="line"/>
      <point x="529" y="288"/>
      <point x="529" y="288"/>
      <point x="529" y="288" type="qcurve"/>
    </contour>
  </outline>
  <guideline x="831" y="-0" angle="260.101" color="1,0,0,1"/>
</glyph>
<glyph name="Tbar" format="2">
  <advance width="1175"/>
  <unicode hex="0166"/>
  <anchor x="740.858" y="1550" name="top"/>
  <anchor x="443.858" y="-150" name="bottom"/>
  <outline>
    <contour>
      <point x="152" y="1400" type="line"/>
      <point x="1276" y="1400" type="line"/>
      <point x="1192" y="916" type="line"/>
      <point x="916" y="916" type="line"/>
      <point x="895" y="794" type="line"/>
      <point x="1034" y="794" type="line"/>
      <point x="979" y="482" type="line"/>
      <point x="840" y="482" type="line"/>
      <point x="756" y="0" type="line"/>
      <point x="184" y="0" type="line"/>
      <point x="268" y="482" type="line"/>
      <point x="129" y="482" type="line"/>
      <point x="184" y="794" type="line"/>
      <point x="323" y="794" type="line"/>
      <point x="344" y="916" type="line"/>
      <point x="68" y="916" type="line"/>
    </contour>
  </outline>
</glyph>
<glyph name="tbar" format="2">
  <advance width="828.408"/>
  <unicode hex="0167"/>
  <anchor x="492.616" y="1394" name="top"/>
  <anchor x="220.616" y="-164" name="bottom"/>
  <outline>
    <contour>
      <point x="300" y="-14" type="line" smooth="yes"/>
      <point x="217" y="-14"/>
      <point x="105" y="14"/>
      <point x="42" y="76"/>
      <point x="25" y="173"/>
      <point x="38" y="242" type="qcurve" smooth="yes"/>
      <point x="65" y="396" type="line"/>
      <point x="-15" y="396" type="line"/>
      <point x="33" y="668" type="line"/>
      <point x="113" y="668" type="line"/>
      <point x="122" y="722" type="line"/>
      <point x="34" y="722" type="line"/>
      <point x="87" y="1024" type="line"/>
      <point x="175" y="1024" type="line"/>
      <point x="213" y="1244" type="line"/>
      <point x="737" y="1244" type="line"/>
      <point x="699" y="1024" type="line"/>
      <point x="863" y="1024" type="line"/>
      <point x="810" y="722" type="line"/>
      <point x="646" y="722" type="line"/>
      <point x="637" y="668" type="line"/>
      <point x="755" y="668" type="line"/>
      <point x="707" y="396" type="line"/>
      <point x="589" y="396" type="line"/>
      <point x="570" y="288" type="line"/>
      <point x="570" y="288"/>
      <point x="570" y="288"/>
      <point x="570" y="288" type="qcurve"/>
      <point x="729" y="288" type="line"/>
      <point x="627" y="-14" type="line"/>
    </contour>
  </outline>
</glyph>
<glyph name="uni018F" format="2">
  <advance width="1364"/>
  <unicode hex="018F"/>
  <anchor x="831" y="1568" name="top"/>
  <anchor x="528" y="-168" name="bottom"/>
  <outline>
    <contour>
      <point x="-7.89022" y="328" type="line"/>
      <point x="88.1098" y="874" type="line"/>
      <point x="1334.11" y="874" type="line"/>
      <point x="1269.11" y="504" type="line"/>
      <point x="555.11" y="504" type="line"/>
      <point x="538.11" y="406" type="line"/>
      <point x="538.11" y="406"/>
      <point x="538.11" y="406"/>
      <point x="538.11" y="406"/>
      <point x="538.11" y="406"/>
      <point x="538.11" y="406" type="qcurve"/>
      <point x="680.11" y="406" type="line"/>
      <point x="680.11" y="406"/>
      <point x="680.11" y="406"/>
      <point x="680.11" y="406"/>
      <point x="680.11" y="406"/>
      <point x="680.11" y="406" type="qcurve"/>
      <point x="782.11" y="994" type="line"/>
      <point x="782.11" y="994"/>
      <point x="782.11" y="994"/>
      <point x="782.11" y="994"/>
      <point x="782.11" y="994"/>
      <point x="782.11" y="994" type="qcurve"/>
      <point x="686.11" y="994" type="line"/>
      <point x="686.11" y="994"/>
      <point x="686.11" y="994"/>
      <point x="686.11" y="994"/>
      <point x="686.11" y="994"/>
      <point x="686.11" y="994" type="qcurve"/>
      <point x="674.11" y="924" type="line"/>
      <point x="120.11" y="1028" type="line"/>
      <point x="130.11" y="1084" type="line" smooth="yes"/>
      <point x="148.11" y="1185"/>
      <point x="229.11" y="1314"/>
      <point x="350.11" y="1389"/>
      <point x="508.11" y="1418"/>
      <point x="602.11" y="1418" type="qcurve" smooth="yes"/>
      <point x="1016.11" y="1418" type="line" smooth="yes"/>
      <point x="1111.11" y="1418"/>
      <point x="1258.11" y="1389"/>
      <point x="1352.11" y="1314"/>
      <point x="1388.11" y="1185"/>
      <point x="1370.11" y="1084" type="qcurve" smooth="yes"/>
      <point x="1238.11" y="328" type="line" smooth="yes"/>
      <point x="1220.11" y="225"/>
      <point x="1142.11" y="91"/>
      <point x="1024.11" y="13"/>
      <point x="865.11" y="-18"/>
      <point x="766.11" y="-18" type="qcurve" smooth="yes"/>
      <point x="346.11" y="-18" type="line" smooth="yes"/>
      <point x="247.11" y="-18"/>
      <point x="98.1098" y="13"/>
      <point x="6.10978" y="91"/>
      <point x="-25.8902" y="225"/>
      <point x="-7.89022" y="328" type="qcurve"/>
    </contour>
  </outline>
</glyph>
<glyph name="florin" format="2">
  <advance width="1301.98"/>
  <unicode hex="0192"/>
  <outline>
    <contour>
      <point x="-195" y="-428" type="line"/>
      <point x="-1" y="-80" type="line"/>
      <point x="162" y="-80" type="line"/>
      <point x="162" y="-80"/>
      <point x="162" y="-80"/>
      <point x="162" y="-80" type="qcurve"/>
      <point x="408" y="622" type="line"/>
      <point x="296" y="622" type="line"/>
      <point x="401" y="924" type="line"/>
      <point x="513" y="924" type="line"/>
      <point x="601" y="1176" type="line" smooth="yes"/>
      <point x="628" y="1254"/>
      <point x="707" y="1366"/>
      <point x="812" y="1438"/>
      <point x="941" y="1472"/>
      <point x="1019" y="1472" type="qcurve" smooth="yes"/>
      <point x="1442" y="1472" type="line"/>
      <point x="1286" y="1170" type="line"/>
      <point x="1123" y="1170" type="line"/>
      <point x="1123" y="1170"/>
      <point x="1123" y="1170"/>
      <point x="1123" y="1170" type="qcurve"/>
      <point x="1037" y="924" type="line"/>
      <point x="1185" y="924" type="line"/>
      <point x="1080" y="622" type="line"/>
      <point x="932" y="622" type="line"/>
      <point x="678" y="-102" type="line" smooth="yes"/>
      <point x="652" y="-176"/>
      <point x="573" y="-296"/>
      <point x="474" y="-381"/>
      <point x="362" y="-428"/>
      <point x="304" y="-428" type="qcurve" smooth="yes"/>
    </contour>
  </outline>
</glyph>
<glyph name="uni0237" format="2">
  <advance width="660"/>
  <unicode hex="0237"/>
  <anchor x="403" y="1174" name="top"/>
  <outline>
    <contour>
      <point x="-407.874" y="-80" type="line"/>
      <point x="-396.874" y="-428" type="line"/>
      <point x="148.126" y="-428" type="line" smooth="yes"/>
      <point x="207.126" y="-428"/>
      <point x="311.126" y="-381"/>
      <point x="394.126" y="-296"/>
      <point x="452.126" y="-176"/>
      <point x="465.126" y="-102" type="qcurve" smooth="yes"/>
      <point x="662.126" y="1024" type="line"/>
      <point x="138.126" y="1024" type="line"/>
      <point x="-54.874" y="-80" type="line"/>
      <point x="-54.874" y="-80"/>
      <point x="-54.874" y="-80"/>
      <point x="-54.874" y="-80" type="qcurve"/>
    </contour>
  </outline>
</glyph>
<glyph name="acutecomb" format="2">
  <unicode hex="0301"/>
  <anchor x="85" y="1174" name="_top"/>
  <anchor x="-176" y="1100" name="_topright"/>
  <outline>
    <contour>
      <point x="-236" y="1100" type="line"/>
      <point x="107" y="1448" type="line"/>
      <point x="656" y="1448" type="line"/>
      <point x="214" y="1100" type="line"/>
    </contour>
  </outline>
</glyph>
<glyph name="uni0302" format="2">
  <unicode hex="0302"/>
  <anchor x="85" y="1174" name="_top"/>
  <anchor x="159" y="1598" name="_bottom"/>
  <anchor x="551" y="1274" name="topright"/>
  <anchor x="150" y="1548" name="top"/>
  <outline>
    <contour>
      <point x="-375" y="1100" type="line"/>
      <point x="-82" y="1448" type="line"/>
      <point x="350" y="1448" type="line"/>
      <point x="521" y="1100" type="line"/>
      <point x="111" y="1100" type="line"/>
      <point x="90" y="1223" type="line"/>
      <point x="27" y="1100" type="line"/>
    </contour>
  </outline>
</glyph>
<glyph name="tildecomb" format="2">
  <unicode hex="0303"/>
  <anchor x="81" y="1150" name="_top"/>
  <anchor x="150" y="1547" name="top"/>
  <outline>
    <contour>
      <point x="-384" y="1125" type="line"/>
      <point x="-360" y="1203"/>
      <point x="-288" y="1322"/>
      <point x="-196" y="1402"/>
      <point x="-88" y="1442"/>
      <point x="-29" y="1442" type="qcurve" smooth="yes"/>
      <point x="1" y="1442"/>
      <point x="48" y="1434"/>
      <point x="89" y="1423"/>
      <point x="124" y="1410"/>
      <point x="158" y="1399"/>
      <point x="192" y="1391"/>
      <point x="212" y="1391" type="qcurve" smooth="yes"/>
      <point x="234" y="1391"/>
      <point x="265" y="1400"/>
      <point x="287" y="1414"/>
      <point x="301" y="1432"/>
      <point x="305" y="1442" type="qcurve"/>
      <point x="583" y="1394" type="line"/>
      <point x="561" y="1322"/>
      <point x="489" y="1204"/>
      <point x="397" y="1122"/>
      <point x="288" y="1077"/>
      <point x="229" y="1077" type="qcurve" smooth="yes"/>
      <point x="200" y="1077"/>
      <point x="152" y="1085"/>
      <point x="112" y="1096"/>
      <point x="77" y="1109"/>
      <point x="43" y="1120"/>
      <point x="8" y="1128"/>
      <point x="-12" y="1128" type="qcurve" smooth="yes"/>
      <point x="-34" y="1128"/>
      <point x="-65" y="1119"/>
      <point x="-87" y="1105"/>
      <point x="-101" y="1087"/>
      <point x="-105" y="1077" type="qcurve"/>
    </contour>
  </outline>
</glyph>
<glyph name="uni0304" format="2">
  <unicode hex="0304"/>
  <anchor x="85" y="1174" name="_top"/>
  <anchor x="143" y="1508" name="top"/>
  <outline>
    <contour>
      <point x="-303" y="1136" type="line"/>
      <point x="460" y="1136" type="line"/>
      <point x="508" y="1408" type="line"/>
      <point x="-255" y="1408" type="line"/>
    </contour>
  </outline>
  <guideline y="628"/>
</glyph>
<glyph name="uni0306" format="2">
  <unicode hex="0306"/>
  <anchor x="85" y="1174" name="_top"/>
  <anchor x="150" y="1549" name="top"/>
  <outline>
    <contour>
      <point x="-225" y="1449" type="line"/>
      <point x="-244" y="1339"/>
      <point x="-242" y="1202"/>
      <point x="-178" y="1126"/>
      <point x="-41" y="1099"/>
      <point x="74" y="1099" type="qcurve" smooth="yes"/>
      <point x="189" y="1099"/>
      <point x="335" y="1126"/>
      <point x="425" y="1202"/>
      <point x="474" y="1339"/>
      <point x="493" y="1449" type="qcurve"/>
      <point x="238" y="1449" type="line"/>
      <point x="231" y="1410"/>
      <point x="214" y="1362"/>
      <point x="186" y="1335"/>
      <point x="145" y="1325"/>
      <point x="113" y="1325" type="qcurve" smooth="yes"/>
      <point x="80" y="1325"/>
      <point x="41" y="1335"/>
      <point x="23" y="1362"/>
      <point x="23" y="1410"/>
      <point x="30" y="1449" type="qcurve"/>
    </contour>
  </outline>
</glyph>
<glyph name="uni0307" format="2">
  <unicode hex="0307"/>
  <anchor x="85" y="1174" name="_top"/>
  <anchor x="163" y="1622" name="_bottom"/>
  <anchor x="152" y="1560" name="top"/>
  <outline>
    <contour>
      <point x="-102" y="1225" type="line"/>
      <point x="-79" y="1357" type="line" smooth="yes"/>
      <point x="-72" y="1397"/>
      <point x="-61" y="1440"/>
      <point x="-36" y="1461"/>
      <point x="10" y="1465"/>
      <point x="50" y="1465" type="qcurve" smooth="yes"/>
      <point x="222" y="1465" type="line" smooth="yes"/>
      <point x="263" y="1465"/>
      <point x="306" y="1461"/>
      <point x="323" y="1440"/>
      <point x="320" y="1397"/>
      <point x="313" y="1357" type="qcurve" smooth="yes"/>
      <point x="290" y="1225" type="line" smooth="yes"/>
      <point x="283" y="1185"/>
      <point x="271" y="1140"/>
      <point x="247" y="1119"/>
      <point x="202" y="1115"/>
      <point x="161" y="1115" type="qcurve" smooth="yes"/>
      <point x="-11" y="1115" type="line" smooth="yes"/>
      <point x="-52" y="1115"/>
      <point x="-95" y="1119"/>
      <point x="-113" y="1140"/>
      <point x="-109" y="1185"/>
      <point x="-102" y="1225" type="qcurve"/>
    </contour>
  </outline>
</glyph>
<glyph name="uni0308" format="2">
  <unicode hex="0308"/>
  <anchor x="79" y="1172" name="_top"/>
  <anchor x="158" y="1622" name="_bottom"/>
  <anchor x="147" y="1560" name="top"/>
  <outline>
    <contour>
      <point x="-339" y="1220" type="line" smooth="yes"/>
      <point x="-346" y="1180"/>
      <point x="-350" y="1135"/>
      <point x="-332" y="1114"/>
      <point x="-289" y="1110"/>
      <point x="-248" y="1110" type="qcurve" smooth="yes"/>
      <point x="-116" y="1110" type="line" smooth="yes"/>
      <point x="-76" y="1110"/>
      <point x="-30" y="1114"/>
      <point x="-6" y="1135"/>
      <point x="6" y="1180"/>
      <point x="13" y="1220" type="qcurve" smooth="yes"/>
      <point x="35" y="1342" type="line" smooth="yes"/>
      <point x="42" y="1382"/>
      <point x="45" y="1425"/>
      <point x="28" y="1446"/>
      <point x="-16" y="1450"/>
      <point x="-56" y="1450" type="qcurve" smooth="yes"/>
      <point x="-188" y="1450" type="line" smooth="yes"/>
      <point x="-229" y="1450"/>
      <point x="-274" y="1446"/>
      <point x="-299" y="1425"/>
      <point x="-310" y="1382"/>
      <point x="-317" y="1342" type="qcurve" smooth="yes"/>
    </contour>
    <contour>
      <point x="161" y="1220" type="line" smooth="yes"/>
      <point x="154" y="1180"/>
      <point x="150" y="1135"/>
      <point x="168" y="1114"/>
      <point x="212" y="1110"/>
      <point x="252" y="1110" type="qcurve" smooth="yes"/>
      <point x="384" y="1110" type="line" smooth="yes"/>
      <point x="425" y="1110"/>
      <point x="470" y="1114"/>
      <point x="494" y="1135"/>
      <point x="506" y="1180"/>
      <point x="513" y="1220" type="qcurve" smooth="yes"/>
      <point x="535" y="1342" type="line" smooth="yes"/>
      <point x="542" y="1382"/>
      <point x="545" y="1425"/>
      <point x="528" y="1446"/>
      <point x="485" y="1450"/>
      <point x="444" y="1450" type="qcurve" smooth="yes"/>
      <point x="312" y="1450" type="line" smooth="yes"/>
      <point x="272" y="1450"/>
      <point x="226" y="1446"/>
      <point x="201" y="1425"/>
      <point x="190" y="1382"/>
      <point x="183" y="1342" type="qcurve" smooth="yes"/>
    </contour>
  </outline>
</glyph>
<glyph name="uni0309" format="2">
  <unicode hex="0309"/>
  <anchor x="85" y="1174" name="_top"/>
  <anchor x="20" y="1100" name="_topright"/>
  <outline>
    <contour>
      <point x="-40" y="1100" type="line"/>
      <point x="149" y="1100" type="line"/>
      <point x="181" y="1116"/>
      <point x="237" y="1156"/>
      <point x="281" y="1203"/>
      <point x="311" y="1257"/>
      <point x="316" y="1287" type="qcurve" smooth="yes"/>
      <point x="324" y="1330"/>
      <point x="305" y="1401"/>
      <point x="257" y="1452"/>
      <point x="180" y="1480"/>
      <point x="130" y="1480" type="qcurve" smooth="yes"/>
      <point x="102" y="1480"/>
      <point x="48" y="1470"/>
      <point x="-1" y="1455"/>
      <point x="-42" y="1435"/>
      <point x="-55" y="1424" type="qcurve"/>
      <point x="-53" y="1244" type="line"/>
      <point x="-45" y="1252"/>
      <point x="-20" y="1266"/>
      <point x="-2" y="1266" type="qcurve" smooth="yes"/>
      <point x="16" y="1266"/>
      <point x="40" y="1239"/>
      <point x="35" y="1209" type="qcurve" smooth="yes"/>
      <point x="29" y="1176"/>
      <point x="-14" y="1119"/>
      <point x="-40" y="1100" type="qcurve"/>
    </contour>
  </outline>
</glyph>
<glyph name="uni030A" format="2">
  <unicode hex="030A"/>
  <anchor x="72" y="1174" name="_top"/>
  <anchor x="154" y="1641" name="top"/>
  <outline>
    <contour>
      <point x="-168" y="1309" type="line"/>
      <point x="-180" y="1240"/>
      <point x="-176" y="1153"/>
      <point x="-128" y="1104"/>
      <point x="-27" y="1087"/>
      <point x="57" y="1087" type="qcurve" smooth="yes"/>
      <point x="141" y="1087"/>
      <point x="247" y="1104"/>
      <point x="313" y="1153"/>
      <point x="348" y="1240"/>
      <point x="360" y="1309" type="qcurve" smooth="yes"/>
      <point x="372" y="1378"/>
      <point x="368" y="1465"/>
      <point x="319" y="1514"/>
      <point x="219" y="1531"/>
      <point x="135" y="1531" type="qcurve" smooth="yes"/>
      <point x="51" y="1531"/>
      <point x="-56" y="1514"/>
      <point x="-121" y="1465"/>
      <point x="-156" y="1378"/>
      <point x="-168" y="1309" type="qcurve"/>
    </contour>
    <contour>
      <point x="46" y="1309" type="line"/>
      <point x="49" y="1326"/>
      <point x="59" y="1346"/>
      <point x="73" y="1356"/>
      <point x="92" y="1360"/>
      <point x="105" y="1360" type="qcurve" smooth="yes"/>
      <point x="118" y="1360"/>
      <point x="136" y="1356"/>
      <point x="147" y="1346"/>
      <point x="149" y="1326"/>
      <point x="146" y="1309" type="qcurve" smooth="yes"/>
      <point x="143" y="1293"/>
      <point x="133" y="1273"/>
      <point x="119" y="1262"/>
      <point x="100" y="1258"/>
      <point x="87" y="1258" type="qcurve" smooth="yes"/>
      <point x="74" y="1258"/>
      <point x="56" y="1262"/>
      <point x="46" y="1273"/>
      <point x="43" y="1293"/>
      <point x="46" y="1309" type="qcurve"/>
    </contour>
  </outline>
</glyph>
<glyph name="uni031B" format="2">
  <unicode hex="031B"/>
  <anchor x="58" y="1024" name="_horn"/>
  <outline>
    <contour>
      <point x="18" y="789" type="line"/>
      <point x="155" y="789"/>
      <point x="331" y="839"/>
      <point x="438" y="930"/>
      <point x="491" y="1059"/>
      <point x="505" y="1138" type="qcurve" smooth="yes"/>
      <point x="518" y="1210"/>
      <point x="528" y="1332"/>
      <point x="526" y="1392" type="qcurve"/>
      <point x="165" y="1324" type="line"/>
      <point x="166" y="1280"/>
      <point x="154" y="1184"/>
      <point x="146" y="1138" type="qcurve" smooth="yes"/>
      <point x="142" y="1115"/>
      <point x="127" y="1073"/>
      <point x="106" y="1042"/>
      <point x="78" y="1024"/>
      <point x="60" y="1024" type="qcurve"/>
    </contour>
  </outline>
</glyph>
<glyph name="uni0327" format="2">
  <unicode hex="0327"/>
  <anchor x="-146" y="-150" name="_bottom"/>
  <outline>
    <contour>
      <point x="-183" y="0" type="line"/>
      <point x="-285" y="-218" type="line"/>
      <point x="-268" y="-210"/>
      <point x="-245" y="-202"/>
      <point x="-227" y="-202" type="qcurve" smooth="yes"/>
      <point x="-220" y="-202"/>
      <point x="-205" y="-209"/>
      <point x="-195" y="-222"/>
      <point x="-191" y="-243"/>
      <point x="-194" y="-256" type="qcurve" smooth="yes"/>
      <point x="-196" y="-270"/>
      <point x="-208" y="-291"/>
      <point x="-224" y="-307"/>
      <point x="-243" y="-315"/>
      <point x="-252" y="-315" type="qcurve" smooth="yes"/>
      <point x="-278" y="-315"/>
      <point x="-297" y="-305"/>
      <point x="-307" y="-297" type="qcurve"/>
      <point x="-367" y="-388" type="line"/>
      <point x="-349" y="-400"/>
      <point x="-323" y="-419"/>
      <point x="-294" y="-432"/>
      <point x="-259" y="-438"/>
      <point x="-233" y="-438" type="qcurve" smooth="yes"/>
      <point x="-185" y="-438"/>
      <point x="-96" y="-417"/>
      <point x="-24" y="-370"/>
      <point x="27" y="-297"/>
      <point x="36" y="-246" type="qcurve" smooth="yes"/>
      <point x="42" y="-212"/>
      <point x="34" y="-154"/>
      <point x="2" y="-109"/>
      <point x="-58" y="-81"/>
      <point x="-103" y="-78" type="qcurve"/>
      <point x="-61" y="0" type="line"/>
    </contour>
  </outline>
</glyph>
<glyph name="uni0328" format="2">
  <unicode hex="0328"/>
  <anchor x="-26" y="-150" name="_bottom"/>
  <anchor x="138" y="0" name="_ogonek"/>
  <outline>
    <contour>
      <point x="138" y="0" type="line"/>
      <point x="116" y="-1"/>
      <point x="80" y="-18"/>
      <point x="54" y="-42"/>
      <point x="38" y="-71"/>
      <point x="36" y="-84" type="qcurve" smooth="yes"/>
      <point x="33" y="-100"/>
      <point x="44" y="-125"/>
      <point x="67" y="-143"/>
      <point x="99" y="-152"/>
      <point x="118" y="-152" type="qcurve" smooth="yes"/>
      <point x="141" y="-152"/>
      <point x="183" y="-149"/>
      <point x="225" y="-142"/>
      <point x="266" y="-133"/>
      <point x="288" y="-127" type="qcurve"/>
      <point x="199" y="-386" type="line"/>
      <point x="124" y="-414"/>
      <point x="-23" y="-442"/>
      <point x="-95" y="-442" type="qcurve" smooth="yes"/>
      <point x="-166" y="-442"/>
      <point x="-271" y="-414"/>
      <point x="-335" y="-359"/>
      <point x="-359" y="-279"/>
      <point x="-350" y="-226" type="qcurve" smooth="yes"/>
      <point x="-344" y="-193"/>
      <point x="-318" y="-131"/>
      <point x="-278" y="-74"/>
      <point x="-226" y="-22"/>
      <point x="-194" y="0" type="qcurve"/>
    </contour>
  </outline>
</glyph>
<glyph name="uni0402" format="2">
  <advance width="1586"/>
  <unicode hex="0402"/>
  <outline>
    <contour>
      <point x="184" y="0" type="line"/>
      <point x="756" y="0" type="line"/>
      <point x="845" y="510" type="line"/>
      <point x="918" y="510" type="line" smooth="yes"/>
      <point x="935" y="510"/>
      <point x="957" y="501"/>
      <point x="969" y="486"/>
      <point x="971" y="464"/>
      <point x="969" y="450" type="qcurve" smooth="yes"/>
      <point x="965" y="430" type="line" smooth="yes"/>
      <point x="963" y="417"/>
      <point x="953" y="394"/>
      <point x="940" y="379"/>
      <point x="921" y="370"/>
      <point x="910" y="370" type="qcurve" smooth="yes"/>
      <point x="890" y="370" type="line"/>
      <point x="825" y="0" type="line"/>
      <point x="1031" y="0" type="line" smooth="yes"/>
      <point x="1136" y="0"/>
      <point x="1299" y="38"/>
      <point x="1417" y="125"/>
      <point x="1492" y="264"/>
      <point x="1510" y="364" type="qcurve" smooth="yes"/>
      <point x="1544" y="560" type="line" smooth="yes"/>
      <point x="1562" y="661"/>
      <point x="1525" y="788"/>
      <point x="1430" y="860"/>
      <point x="1282" y="886"/>
      <point x="1187" y="886" type="qcurve" smooth="yes"/>
      <point x="911" y="886" type="line"/>
      <point x="935" y="1024" type="line"/>
      <point x="1211" y="1024" type="line"/>
      <point x="1276" y="1400" type="line"/>
      <point x="152" y="1400" type="line"/>
      <point x="87" y="1024" type="line"/>
      <point x="363" y="1024" type="line"/>
    </contour>
  </outline>
  <guideline x="344" y="916" angle="260.114" color="1,0,0,1"/>
</glyph>
<glyph name="uni0404" format="2">
  <advance width="1288"/>
  <unicode hex="0404"/>
  <anchor x="821" y="1550" name="top"/>
  <note>Conventional solution for Blk Cond is not very good. Consider alternates.</note>
  <outline>
    <contour>
      <point x="352.281" y="-18" type="line"/>
      <point x="748.281" y="-18" type="line" smooth="yes"/>
      <point x="847.281" y="-18"/>
      <point x="1003.28" y="13"/>
      <point x="1119.28" y="91"/>
      <point x="1194.28" y="225"/>
      <point x="1212.28" y="328" type="qcurve" smooth="yes"/>
      <point x="1228.28" y="420" type="line"/>
      <point x="697.281" y="482" type="line"/>
      <point x="682.281" y="398" type="line"/>
      <point x="682.281" y="398"/>
      <point x="682.281" y="398"/>
      <point x="682.281" y="398"/>
      <point x="682.281" y="398"/>
      <point x="682.281" y="398" type="qcurve"/>
      <point x="564.281" y="398" type="line"/>
      <point x="564.281" y="398"/>
      <point x="564.281" y="398"/>
      <point x="564.281" y="398"/>
      <point x="564.281" y="398"/>
      <point x="564.281" y="398" type="qcurve"/>
      <point x="591.281" y="550" type="line"/>
      <point x="887.281" y="550" type="line"/>
      <point x="945.281" y="880" type="line"/>
      <point x="649.281" y="880" type="line"/>
      <point x="670.281" y="1002" type="line"/>
      <point x="670.281" y="1002"/>
      <point x="670.281" y="1002"/>
      <point x="670.281" y="1002"/>
      <point x="670.281" y="1002"/>
      <point x="670.281" y="1002" type="qcurve"/>
      <point x="782.281" y="1002" type="line"/>
      <point x="782.281" y="1002"/>
      <point x="782.281" y="1002"/>
      <point x="782.281" y="1002"/>
      <point x="782.281" y="1002"/>
      <point x="782.281" y="1002" type="qcurve"/>
      <point x="771.281" y="939" type="line"/>
      <point x="1323.28" y="996" type="line"/>
      <point x="1338.28" y="1084" type="line" smooth="yes"/>
      <point x="1356.28" y="1185"/>
      <point x="1323.28" y="1314"/>
      <point x="1231.28" y="1389"/>
      <point x="1087.28" y="1418"/>
      <point x="992.281" y="1418" type="qcurve" smooth="yes"/>
      <point x="602.281" y="1418" type="line" smooth="yes"/>
      <point x="508.281" y="1418"/>
      <point x="350.281" y="1389"/>
      <point x="230.281" y="1314"/>
      <point x="150.281" y="1185"/>
      <point x="132.281" y="1084" type="qcurve" smooth="yes"/>
      <point x="0.280674" y="328" type="line" smooth="yes"/>
      <point x="-17.7193" y="225"/>
      <point x="13.2807" y="91"/>
      <point x="105.281" y="13"/>
      <point x="253.281" y="-18"/>
      <point x="352.281" y="-18" type="qcurve"/>
    </contour>
  </outline>
  <guideline x="399" y="-0" angle="260.126" color="1,0,0,1"/>
</glyph>
<glyph name="uni0409" format="2">
  <advance width="2156.87"/>
  <unicode hex="0409"/>
  <outline>
    <contour>
      <point x="-130" y="0" type="line"/>
      <point x="475" y="0" type="line"/>
      <point x="889" y="956" type="line"/>
      <point x="940" y="956" type="line"/>
      <point x="773" y="0" type="line"/>
      <point x="1604" y="0" type="line" smooth="yes"/>
      <point x="1698" y="0"/>
      <point x="1856" y="28"/>
      <point x="1976" y="101"/>
      <point x="2057" y="227"/>
      <point x="2074" y="324" type="qcurve" smooth="yes"/>
      <point x="2135" y="674" type="line" smooth="yes"/>
      <point x="2152" y="775"/>
      <point x="2116" y="902"/>
      <point x="2021" y="974"/>
      <point x="1873" y="1000"/>
      <point x="1779" y="1000" type="qcurve" smooth="yes"/>
      <point x="1520" y="1000" type="line"/>
      <point x="1589" y="1400" type="line"/>
      <point x="536" y="1400" type="line"/>
    </contour>
    <contour>
      <point x="1422" y="439" type="line"/>
      <point x="1443" y="560" type="line"/>
      <point x="1482" y="560" type="line" smooth="yes"/>
      <point x="1499" y="560"/>
      <point x="1521" y="553"/>
      <point x="1533" y="539"/>
      <point x="1536" y="520"/>
      <point x="1534" y="509" type="qcurve" smooth="yes"/>
      <point x="1531" y="490" type="line" smooth="yes"/>
      <point x="1529" y="479"/>
      <point x="1519" y="460"/>
      <point x="1502" y="447"/>
      <point x="1478" y="439"/>
      <point x="1461" y="439" type="qcurve" smooth="yes"/>
    </contour>
  </outline>
</glyph>
